Messapia-Regular.ufo
<glyph name="exclam" format="2">
  <advance width="204"/>
  <unicode hex="0021"/>
  <note>
exclam
</note>
  <outline>
    <contour>
      <point x="65" y="700" type="line"/>
      <point x="91" y="206" type="line"/>
      <point x="113" y="206" type="line"/>
      <point x="140" y="700" type="line"/>
    </contour>
    <component base="period"/>
  </outline>
</glyph>
<glyph name="numbersign" format="2">
  <advance width="626"/>
  <unicode hex="0023"/>
  <note>
numbersign
</note>
  <outline>
    <contour>
      <point x="-5" y="211" type="line"/>
      <point x="572" y="211" type="line"/>
      <point x="572" y="243" type="line"/>
      <point x="-5" y="243" type="line"/>
    </contour>
    <contour>
      <point x="69" y="463" type="line"/>
      <point x="646" y="463" type="line"/>
      <point x="646" y="494" type="line"/>
      <point x="69" y="494" type="line"/>
    </contour>
    <contour>
      <point x="292" y="700" type="line"/>
      <point x="93" y="0" type="line"/>
      <point x="128" y="0" type="line"/>
      <point x="327" y="700" type="line"/>
    </contour>
    <contour>
      <point x="512" y="700" type="line"/>
      <point x="313" y="0" type="line"/>
      <point x="348" y="0" type="line"/>
      <point x="547" y="700" type="line"/>
    </contour>
  </outline>
</glyph>
<glyph name="dollar" format="2">
  <advance width="717"/>
  <unicode hex="0024"/>
  <note>
dollar
</note>
  <anchor x="386" y="0" name="bottom"/>
  <anchor x="386" y="650" name="top"/>
  <outline>
    <contour>
      <point x="291" y="-93" type="line"/>
      <point x="323" y="-93" type="line"/>
      <point x="323" y="750" type="line"/>
      <point x="291" y="750" type="line"/>
    </contour>
    <contour>
      <point x="393" y="-93" type="line"/>
      <point x="425" y="-93" type="line"/>
      <point x="425" y="750" type="line"/>
      <point x="393" y="750" type="line"/>
    </contour>
    <contour>
      <point x="125" y="-1" type="line"/>
      <point x="185" y="51" type="line"/>
      <point x="262" y="9"/>
      <point x="336" y="-15"/>
      <point x="431" y="-15" type="curve" smooth="yes"/>
      <point x="552" y="-15"/>
      <point x="667" y="65"/>
      <point x="667" y="175" type="curve" smooth="yes"/>
      <point x="667" y="280"/>
      <point x="559" y="339"/>
      <point x="463" y="365" type="curve" smooth="yes"/>
      <point x="309" y="406" type="line" smooth="yes"/>
      <point x="229" y="427"/>
      <point x="148" y="476"/>
      <point x="148" y="560" type="curve" smooth="yes"/>
      <point x="148" y="616"/>
      <point x="196" y="669"/>
      <point x="306" y="669" type="curve" smooth="yes"/>
      <point x="422" y="669"/>
      <point x="535" y="613"/>
      <point x="659" y="455" type="curve"/>
      <point x="666" y="455" type="line"/>
      <point x="548" y="682" type="line"/>
      <point x="508" y="629" type="line"/>
      <point x="435" y="676"/>
      <point x="372" y="700"/>
      <point x="277" y="700" type="curve" smooth="yes"/>
      <point x="149" y="700"/>
      <point x="59" y="631"/>
      <point x="59" y="542" type="curve" smooth="yes"/>
      <point x="59" y="435"/>
      <point x="158" y="361"/>
      <point x="278" y="329" type="curve" smooth="yes"/>
      <point x="425" y="290" type="line" smooth="yes"/>
      <point x="534" y="261"/>
      <point x="577" y="215"/>
      <point x="577" y="154" type="curve" smooth="yes"/>
      <point x="577" y="68"/>
      <point x="500" y="17"/>
      <point x="421" y="17" type="curve" smooth="yes"/>
      <point x="261" y="17"/>
      <point x="129" y="99"/>
      <point x="38" y="267" type="curve"/>
      <point x="30" y="268" type="line"/>
    </contour>
  </outline>
</glyph>
<glyph name="percent" format="2">
  <advance width="929"/>
  <unicode hex="0025"/>
  <note>
percent
</note>
  <outline>
    <contour>
      <point x="162" y="1" type="line"/>
      <point x="205" y="1" type="line"/>
      <point x="735" y="681" type="line"/>
      <point x="692" y="681" type="line"/>
    </contour>
    <contour>
      <point x="223" y="364" type="curve" smooth="yes"/>
      <point x="320" y="364"/>
      <point x="399" y="435"/>
      <point x="399" y="534" type="curve" smooth="yes"/>
      <point x="399" y="628"/>
      <point x="323" y="705"/>
      <point x="223" y="705" type="curve" smooth="yes"/>
      <point x="127" y="705"/>
      <point x="50" y="632"/>
      <point x="50" y="534" type="curve" smooth="yes"/>
      <point x="50" y="438"/>
      <point x="123" y="364"/>
    </contour>
    <contour>
      <point x="313" y="678"/>
      <point x="337" y="626"/>
      <point x="337" y="534" type="curve" smooth="yes"/>
      <point x="337" y="445"/>
      <point x="313" y="392"/>
      <point x="224" y="392" type="curve" smooth="yes"/>
      <point x="134" y="392"/>
      <point x="111" y="449"/>
      <point x="111" y="534" type="curve" smooth="yes"/>
      <point x="111" y="626"/>
      <point x="143" y="678"/>
      <point x="224" y="678" type="curve" smooth="yes"/>
    </contour>
    <contour>
      <point x="703" y="-5" type="curve" smooth="yes"/>
      <point x="800" y="-5"/>
      <point x="879" y="66"/>
      <point x="879" y="165" type="curve" smooth="yes"/>
      <point x="879" y="259"/>
      <point x="803" y="336"/>
      <point x="703" y="336" type="curve" smooth="yes"/>
      <point x="607" y="336"/>
      <point x="530" y="263"/>
      <point x="530" y="165" type="curve" smooth="yes"/>
      <point x="530" y="69"/>
      <point x="603" y="-5"/>
    </contour>
    <contour>
      <point x="793" y="309"/>
      <point x="817" y="257"/>
      <point x="817" y="165" type="curve" smooth="yes"/>
      <point x="817" y="76"/>
      <point x="793" y="23"/>
      <point x="704" y="23" type="curve" smooth="yes"/>
      <point x="614" y="23"/>
      <point x="591" y="80"/>
      <point x="591" y="165" type="curve" smooth="yes"/>
      <point x="591" y="257"/>
      <point x="623" y="309"/>
      <point x="704" y="309" type="curve" smooth="yes"/>
    </contour>
  </outline>
</glyph>
<glyph name="ampersand" format="2">
  <advance width="861"/>
  <unicode hex="0026"/>
  <note>
ampersand
</note>
  <outline>
    <contour>
      <point x="558" y="229" type="curve" smooth="yes"/>
      <point x="624" y="319"/>
      <point x="675" y="359"/>
      <point x="725" y="359" type="curve" smooth="yes"/>
      <point x="758" y="359"/>
      <point x="775" y="352"/>
      <point x="798" y="339" type="curve"/>
      <point x="783" y="419" type="line"/>
      <point x="672" y="408"/>
      <point x="645" y="372"/>
      <point x="544" y="247" type="curve" smooth="yes"/>
      <point x="466" y="150"/>
      <point x="399" y="14"/>
      <point x="260" y="14" type="curve" smooth="yes"/>
      <point x="176" y="14"/>
      <point x="114" y="79.054"/>
      <point x="114" y="189" type="curve" smooth="yes"/>
      <point x="114" y="294.333"/>
      <point x="167" y="369"/>
      <point x="251" y="398" type="curve"/>
      <point x="297" y="380" type="line" smooth="yes"/>
      <point x="382" y="347"/>
      <point x="442" y="334"/>
      <point x="468" y="245" type="curve" smooth="yes"/>
      <point x="523" y="58"/>
      <point x="594" y="-7"/>
      <point x="679" y="-7" type="curve" smooth="yes"/>
      <point x="745" y="-7"/>
      <point x="795.333" y="25"/>
      <point x="824" y="69" type="curve"/>
      <point x="808" y="82" type="line"/>
      <point x="782.667" y="46"/>
      <point x="740.333" y="22"/>
      <point x="703" y="22" type="curve" smooth="yes"/>
      <point x="620" y="22"/>
      <point x="592" y="103"/>
      <point x="570" y="184" type="curve" smooth="yes"/>
      <point x="526" y="343"/>
      <point x="482" y="394"/>
      <point x="326" y="443" type="curve" smooth="yes"/>
      <point x="246" y="469.667"/>
      <point x="201" y="502.667"/>
      <point x="201" y="573" type="curve" smooth="yes"/>
      <point x="201" y="628"/>
      <point x="247" y="671"/>
      <point x="326" y="670" type="curve" smooth="yes"/>
      <point x="403" y="670"/>
      <point x="474.667" y="615"/>
      <point x="516" y="527" type="curve"/>
      <point x="544" y="604" type="line"/>
      <point x="498.667" y="656"/>
      <point x="417.333" y="691"/>
      <point x="337" y="691" type="curve" smooth="yes"/>
      <point x="227" y="691"/>
      <point x="136" y="628.561"/>
      <point x="136" y="541" type="curve" smooth="yes"/>
      <point x="136" y="478"/>
      <point x="177.667" y="437.333"/>
      <point x="232" y="408" type="curve"/>
      <point x="124" y="380"/>
      <point x="25" y="309"/>
      <point x="25" y="191" type="curve" smooth="yes"/>
      <point x="25" y="57"/>
      <point x="138" y="-10"/>
      <point x="259" y="-10" type="curve" smooth="yes"/>
      <point x="405" y="-10"/>
      <point x="479" y="122"/>
    </contour>
  </outline>
</glyph>
<glyph name="quotesingle" format="2">
  <advance width="120"/>
  <unicode hex="0027"/>
  <note>
quotesingle
</note>
  <outline>
    <contour>
      <point x="51" y="564" type="line"/>
      <point x="69" y="564" type="line"/>
      <point x="100" y="750" type="line"/>
      <point x="20" y="750" type="line"/>
    </contour>
  </outline>
</glyph>
<glyph name="parenleft" format="2">
  <advance width="328"/>
  <unicode hex="0028"/>
  <note>
parenleft
</note>
  <outline>
    <contour>
      <point x="109" y="276" type="curve" smooth="yes"/>
      <point x="109" y="458"/>
      <point x="174" y="621"/>
      <point x="281" y="710" type="curve"/>
      <point x="267" y="728" type="line"/>
      <point x="131" y="633"/>
      <point x="22" y="443"/>
      <point x="22" y="276" type="curve" smooth="yes"/>
      <point x="22" y="109"/>
      <point x="132" y="-83"/>
      <point x="267" y="-176" type="curve"/>
      <point x="281" y="-157" type="line"/>
      <point x="174" y="-68"/>
      <point x="109" y="94"/>
    </contour>
  </outline>
</glyph>
<glyph name="asterisk" format="2">
  <advance width="388"/>
  <unicode hex="002A"/>
  <note>
asterisk
</note>
  <outline>
    <contour>
      <point x="194" y="400" type="curve" smooth="yes"/>
      <point x="208" y="400"/>
      <point x="223" y="410"/>
      <point x="223" y="432" type="curve" smooth="yes"/>
      <point x="223" y="439.333"/>
      <point x="220" y="455.667"/>
      <point x="214" y="481" type="curve" smooth="yes"/>
      <point x="208" y="505"/>
      <point x="204" y="528"/>
      <point x="202" y="550" type="curve"/>
      <point x="207" y="546"/>
      <point x="223" y="533"/>
      <point x="248" y="511" type="curve" smooth="yes"/>
      <point x="265" y="496"/>
      <point x="293" y="467"/>
      <point x="310" y="467" type="curve" smooth="yes"/>
      <point x="330" y="467"/>
      <point x="338" y="486"/>
      <point x="338" y="496" type="curve" smooth="yes"/>
      <point x="338" y="518.667"/>
      <point x="322.333" y="525.333"/>
      <point x="281" y="536" type="curve" smooth="yes"/>
      <point x="249.667" y="544.667"/>
      <point x="226" y="553.333"/>
      <point x="210" y="562" type="curve"/>
      <point x="226.667" y="570"/>
      <point x="249" y="578.333"/>
      <point x="277" y="587" type="curve" smooth="yes"/>
      <point x="290" y="590"/>
      <point x="339" y="607"/>
      <point x="339" y="629" type="curve" smooth="yes"/>
      <point x="339" y="644"/>
      <point x="327" y="658"/>
      <point x="311" y="658" type="curve" smooth="yes"/>
      <point x="291" y="658"/>
      <point x="268" y="633"/>
      <point x="254" y="619" type="curve" smooth="yes"/>
      <point x="230.667" y="597"/>
      <point x="213.333" y="582"/>
      <point x="202" y="574" type="curve"/>
      <point x="202.667" y="578"/>
      <point x="206.667" y="600.667"/>
      <point x="214" y="642" type="curve" smooth="yes"/>
      <point x="220" y="672"/>
      <point x="223" y="689.667"/>
      <point x="223" y="695" type="curve" smooth="yes"/>
      <point x="223" y="711"/>
      <point x="210" y="724"/>
      <point x="194" y="724" type="curve" smooth="yes"/>
      <point x="178" y="724"/>
      <point x="165" y="711"/>
      <point x="165" y="695" type="curve" smooth="yes"/>
      <point x="165" y="689.667"/>
      <point x="168" y="672"/>
      <point x="174" y="642" type="curve" smooth="yes"/>
      <point x="181.333" y="600.667"/>
      <point x="185.333" y="578"/>
      <point x="186" y="574" type="curve"/>
      <point x="179.333" y="578.667"/>
      <point x="163" y="593"/>
      <point x="120" y="631" type="curve" smooth="yes"/>
      <point x="110" y="640"/>
      <point x="90" y="658"/>
      <point x="78" y="658" type="curve" smooth="yes"/>
      <point x="61" y="658"/>
      <point x="49" y="643"/>
      <point x="49" y="628" type="curve" smooth="yes"/>
      <point x="49" y="617"/>
      <point x="54" y="608"/>
      <point x="64" y="604" type="curve" smooth="yes"/>
      <point x="178" y="562" type="line"/>
      <point x="156.667" y="550.667"/>
      <point x="135.333" y="542.667"/>
      <point x="114" y="538" type="curve" smooth="yes"/>
      <point x="87" y="531"/>
      <point x="50" y="526"/>
      <point x="50" y="496" type="curve" smooth="yes"/>
      <point x="50" y="483"/>
      <point x="61" y="467"/>
      <point x="78" y="467" type="curve" smooth="yes"/>
      <point x="90.667" y="467"/>
      <point x="109.333" y="480"/>
      <point x="134" y="506" type="curve" smooth="yes"/>
      <point x="148.667" y="522"/>
      <point x="166" y="536.667"/>
      <point x="186" y="550" type="curve"/>
      <point x="184" y="528"/>
      <point x="180" y="505"/>
      <point x="174" y="481" type="curve" smooth="yes"/>
      <point x="168" y="458.333"/>
      <point x="165" y="442"/>
      <point x="165" y="432" type="curve" smooth="yes"/>
      <point x="165" y="415"/>
      <point x="177" y="400"/>
    </contour>
  </outline>
</glyph>
<glyph name="plus" format="2">
  <advance width="480"/>
  <unicode hex="002B"/>
  <note>
plus
</note>
  <outline>
    <contour>
      <point x="222" y="531" type="line"/>
      <point x="222" y="116" type="line"/>
      <point x="258" y="116" type="line"/>
      <point x="258" y="531" type="line"/>
    </contour>
    <contour>
      <point x="445" y="339" type="line"/>
      <point x="35" y="339" type="line"/>
      <point x="35" y="306" type="line"/>
      <point x="445" y="306" type="line"/>
    </contour>
  </outline>
</glyph>
<glyph name="comma" format="2">
  <advance width="193"/>
  <unicode hex="002C"/>
  <note>
comma
</note>
  <outline>
    <contour>
      <point x="94" y="-10" type="curve" smooth="yes"/>
      <point x="113" y="-10"/>
      <point x="129" y="-4"/>
      <point x="136" y="7" type="curve"/>
      <point x="136" y="-39"/>
      <point x="116" y="-92"/>
      <point x="45" y="-128" type="curve"/>
      <point x="52" y="-141" type="line"/>
      <point x="124" y="-114"/>
      <point x="163" y="-50"/>
      <point x="163" y="11" type="curve" smooth="yes"/>
      <point x="163" y="64"/>
      <point x="141" y="102"/>
      <point x="99" y="102" type="curve" smooth="yes"/>
      <point x="65" y="102"/>
      <point x="40" y="76"/>
      <point x="40" y="45" type="curve" smooth="yes"/>
      <point x="40" y="14"/>
      <point x="64" y="-10"/>
    </contour>
  </outline>
</glyph>
<glyph name="hyphen" format="2">
  <advance width="383"/>
  <unicode hex="002D"/>
  <note>
hyphen
</note>
  <outline>
    <contour>
      <point x="40" y="244" type="line"/>
      <point x="343" y="244" type="line"/>
      <point x="343" y="299" type="line"/>
      <point x="40" y="299" type="line"/>
    </contour>
  </outline>
</glyph>
<glyph name="period" format="2">
  <advance width="196"/>
  <unicode hex="002E"/>
  <note>
period
</note>
  <outline>
    <contour>
      <point x="98" y="-15" type="curve" smooth="yes"/>
      <point x="130" y="-15"/>
      <point x="156" y="11"/>
      <point x="156" y="43" type="curve" smooth="yes"/>
      <point x="156" y="75"/>
      <point x="129" y="101"/>
      <point x="98" y="101" type="curve" smooth="yes"/>
      <point x="66" y="101"/>
      <point x="40" y="75"/>
      <point x="40" y="43" type="curve" smooth="yes"/>
      <point x="40" y="11"/>
      <point x="67" y="-15"/>
    </contour>
  </outline>
</glyph>
<glyph name="slash" format="2">
  <advance width="426"/>
  <unicode hex="002F"/>
  <note>
slash
</note>
  <outline>
    <contour>
      <point x="43" y="-168" type="line"/>
      <point x="77" y="-168" type="line"/>
      <point x="374" y="715" type="line"/>
      <point x="340" y="715" type="line"/>
    </contour>
  </outline>
</glyph>
<glyph name="zero" format="2">
  <advance width="780"/>
  <unicode hex="0030"/>
  <note>
zero
</note>
  <outline>
    <contour>
      <point x="388" y="-14" type="curve" smooth="yes"/>
      <point x="583" y="-14"/>
      <point x="740" y="140"/>
      <point x="740" y="335" type="curve" smooth="yes"/>
      <point x="740" y="550"/>
      <point x="588" y="700"/>
      <point x="389" y="700" type="curve" smooth="yes"/>
      <point x="195" y="700"/>
      <point x="40" y="550"/>
      <point x="40" y="335" type="curve" smooth="yes"/>
      <point x="40" y="140"/>
      <point x="188" y="-14"/>
    </contour>
    <contour>
      <point x="610" y="552" type="line"/>
      <point x="592" y="582" type="line"/>
      <point x="171" y="131" type="line"/>
      <point x="189" y="100" type="line"/>
    </contour>
    <contour>
      <point x="581" y="672"/>
      <point x="631" y="544"/>
      <point x="631" y="335" type="curve" smooth="yes"/>
      <point x="631" y="142"/>
      <point x="581" y="14"/>
      <point x="391" y="14" type="curve" smooth="yes"/>
      <point x="198" y="14"/>
      <point x="149" y="142"/>
      <point x="149" y="335" type="curve" smooth="yes"/>
      <point x="149" y="544"/>
      <point x="215" y="672"/>
      <point x="390" y="672" type="curve" smooth="yes"/>
    </contour>
  </outline>
</glyph>
<glyph name="one" format="2">
  <advance width="504"/>
  <unicode hex="0031"/>
  <note>
one
</note>
  <outline>
    <contour>
      <point x="98" y="0" type="line"/>
      <point x="494" y="0" type="line"/>
      <point x="494" y="2" type="line"/>
      <point x="336" y="71" type="line"/>
      <point x="331" y="705" type="line"/>
      <point x="306" y="705" type="line"/>
      <point x="57" y="542" type="line"/>
      <point x="62" y="533" type="line"/>
      <point x="256" y="603" type="line"/>
      <point x="256" y="71" type="line"/>
      <point x="98" y="1" type="line"/>
    </contour>
  </outline>
</glyph>
<glyph name="two" format="2">
  <advance width="784"/>
  <unicode hex="0032"/>
  <note>
two
</note>
  <outline>
    <contour>
      <point x="393" y="705" type="curve" smooth="yes"/>
      <point x="549" y="705"/>
      <point x="659" y="637"/>
      <point x="659" y="526" type="curve" smooth="yes"/>
      <point x="659" y="361"/>
      <point x="501" y="307"/>
      <point x="369" y="261" type="curve" smooth="yes"/>
      <point x="221" y="209"/>
      <point x="165" y="139"/>
      <point x="161" y="78" type="curve"/>
      <point x="547" y="80" type="line"/>
      <point x="695" y="220" type="line"/>
      <point x="697" y="220" type="line"/>
      <point x="604" y="-34" type="line"/>
      <point x="579" y="0" type="line"/>
      <point x="107" y="0" type="line"/>
      <point x="107" y="175"/>
      <point x="225" y="247"/>
      <point x="373" y="299" type="curve" smooth="yes"/>
      <point x="513" y="348"/>
      <point x="559" y="429"/>
      <point x="559" y="526" type="curve" smooth="yes"/>
      <point x="559" y="610"/>
      <point x="493" y="677"/>
      <point x="384" y="677" type="curve" smooth="yes"/>
      <point x="242" y="677"/>
      <point x="173" y="560"/>
      <point x="171" y="441" type="curve"/>
      <point x="169" y="441" type="line"/>
      <point x="82" y="515" type="line"/>
      <point x="137" y="640"/>
      <point x="246" y="705"/>
    </contour>
  </outline>
</glyph>
<glyph name="three" format="2">
  <advance width="682"/>
  <unicode hex="0033"/>
  <note>
three
</note>
  <outline>
    <contour>
      <point x="344" y="-15" type="curve" smooth="yes"/>
      <point x="504" y="-15"/>
      <point x="627" y="67"/>
      <point x="627" y="189" type="curve" smooth="yes"/>
      <point x="627" y="328"/>
      <point x="521" y="387"/>
      <point x="401" y="386" type="curve"/>
      <point x="516" y="413"/>
      <point x="576" y="477"/>
      <point x="576" y="557" type="curve" smooth="yes"/>
      <point x="576" y="666"/>
      <point x="471" y="715"/>
      <point x="343" y="715" type="curve" smooth="yes"/>
      <point x="184" y="715"/>
      <point x="99" y="626"/>
      <point x="64" y="548" type="curve"/>
      <point x="147" y="475" type="line"/>
      <point x="149" y="475" type="line"/>
      <point x="156" y="601"/>
      <point x="229" y="688"/>
      <point x="344" y="688" type="curve" smooth="yes"/>
      <point x="429" y="688"/>
      <point x="486" y="642"/>
      <point x="486" y="567" type="curve" smooth="yes"/>
      <point x="486" y="467"/>
      <point x="398" y="402"/>
      <point x="203" y="363" type="curve"/>
      <point x="210" y="331" type="line"/>
      <point x="288" y="349"/>
      <point x="333" y="356"/>
      <point x="372" y="356" type="curve" smooth="yes"/>
      <point x="466" y="356"/>
      <point x="527" y="288"/>
      <point x="527" y="192" type="curve" smooth="yes"/>
      <point x="527" y="75"/>
      <point x="450" y="11"/>
      <point x="344" y="11" type="curve" smooth="yes"/>
      <point x="207" y="11"/>
      <point x="143" y="118"/>
      <point x="138" y="225" type="curve"/>
      <point x="136" y="225" type="line"/>
      <point x="54" y="146" type="line"/>
      <point x="98" y="41"/>
      <point x="225" y="-15"/>
    </contour>
  </outline>
</glyph>
<glyph name="four" format="2">
  <advance width="726"/>
  <unicode hex="0034"/>
  <note>
four
</note>
  <outline>
    <contour>
      <point x="29" y="191" type="line"/>
      <point x="659" y="191" type="line"/>
      <point x="659" y="223" type="line"/>
      <point x="58" y="223" type="line"/>
      <point x="74" y="215" type="line"/>
      <point x="194" y="263"/>
      <point x="364" y="435"/>
      <point x="479" y="620" type="curve"/>
      <point x="348" y="715" type="line"/>
      <point x="355" y="491"/>
      <point x="227" y="318"/>
      <point x="29" y="221" type="curve"/>
    </contour>
    <contour>
      <point x="414" y="383" type="line"/>
      <point x="414" y="67" type="line"/>
      <point x="288" y="3" type="line"/>
      <point x="288" y="0" type="line"/>
      <point x="625" y="0" type="line"/>
      <point x="625" y="3" type="line"/>
      <point x="499" y="67" type="line"/>
      <point x="499" y="433" type="line"/>
    </contour>
  </outline>
</glyph>
<glyph name="five" format="2">
  <advance width="708"/>
  <unicode hex="0035"/>
  <note>
five
</note>
  <outline>
    <contour>
      <point x="355" y="-14" type="curve" smooth="yes"/>
      <point x="525" y="-14"/>
      <point x="646" y="76"/>
      <point x="646" y="219" type="curve" smooth="yes"/>
      <point x="646" y="377"/>
      <point x="541" y="449"/>
      <point x="385" y="449" type="curve" smooth="yes"/>
      <point x="260" y="449"/>
      <point x="197" y="404"/>
      <point x="122" y="338" type="curve"/>
      <point x="136" y="330" type="line"/>
      <point x="188" y="624" type="line"/>
      <point x="519" y="624" type="line"/>
      <point x="537" y="573" type="line"/>
      <point x="538" y="573" type="line"/>
      <point x="645" y="739" type="line"/>
      <point x="533" y="700" type="line"/>
      <point x="165" y="700" type="line"/>
      <point x="101" y="321" type="line"/>
      <point x="135" y="313" type="line"/>
      <point x="216" y="382"/>
      <point x="278" y="412"/>
      <point x="367" y="412" type="curve" smooth="yes"/>
      <point x="463" y="412"/>
      <point x="546" y="367"/>
      <point x="546" y="217" type="curve" smooth="yes"/>
      <point x="546" y="93"/>
      <point x="470" y="11"/>
      <point x="354" y="11" type="curve" smooth="yes"/>
      <point x="243" y="11"/>
      <point x="174" y="76"/>
      <point x="147" y="203" type="curve"/>
      <point x="63" y="124" type="line"/>
      <point x="118" y="49"/>
      <point x="222" y="-14"/>
    </contour>
  </outline>
</glyph>
<glyph name="six" format="2">
  <advance width="688"/>
  <unicode hex="0036"/>
  <note>
six
</note>
  <outline>
    <contour>
      <point x="159" y="360" type="curve"/>
      <point x="155" y="311" type="line"/>
      <point x="198" y="383"/>
      <point x="284" y="433"/>
      <point x="362" y="433" type="curve" smooth="yes"/>
      <point x="478" y="433"/>
      <point x="554" y="355"/>
      <point x="554" y="224" type="curve" smooth="yes"/>
      <point x="554" y="108"/>
      <point x="488" y="11"/>
      <point x="368" y="11" type="curve" smooth="yes"/>
      <point x="225" y="11"/>
      <point x="159" y="151"/>
      <point x="159" y="280" type="curve" smooth="yes"/>
      <point x="159" y="505"/>
      <point x="265" y="690"/>
      <point x="579" y="681" type="curve"/>
      <point x="579" y="710" type="line"/>
      <point x="302" y="720"/>
      <point x="61" y="611"/>
      <point x="61" y="303" type="curve" smooth="yes"/>
      <point x="61" y="130"/>
      <point x="170" y="-14"/>
      <point x="370" y="-14" type="curve" smooth="yes"/>
      <point x="542" y="-14"/>
      <point x="651" y="102"/>
      <point x="651" y="237" type="curve" smooth="yes"/>
      <point x="651" y="399"/>
      <point x="515" y="466"/>
      <point x="383" y="466" type="curve" smooth="yes"/>
      <point x="295" y="466"/>
      <point x="203" y="425"/>
    </contour>
  </outline>
</glyph>
<glyph name="seven" format="2">
  <advance width="715"/>
  <unicode hex="0037"/>
  <note>
seven
</note>
  <outline>
    <contour>
      <point x="231" y="0" type="curve"/>
      <point x="449" y="0" type="line"/>
      <point x="449" y="4" type="line"/>
      <point x="341" y="61" type="line"/>
      <point x="341" y="231"/>
      <point x="433" y="491"/>
      <point x="680" y="697" type="curve"/>
      <point x="680" y="701" type="line"/>
      <point x="154" y="701" type="line"/>
      <point x="103" y="721" type="line"/>
      <point x="100" y="721" type="line"/>
      <point x="33" y="450" type="line"/>
      <point x="35" y="450" type="line"/>
      <point x="151" y="622" type="line"/>
      <point x="560" y="622" type="line"/>
      <point x="404" y="497"/>
      <point x="226" y="240"/>
    </contour>
  </outline>
</glyph>
<glyph name="eight" format="2">
  <advance width="718"/>
  <unicode hex="0038"/>
  <note>
eight
</note>
  <outline>
    <contour>
      <point x="441" y="378" type="curve"/>
      <point x="469" y="373" type="line"/>
      <point x="554" y="386"/>
      <point x="619" y="451"/>
      <point x="619" y="537" type="curve" smooth="yes"/>
      <point x="619" y="637"/>
      <point x="504" y="715"/>
      <point x="353" y="715" type="curve" smooth="yes"/>
      <point x="205" y="715"/>
      <point x="88" y="635"/>
      <point x="88" y="528" type="curve" smooth="yes"/>
      <point x="88" y="419"/>
      <point x="186" y="374"/>
      <point x="282" y="350" type="curve" smooth="yes"/>
      <point x="443" y="309" type="line" smooth="yes"/>
      <point x="536" y="285"/>
      <point x="557" y="238"/>
      <point x="557" y="178" type="curve" smooth="yes"/>
      <point x="557" y="82"/>
      <point x="477" y="13"/>
      <point x="359" y="13" type="curve" smooth="yes"/>
      <point x="234" y="13"/>
      <point x="164" y="106"/>
      <point x="164" y="208" type="curve" smooth="yes"/>
      <point x="164" y="272"/>
      <point x="194" y="321"/>
      <point x="274" y="364" type="curve"/>
      <point x="245" y="373" type="line"/>
      <point x="124" y="342"/>
      <point x="69" y="260"/>
      <point x="69" y="185" type="curve" smooth="yes"/>
      <point x="69" y="38"/>
      <point x="222" y="-15"/>
      <point x="359" y="-15" type="curve" smooth="yes"/>
      <point x="493" y="-15"/>
      <point x="653" y="55"/>
      <point x="653" y="200" type="curve" smooth="yes"/>
      <point x="653" y="287"/>
      <point x="601" y="352"/>
      <point x="502" y="378" type="curve" smooth="yes"/>
      <point x="317" y="426" type="line" smooth="yes"/>
      <point x="225" y="450"/>
      <point x="172" y="488"/>
      <point x="172" y="557" type="curve" smooth="yes"/>
      <point x="172" y="632"/>
      <point x="238" y="689"/>
      <point x="353" y="689" type="curve" smooth="yes"/>
      <point x="466" y="689"/>
      <point x="533" y="631"/>
      <point x="533" y="537" type="curve" smooth="yes"/>
      <point x="533" y="456"/>
      <point x="502" y="403"/>
    </contour>
  </outline>
</glyph>
<glyph name="greater" format="2">
  <advance width="480"/>
  <unicode hex="003E"/>
  <note>
greater
</note>
  <outline>
    <contour>
      <point x="50" y="187" type="line"/>
      <point x="65" y="154" type="line"/>
      <point x="435" y="310" type="line"/>
      <point x="435" y="336" type="line"/>
      <point x="65" y="492" type="line"/>
      <point x="50" y="459" type="line"/>
      <point x="381" y="323" type="line"/>
    </contour>
  </outline>
</glyph>
<glyph name="question" format="2">
  <advance width="517"/>
  <unicode hex="003F"/>
  <note>
question
</note>
  <outline>
    <contour>
      <point x="212" y="323" type="line"/>
      <point x="305" y="328"/>
      <point x="409" y="369"/>
      <point x="409" y="518" type="curve" smooth="yes"/>
      <point x="409" y="633"/>
      <point x="346" y="690"/>
      <point x="249" y="690" type="curve" smooth="yes"/>
      <point x="144" y="690"/>
      <point x="82" y="630"/>
      <point x="78" y="483" type="curve"/>
      <point x="-7" y="528" type="line"/>
      <point x="19" y="647"/>
      <point x="118" y="715"/>
      <point x="251" y="715" type="curve" smooth="yes"/>
      <point x="395" y="715"/>
      <point x="487" y="637"/>
      <point x="487" y="518" type="curve" smooth="yes"/>
      <point x="487" y="370"/>
      <point x="354" y="297"/>
      <point x="249" y="295" type="curve"/>
      <point x="243" y="175" type="line"/>
      <point x="217" y="175" type="line"/>
    </contour>
    <component base="period" xOffset="132"/>
  </outline>
</glyph>
<glyph name="at" format="2">
  <advance width="863"/>
  <unicode hex="0040"/>
  <note>
at
</note>
  <outline>
    <contour>
      <point x="716" y="-46" type="curve"/>
      <point x="693" y="-18" type="line"/>
      <point x="634" y="-67"/>
      <point x="553" y="-92"/>
      <point x="461" y="-92" type="curve" smooth="yes"/>
      <point x="234" y="-92"/>
      <point x="96" y="42"/>
      <point x="96" y="232" type="curve" smooth="yes"/>
      <point x="96" y="427"/>
      <point x="237" y="564"/>
      <point x="444" y="564" type="curve" smooth="yes"/>
      <point x="644" y="564"/>
      <point x="769" y="437"/>
      <point x="769" y="286" type="curve" smooth="yes"/>
      <point x="769" y="130"/>
      <point x="675" y="48"/>
      <point x="608" y="48" type="curve" smooth="yes"/>
      <point x="570" y="48"/>
      <point x="562" y="64"/>
      <point x="562" y="84" type="curve" smooth="yes"/>
      <point x="562" y="104"/>
      <point x="571" y="146"/>
      <point x="582" y="190" type="curve" smooth="yes"/>
      <point x="644" y="444" type="line"/>
      <point x="639" y="446" type="line"/>
      <point x="618" y="420"/>
      <point x="585" y="394"/>
      <point x="562" y="386" type="curve"/>
      <point x="520" y="430"/>
      <point x="486" y="455"/>
      <point x="434" y="455" type="curve" smooth="yes"/>
      <point x="295" y="455"/>
      <point x="219" y="276"/>
      <point x="219" y="150" type="curve" smooth="yes"/>
      <point x="219" y="40"/>
      <point x="289" y="15"/>
      <point x="327" y="15" type="curve" smooth="yes"/>
      <point x="394" y="15"/>
      <point x="456" y="70"/>
      <point x="505" y="119" type="curve"/>
      <point x="500" y="150" type="line"/>
      <point x="424" y="76"/>
      <point x="387" y="60"/>
      <point x="360" y="60" type="curve" smooth="yes"/>
      <point x="328" y="60"/>
      <point x="302" y="82"/>
      <point x="302" y="150" type="curve" smooth="yes"/>
      <point x="302" y="227"/>
      <point x="345" y="426"/>
      <point x="450" y="426" type="curve" smooth="yes"/>
      <point x="484" y="426"/>
      <point x="509" y="401"/>
      <point x="538" y="370" type="curve"/>
      <point x="506" y="221" type="line" smooth="yes"/>
      <point x="496" y="174"/>
      <point x="483" y="122"/>
      <point x="483" y="91" type="curve" smooth="yes"/>
      <point x="483" y="44"/>
      <point x="524" y="8"/>
      <point x="596" y="8" type="curve" smooth="yes"/>
      <point x="690" y="8"/>
      <point x="813" y="110"/>
      <point x="813" y="281" type="curve" smooth="yes"/>
      <point x="813" y="469"/>
      <point x="659" y="602"/>
      <point x="445" y="602" type="curve" smooth="yes"/>
      <point x="208" y="602"/>
      <point x="51" y="441"/>
      <point x="51" y="232" type="curve" smooth="yes"/>
      <point x="51" y="19"/>
      <point x="214" y="-131"/>
      <point x="453" y="-131" type="curve" smooth="yes"/>
      <point x="557" y="-131"/>
      <point x="650" y="-101"/>
    </contour>
  </outline>
</glyph>
<glyph name="A" format="2">
  <advance width="822"/>
  <unicode hex="0041"/>
  <note>
A
</note>
  <anchor x="413" y="0" name="bottom"/>
  <anchor x="799" y="10" name="ogonek"/>
  <anchor x="388" y="700" name="top"/>
  <outline>
    <contour>
      <point x="137" y="67" type="line"/>
      <point x="391" y="615" type="line"/>
      <point x="360" y="644" type="line"/>
      <point x="95" y="74" type="line"/>
      <point x="-50" y="1" type="line"/>
      <point x="-50" y="0" type="line"/>
      <point x="252" y="0" type="line"/>
      <point x="252" y="2" type="line"/>
    </contour>
    <contour>
      <point x="572" y="238" type="line"/>
      <point x="557" y="269" type="line"/>
      <point x="192" y="269" type="line"/>
      <point x="178" y="238" type="line"/>
    </contour>
    <contour>
      <point x="417" y="700" type="line"/>
      <point x="325" y="700" type="line"/>
      <point x="630" y="67" type="line"/>
      <point x="526" y="2" type="line"/>
      <point x="526" y="0" type="line"/>
      <point x="862" y="0" type="line"/>
      <point x="862" y="2" type="line"/>
      <point x="723" y="67" type="line"/>
    </contour>
  </outline>
</glyph>
<glyph name="B" format="2">
  <advance width="802"/>
  <unicode hex="0042"/>
  <note>
B
</note>
  <outline>
    <contour>
      <point x="423" y="0" type="curve" smooth="yes"/>
      <point x="40" y="0" type="line"/>
      <point x="40" y="2" type="line"/>
      <point x="163" y="62" type="line"/>
      <point x="165" y="638" type="line"/>
      <point x="40" y="698" type="line"/>
      <point x="40" y="700" type="line"/>
      <point x="423" y="700" type="line" smooth="yes"/>
      <point x="630" y="700"/>
      <point x="715" y="645"/>
      <point x="715" y="525" type="curve" smooth="yes"/>
      <point x="715" y="436"/>
      <point x="640" y="381"/>
      <point x="526" y="371" type="curve"/>
      <point x="526" y="369" type="line"/>
      <point x="644" y="359"/>
      <point x="744" y="293"/>
      <point x="744" y="186" type="curve" smooth="yes"/>
      <point x="744" y="57"/>
      <point x="632" y="0"/>
    </contour>
    <contour>
      <point x="248" y="32" type="line"/>
      <point x="423" y="32" type="line" smooth="yes"/>
      <point x="549" y="32"/>
      <point x="640" y="66"/>
      <point x="640" y="186" type="curve" smooth="yes"/>
      <point x="640" y="314"/>
      <point x="519" y="354"/>
      <point x="433" y="354" type="curve" smooth="yes"/>
      <point x="248" y="354" type="line"/>
    </contour>
    <contour>
      <point x="248" y="386" type="line"/>
      <point x="433" y="386" type="line" smooth="yes"/>
      <point x="516" y="386"/>
      <point x="625" y="429"/>
      <point x="625" y="534" type="curve" smooth="yes"/>
      <point x="625" y="635"/>
      <point x="565" y="671"/>
      <point x="423" y="671" type="curve" smooth="yes"/>
      <point x="248" y="671" type="line"/>
    </contour>
  </outline>
</glyph>
<glyph name="C" format="2">
  <advance width="819"/>
  <unicode hex="0043"/>
  <note>
C
</note>
  <anchor x="440" y="0" name="bottom"/>
  <anchor x="430" y="700" name="top"/>
  <outline>
    <contour>
      <point x="449" y="25" type="curve" smooth="yes"/>
      <point x="276" y="25"/>
      <point x="154" y="140"/>
      <point x="154" y="350" type="curve" smooth="yes"/>
      <point x="154" y="560"/>
      <point x="270" y="680"/>
      <point x="430" y="680" type="curve" smooth="yes"/>
      <point x="563" y="680"/>
      <point x="668" y="620"/>
      <point x="761" y="402" type="curve"/>
      <point x="764" y="403" type="line"/>
      <point x="706" y="697" type="line"/>
      <point x="704" y="697" type="line"/>
      <point x="659" y="634" type="line"/>
      <point x="598" y="686"/>
      <point x="528" y="715"/>
      <point x="427" y="715" type="curve" smooth="yes"/>
      <point x="222" y="715"/>
      <point x="54" y="575"/>
      <point x="54" y="354" type="curve" smooth="yes"/>
      <point x="54" y="125"/>
      <point x="232" y="-15"/>
      <point x="439" y="-15" type="curve" smooth="yes"/>
      <point x="594" y="-15"/>
      <point x="714" y="70"/>
      <point x="770" y="207" type="curve"/>
      <point x="736" y="221" type="line"/>
      <point x="682" y="101"/>
      <point x="592" y="25"/>
    </contour>
  </outline>
</glyph>
<glyph name="D" format="2">
  <advance width="841"/>
  <unicode hex="0044"/>
  <note>
D
</note>
  <anchor x="420" y="0" name="bottom"/>
  <anchor x="420" y="350" name="center"/>
  <anchor x="420" y="700" name="top"/>
  <outline>
    <contour>
      <point x="393" y="0" type="curve" smooth="yes"/>
      <point x="40" y="0" type="line"/>
      <point x="40" y="2" type="line"/>
      <point x="168" y="74" type="line"/>
      <point x="169" y="625" type="line"/>
      <point x="40" y="698" type="line"/>
      <point x="40" y="700" type="line"/>
      <point x="393" y="700" type="line" smooth="yes"/>
      <point x="608" y="700"/>
      <point x="787" y="575"/>
      <point x="787" y="364" type="curve" smooth="yes"/>
      <point x="787" y="134"/>
      <point x="604" y="0"/>
    </contour>
    <contour>
      <point x="252" y="29" type="line"/>
      <point x="413" y="29" type="line" smooth="yes"/>
      <point x="548" y="29"/>
      <point x="687" y="143"/>
      <point x="687" y="364" type="curve" smooth="yes"/>
      <point x="687" y="565"/>
      <point x="549" y="672"/>
      <point x="413" y="672" type="curve" smooth="yes"/>
      <point x="252" y="672" type="line"/>
    </contour>
  </outline>
</glyph>
<glyph name="E" format="2">
  <advance width="784"/>
  <unicode hex="0045"/>
  <note>
E
</note>
  <anchor x="394" y="0" name="bottom"/>
  <anchor x="620" y="0" name="ogonek"/>
  <anchor x="394" y="700" name="top"/>
  <anchor x="23" y="700" name="topleft"/>
  <outline>
    <contour>
      <point x="148" y="638" type="line"/>
      <point x="148" y="62" type="line"/>
      <point x="40" y="3" type="line"/>
      <point x="40" y="0" type="line"/>
      <point x="620" y="0" type="line"/>
      <point x="659" y="-31" type="line"/>
      <point x="661" y="-31" type="line"/>
      <point x="774" y="256" type="line"/>
      <point x="772" y="256" type="line"/>
      <point x="572" y="31" type="line"/>
      <point x="231" y="31" type="line"/>
      <point x="231" y="341" type="line"/>
      <point x="489" y="341" type="line"/>
      <point x="569" y="222" type="line"/>
      <point x="571" y="222" type="line"/>
      <point x="571" y="492" type="line"/>
      <point x="569" y="492" type="line"/>
      <point x="489" y="373" type="line"/>
      <point x="231" y="373" type="line"/>
      <point x="231" y="670" type="line"/>
      <point x="570" y="670" type="line"/>
      <point x="750" y="491" type="line"/>
      <point x="752" y="493" type="line"/>
      <point x="649" y="720" type="line"/>
      <point x="647" y="720" type="line"/>
      <point x="603" y="700" type="line"/>
      <point x="45" y="700" type="line"/>
      <point x="45" y="698" type="line"/>
    </contour>
  </outline>
</glyph>
<glyph name="F" format="2">
  <advance width="762"/>
  <unicode hex="0046"/>
  <note>
F
</note>
  <outline>
    <contour>
      <point x="148" y="638" type="line"/>
      <point x="148" y="73" type="line"/>
      <point x="40" y="3" type="line"/>
      <point x="40" y="0" type="line"/>
      <point x="381" y="0" type="line"/>
      <point x="381" y="3" type="line"/>
      <point x="231" y="73" type="line"/>
      <point x="231" y="331" type="line"/>
      <point x="489" y="331" type="line"/>
      <point x="569" y="209" type="line"/>
      <point x="571" y="209" type="line"/>
      <point x="571" y="480" type="line"/>
      <point x="569" y="480" type="line"/>
      <point x="489" y="363" type="line"/>
      <point x="231" y="363" type="line"/>
      <point x="231" y="669" type="line"/>
      <point x="580" y="669" type="line"/>
      <point x="740" y="491" type="line"/>
      <point x="742" y="493" type="line"/>
      <point x="639" y="720" type="line"/>
      <point x="637" y="720" type="line"/>
      <point x="593" y="700" type="line"/>
      <point x="45" y="700" type="line"/>
      <point x="45" y="698" type="line"/>
    </contour>
  </outline>
</glyph>
<glyph name="G" format="2">
  <advance width="873"/>
  <unicode hex="0047"/>
  <note>
G
</note>
  <anchor x="431" y="0" name="bottom"/>
  <anchor x="431" y="650" name="top"/>
  <outline>
    <contour>
      <point x="700" y="109" type="curve"/>
      <point x="749" y="3" type="line"/>
      <point x="751" y="3" type="line"/>
      <point x="751" y="290" type="line"/>
      <point x="829" y="344" type="line"/>
      <point x="460" y="344" type="line"/>
      <point x="460" y="342" type="line"/>
      <point x="661" y="290" type="line"/>
      <point x="661" y="123" type="line"/>
      <point x="606" y="64"/>
      <point x="540" y="24"/>
      <point x="448" y="24" type="curve" smooth="yes"/>
      <point x="275" y="24"/>
      <point x="154" y="139"/>
      <point x="154" y="354" type="curve" smooth="yes"/>
      <point x="154" y="557"/>
      <point x="274" y="681"/>
      <point x="434" y="681" type="curve" smooth="yes"/>
      <point x="564" y="681"/>
      <point x="668" y="620"/>
      <point x="761" y="452" type="curve"/>
      <point x="764" y="453" type="line"/>
      <point x="710" y="697" type="line"/>
      <point x="708" y="697" type="line"/>
      <point x="659" y="634" type="line"/>
      <point x="598" y="686"/>
      <point x="528" y="715"/>
      <point x="427" y="715" type="curve" smooth="yes"/>
      <point x="232" y="715"/>
      <point x="54" y="572"/>
      <point x="54" y="352" type="curve" smooth="yes"/>
      <point x="54" y="124"/>
      <point x="232" y="-15"/>
      <point x="434" y="-15" type="curve" smooth="yes"/>
      <point x="533" y="-15"/>
      <point x="614" y="24"/>
    </contour>
  </outline>
</glyph>
<glyph name="H" format="2">
  <advance width="939"/>
  <unicode hex="0048"/>
  <note>
H
</note>
  <outline>
    <contour>
      <point x="708" y="628" type="line"/>
      <point x="708" y="72" type="line"/>
      <point x="598" y="4" type="line"/>
      <point x="598" y="0" type="line"/>
      <point x="899" y="0" type="line"/>
      <point x="899" y="4" type="line"/>
      <point x="791" y="72" type="line"/>
      <point x="791" y="628" type="line"/>
      <point x="899" y="699" type="line"/>
      <point x="899" y="700" type="line"/>
      <point x="598" y="700" type="line"/>
      <point x="598" y="699" type="line"/>
    </contour>
    <contour>
      <point x="233" y="72" type="line"/>
      <point x="233" y="628" type="line"/>
      <point x="341" y="696" type="line"/>
      <point x="341" y="700" type="line"/>
      <point x="40" y="700" type="line"/>
      <point x="40" y="696" type="line"/>
      <point x="150" y="628" type="line"/>
      <point x="150" y="72" type="line"/>
      <point x="40" y="4" type="line"/>
      <point x="40" y="0" type="line"/>
      <point x="341" y="0" type="line"/>
      <point x="341" y="4" type="line"/>
    </contour>
    <contour>
      <point x="715" y="349" type="line"/>
      <point x="715" y="381" type="line"/>
      <point x="226" y="381" type="line"/>
      <point x="226" y="349" type="line"/>
    </contour>
  </outline>
</glyph>
<glyph name="I" format="2">
  <advance width="432"/>
  <unicode hex="0049"/>
  <note>
I
</note>
  <anchor x="216" y="0" name="bottom"/>
  <anchor x="391" y="0" name="ogonek"/>
  <anchor x="216" y="700" name="top"/>
  <anchor x="18" y="700" name="topleft"/>
  <outline>
    <contour>
      <point x="40" y="699" type="line"/>
      <point x="176" y="628" type="line"/>
      <point x="176" y="72" type="line"/>
      <point x="40" y="2" type="line"/>
      <point x="40" y="0" type="line"/>
      <point x="392" y="0" type="line"/>
      <point x="392" y="2" type="line"/>
      <point x="256" y="72" type="line"/>
      <point x="256" y="628" type="line"/>
      <point x="392" y="698" type="line"/>
      <point x="392" y="700" type="line"/>
      <point x="40" y="700" type="line"/>
    </contour>
  </outline>
</glyph>
<glyph name="J" format="2">
  <advance width="658"/>
  <unicode hex="004A"/>
  <note>
J
</note>
  <outline>
    <contour>
      <point x="36" y="124" type="curve"/>
      <point x="113" y="218" type="line"/>
      <point x="115" y="218" type="line"/>
      <point x="140" y="85"/>
      <point x="186" y="15"/>
      <point x="286" y="15" type="curve" smooth="yes"/>
      <point x="368" y="15"/>
      <point x="423" y="62"/>
      <point x="423" y="210" type="curve" smooth="yes"/>
      <point x="423" y="630" type="line"/>
      <point x="262" y="698" type="line"/>
      <point x="262" y="700" type="line"/>
      <point x="618" y="700" type="line"/>
      <point x="618" y="698" type="line"/>
      <point x="504" y="630" type="line"/>
      <point x="504" y="216" type="line" smooth="yes"/>
      <point x="504" y="60"/>
      <point x="402" y="-14"/>
      <point x="277" y="-14" type="curve" smooth="yes"/>
      <point x="157" y="-14"/>
      <point x="85" y="51"/>
    </contour>
  </outline>
</glyph>
<glyph name="K" format="2">
  <advance width="810"/>
  <unicode hex="004B"/>
  <note>
K
</note>
  <anchor x="424" y="0" name="bottom"/>
  <anchor x="404" y="700" name="top"/>
  <outline>
    <contour>
      <point x="232" y="69" type="line"/>
      <point x="232" y="632" type="line"/>
      <point x="344" y="698" type="line"/>
      <point x="344" y="700" type="line"/>
      <point x="40" y="700" type="line"/>
      <point x="40" y="699" type="line"/>
      <point x="152" y="632" type="line"/>
      <point x="152" y="69" type="line"/>
      <point x="40" y="2" type="line"/>
      <point x="40" y="0" type="line"/>
      <point x="343" y="0" type="line"/>
      <point x="343" y="2" type="line"/>
    </contour>
    <contour>
      <point x="280" y="415" type="line"/>
      <point x="579" y="60" type="line"/>
      <point x="529" y="2" type="line"/>
      <point x="529" y="0" type="line"/>
      <point x="803" y="0" type="line"/>
      <point x="803" y="2" type="line"/>
      <point x="664" y="72" type="line"/>
      <point x="374" y="415" type="line"/>
    </contour>
    <contour>
      <point x="225" y="313" type="line"/>
      <point x="225" y="267" type="line"/>
      <point x="616" y="625" type="line"/>
      <point x="791" y="698" type="line"/>
      <point x="791" y="700" type="line"/>
      <point x="490" y="700" type="line"/>
      <point x="490" y="698" type="line"/>
      <point x="567" y="629" type="line"/>
    </contour>
  </outline>
</glyph>
<glyph name="L" format="2">
  <advance width="758"/>
  <unicode hex="004C"/>
  <note>
L
</note>
  <anchor x="391" y="0" name="bottom"/>
  <anchor x="391" y="325" name="center"/>
  <anchor x="188" y="700" name="top"/>
  <anchor x="420" y="650" name="topright"/>
  <outline>
    <contour>
      <point x="40" y="699" type="line"/>
      <point x="137" y="630" type="line"/>
      <point x="137" y="75" type="line"/>
      <point x="63" y="2" type="line"/>
      <point x="63" y="0" type="line"/>
      <point x="580" y="0" type="line"/>
      <point x="618" y="-34" type="line"/>
      <point x="620" y="-34" type="line"/>
      <point x="738" y="250" type="line"/>
      <point x="736" y="252" type="line"/>
      <point x="548" y="35" type="line"/>
      <point x="220" y="35" type="line"/>
      <point x="220" y="630" type="line"/>
      <point x="375" y="698" type="line"/>
      <point x="375" y="700" type="line"/>
      <point x="40" y="700" type="line"/>
    </contour>
  </outline>
</glyph>
<glyph name="M" format="2">
  <advance width="1126"/>
  <unicode hex="004D"/>
  <note>
M
</note>
  <outline>
    <contour>
      <point x="559" y="103" type="line"/>
      <point x="582" y="68" type="line"/>
      <point x="881" y="643" type="line"/>
      <point x="881" y="72" type="line"/>
      <point x="782" y="4" type="line"/>
      <point x="782" y="0" type="line"/>
      <point x="1060" y="0" type="line"/>
      <point x="1060" y="4" type="line"/>
      <point x="961" y="72" type="line"/>
      <point x="961" y="652" type="line"/>
      <point x="1086" y="696" type="line"/>
      <point x="1086" y="700" type="line"/>
      <point x="873" y="700" type="line"/>
    </contour>
    <contour>
      <point x="645" y="0" type="line"/>
      <point x="272" y="700" type="line"/>
      <point x="40" y="700" type="line"/>
      <point x="40" y="695" type="line"/>
      <point x="164" y="652" type="line"/>
      <point x="164" y="77" type="line"/>
      <point x="39" y="0" type="line"/>
      <point x="39" y="1" type="line"/>
      <point x="323" y="0" type="line"/>
      <point x="323" y="4" type="line"/>
      <point x="198" y="77" type="line"/>
      <point x="198" y="643" type="line"/>
      <point x="540" y="0" type="line"/>
    </contour>
  </outline>
</glyph>
<glyph name="N" format="2">
  <advance width="915"/>
  <unicode hex="004E"/>
  <note>
N
</note>
  <anchor x="458" y="0" name="bottom"/>
  <anchor x="458" y="700" name="top"/>
  <outline>
    <contour>
      <point x="725" y="88" type="line"/>
      <point x="760" y="58" type="line"/>
      <point x="760" y="625" type="line"/>
      <point x="885" y="698" type="line"/>
      <point x="885" y="700" type="line"/>
      <point x="600" y="700" type="line"/>
      <point x="600" y="698" type="line"/>
      <point x="725" y="625" type="line"/>
    </contour>
    <contour>
      <point x="811" y="0" type="line"/>
      <point x="270" y="700" type="line"/>
      <point x="41" y="700" type="line"/>
      <point x="41" y="698" type="line"/>
      <point x="165" y="648" type="line"/>
      <point x="165" y="75" type="line"/>
      <point x="40" y="2" type="line"/>
      <point x="40" y="0" type="line"/>
      <point x="326" y="0" type="line"/>
      <point x="326" y="2" type="line"/>
      <point x="201" y="75" type="line"/>
      <point x="201" y="638" type="line"/>
      <point x="700" y="0" type="line"/>
    </contour>
  </outline>
</glyph>
<glyph name="O" format="2">
  <advance width="896"/>
  <unicode hex="004F"/>
  <note>
O
</note>
  <anchor x="450" y="0" name="bottom"/>
  <anchor x="450" y="325" name="center"/>
  <anchor x="770" y="10" name="ogonek"/>
  <anchor x="450" y="650" name="top"/>
  <anchor x="69" y="650" name="topleft"/>
  <anchor x="830" y="650" name="topright"/>
  <outline>
    <contour>
      <point x="448" y="-15" type="curve" smooth="yes"/>
      <point x="669" y="-15"/>
      <point x="842" y="124"/>
      <point x="842" y="348" type="curve" smooth="yes"/>
      <point x="842" y="569"/>
      <point x="668" y="715"/>
      <point x="448" y="715" type="curve" smooth="yes"/>
      <point x="227" y="715"/>
      <point x="54" y="569"/>
      <point x="54" y="348" type="curve" smooth="yes"/>
      <point x="54" y="124"/>
      <point x="227" y="-15"/>
    </contour>
    <contour>
      <point x="156" y="348" type="curve" smooth="yes"/>
      <point x="156" y="553"/>
      <point x="272" y="685"/>
      <point x="448" y="685" type="curve" smooth="yes"/>
      <point x="625" y="685"/>
      <point x="740" y="553"/>
      <point x="740" y="348" type="curve" smooth="yes"/>
      <point x="740" y="139"/>
      <point x="625" y="16"/>
      <point x="448" y="16" type="curve" smooth="yes"/>
      <point x="272" y="16"/>
      <point x="156" y="139"/>
    </contour>
  </outline>
</glyph>
<glyph name="P" format="2">
  <advance width="763"/>
  <unicode hex="0050"/>
  <note>
P
</note>
  <outline>
    <contour>
      <point x="40" y="1" type="line"/>
      <point x="164" y="68" type="line"/>
      <point x="166" y="638" type="line"/>
      <point x="40" y="698" type="line"/>
      <point x="40" y="700" type="line"/>
      <point x="422" y="700" type="line" smooth="yes"/>
      <point x="609" y="700"/>
      <point x="733" y="639"/>
      <point x="733" y="497" type="curve" smooth="yes"/>
      <point x="733" y="370"/>
      <point x="609" y="301"/>
      <point x="422" y="301" type="curve" smooth="yes"/>
      <point x="248" y="301" type="line"/>
      <point x="248" y="68" type="line"/>
      <point x="414" y="2" type="line"/>
      <point x="414" y="0" type="line"/>
      <point x="40" y="0" type="line"/>
    </contour>
    <contour>
      <point x="248" y="333" type="line"/>
      <point x="422" y="333" type="line" smooth="yes"/>
      <point x="546" y="333"/>
      <point x="633" y="388"/>
      <point x="633" y="502" type="curve" smooth="yes"/>
      <point x="633" y="614"/>
      <point x="546" y="668"/>
      <point x="422" y="668" type="curve" smooth="yes"/>
      <point x="248" y="668" type="line"/>
    </contour>
  </outline>
</glyph>
<glyph name="Q" format="2">
  <advance width="896"/>
  <unicode hex="0051"/>
  <note>
Q
</note>
  <outline>
    <contour>
      <point x="282" y="-172" type="line"/>
      <point x="500" y="102" type="line"/>
      <point x="456" y="102" type="line"/>
      <point x="185" y="-221" type="line"/>
      <point x="190" y="-224" type="line"/>
      <point x="315" y="-163"/>
      <point x="387" y="-152"/>
      <point x="437" y="-152" type="curve" smooth="yes"/>
      <point x="555" y="-152"/>
      <point x="624" y="-213"/>
      <point x="648" y="-234" type="curve"/>
      <point x="650" y="-234" type="line"/>
      <point x="715" y="-137" type="line"/>
      <point x="650" y="-112"/>
      <point x="598" y="-99"/>
      <point x="509" y="-99" type="curve" smooth="yes"/>
      <point x="405" y="-99"/>
      <point x="332" y="-125"/>
      <point x="258" y="-173" type="curve"/>
    </contour>
    <component base="O"/>
  </outline>
</glyph>
<glyph name="R" format="2">
  <advance width="863"/>
  <unicode hex="0052"/>
  <note>
R
</note>
  <anchor x="431" y="0" name="bottom"/>
  <anchor x="431" y="650" name="top"/>
  <outline>
    <contour>
      <point x="582" y="55" type="line"/>
      <point x="531" y="2" type="line"/>
      <point x="531" y="0" type="line"/>
      <point x="822" y="0" type="line"/>
      <point x="822" y="2" type="line"/>
      <point x="673" y="61" type="line"/>
      <point x="499" y="340" type="line"/>
      <point x="407" y="340" type="line"/>
    </contour>
    <contour>
      <point x="40" y="1" type="line"/>
      <point x="40" y="0" type="line"/>
      <point x="374" y="0" type="line"/>
      <point x="374" y="2" type="line"/>
      <point x="248" y="62" type="line"/>
      <point x="248" y="324" type="line"/>
      <point x="430" y="324" type="line" smooth="yes"/>
      <point x="607" y="324"/>
      <point x="737" y="386"/>
      <point x="737" y="509" type="curve" smooth="yes"/>
      <point x="737" y="646"/>
      <point x="607" y="700"/>
      <point x="430" y="700" type="curve" smooth="yes"/>
      <point x="40" y="700" type="line"/>
      <point x="40" y="698" type="line"/>
      <point x="166" y="638" type="line"/>
      <point x="164" y="62" type="line"/>
    </contour>
    <contour>
      <point x="248" y="358" type="line"/>
      <point x="248" y="668" type="line"/>
      <point x="420" y="668" type="line" smooth="yes"/>
      <point x="534" y="668"/>
      <point x="639" y="621"/>
      <point x="639" y="509" type="curve" smooth="yes"/>
      <point x="639" y="404"/>
      <point x="524" y="358"/>
      <point x="420" y="358" type="curve" smooth="yes"/>
    </contour>
  </outline>
</glyph>
<glyph name="S" format="2">
  <advance width="768"/>
  <unicode hex="0053"/>
  <note>
S
</note>
  <anchor x="438" y="-5" name="bottom"/>
  <anchor x="384" y="700" name="top"/>
  <outline>
    <contour>
      <point x="115" y="-1" type="line"/>
      <point x="176" y="52" type="line"/>
      <point x="255" y="9"/>
      <point x="351" y="-15"/>
      <point x="448" y="-15" type="curve" smooth="yes"/>
      <point x="594" y="-15"/>
      <point x="711" y="67"/>
      <point x="711" y="179" type="curve" smooth="yes"/>
      <point x="711" y="286"/>
      <point x="599" y="342"/>
      <point x="481" y="373" type="curve" smooth="yes"/>
      <point x="323" y="415" type="line" smooth="yes"/>
      <point x="232" y="439"/>
      <point x="138" y="486"/>
      <point x="138" y="572" type="curve" smooth="yes"/>
      <point x="138" y="629"/>
      <point x="198" y="683"/>
      <point x="320" y="683" type="curve" smooth="yes"/>
      <point x="439" y="683"/>
      <point x="576" y="626"/>
      <point x="703" y="465" type="curve"/>
      <point x="710" y="465" type="line"/>
      <point x="590" y="697" type="line"/>
      <point x="549" y="642" type="line"/>
      <point x="474" y="691"/>
      <point x="388" y="715"/>
      <point x="291" y="715" type="curve" smooth="yes"/>
      <point x="140" y="715"/>
      <point x="48" y="645"/>
      <point x="48" y="554" type="curve" smooth="yes"/>
      <point x="48" y="444"/>
      <point x="151" y="374"/>
      <point x="292" y="336" type="curve" smooth="yes"/>
      <point x="442" y="296" type="line" smooth="yes"/>
      <point x="573" y="261"/>
      <point x="619" y="220"/>
      <point x="619" y="158" type="curve" smooth="yes"/>
      <point x="619" y="70"/>
      <point x="531" y="18"/>
      <point x="438" y="18" type="curve" smooth="yes"/>
      <point x="264" y="18"/>
      <point x="119" y="101"/>
      <point x="26" y="273" type="curve"/>
      <point x="18" y="274" type="line"/>
    </contour>
  </outline>
</glyph>
<glyph name="T" format="2">
  <advance width="812"/>
  <unicode hex="0054"/>
  <note>
T
</note>
  <anchor x="406" y="0" name="bottom"/>
  <anchor x="406" y="350" name="center"/>
  <anchor x="406" y="700" name="top"/>
  <outline>
    <contour>
      <point x="9" y="418" type="line"/>
      <point x="156" y="670" type="line"/>
      <point x="361" y="670" type="line"/>
      <point x="361" y="70" type="line"/>
      <point x="231" y="2" type="line"/>
      <point x="231" y="0" type="line"/>
      <point x="575" y="0" type="line"/>
      <point x="575" y="2" type="line"/>
      <point x="445" y="70" type="line"/>
      <point x="445" y="670" type="line"/>
      <point x="651" y="670" type="line"/>
      <point x="796" y="418" type="line"/>
      <point x="798" y="420" type="line"/>
      <point x="733" y="720" type="line"/>
      <point x="731" y="720" type="line"/>
      <point x="673" y="700" type="line"/>
      <point x="132" y="700" type="line"/>
      <point x="75" y="720" type="line"/>
      <point x="73" y="720" type="line"/>
      <point x="10" y="418" type="line"/>
    </contour>
  </outline>
</glyph>
<glyph name="U" format="2">
  <advance width="980"/>
  <unicode hex="0055"/>
  <note>
U
</note>
  <anchor x="490" y="0" name="bottom"/>
  <anchor x="676" y="17" name="ogonek"/>
  <anchor x="490" y="700" name="top"/>
  <anchor x="950" y="700" name="topright"/>
  <outline>
    <contour>
      <point x="54" y="700" type="line"/>
      <point x="54" y="699" type="line"/>
      <point x="169" y="635" type="line"/>
      <point x="168" y="242" type="line" smooth="yes"/>
      <point x="168" y="187"/>
      <point x="145" y="156"/>
      <point x="116" y="156" type="curve"/>
      <point x="221" y="68"/>
      <point x="330" y="-15"/>
      <point x="505" y="-15" type="curve" smooth="yes"/>
      <point x="654" y="-15"/>
      <point x="758" y="41"/>
      <point x="887" y="156" type="curve"/>
      <point x="853" y="156"/>
      <point x="810" y="189"/>
      <point x="810" y="242" type="curve" smooth="yes"/>
      <point x="810" y="633" type="line"/>
      <point x="943" y="699" type="line"/>
      <point x="943" y="700" type="line"/>
      <point x="638" y="700" type="line"/>
      <point x="638" y="699" type="line"/>
      <point x="771" y="633" type="line"/>
      <point x="771" y="251" type="line" smooth="yes"/>
      <point x="771" y="97"/>
      <point x="662" y="17"/>
      <point x="511" y="17" type="curve" smooth="yes"/>
      <point x="349" y="17"/>
      <point x="248" y="97"/>
      <point x="249" y="251" type="curve" smooth="yes"/>
      <point x="251" y="635" type="line"/>
      <point x="364" y="698" type="line"/>
      <point x="364" y="700" type="line"/>
    </contour>
  </outline>
</glyph>
<glyph name="V" format="2">
  <advance width="872"/>
  <unicode hex="0056"/>
  <note>
V
</note>
  <outline>
    <contour>
      <point x="534" y="0" type="line"/>
      <point x="210" y="626" type="line"/>
      <point x="314" y="698" type="line"/>
      <point x="314" y="700" type="line"/>
      <point x="-42" y="700" type="line"/>
      <point x="-42" y="698" type="line"/>
      <point x="117" y="626" type="line"/>
      <point x="442" y="0" type="line"/>
    </contour>
    <contour>
      <point x="469" y="82" type="line"/>
      <point x="493" y="58" type="line"/>
      <point x="754" y="618" type="line"/>
      <point x="916" y="700" type="line"/>
      <point x="916" y="699" type="line"/>
      <point x="608" y="700" type="line"/>
      <point x="608" y="698" type="line"/>
      <point x="716" y="618" type="line"/>
    </contour>
  </outline>
</glyph>
<glyph name="W" format="2">
  <advance width="1322"/>
  <unicode hex="0057"/>
  <note>
W
</note>
  <outline>
    <contour>
      <point x="515" y="0" type="line"/>
      <point x="217" y="637" type="line"/>
      <point x="321" y="698" type="line"/>
      <point x="321" y="700" type="line"/>
      <point x="-38" y="700" type="line"/>
      <point x="-38" y="698" type="line"/>
      <point x="121" y="635" type="line"/>
      <point x="420" y="0" type="line"/>
    </contour>
    <contour>
      <point x="934" y="85" type="line"/>
      <point x="960" y="58" type="line"/>
      <point x="1202" y="643" type="line"/>
      <point x="1354" y="698" type="line"/>
      <point x="1354" y="700" type="line"/>
      <point x="1052" y="700" type="line"/>
      <point x="1052" y="698" type="line"/>
      <point x="1167" y="643" type="line"/>
    </contour>
    <contour>
      <point x="608" y="635" type="line"/>
      <point x="907" y="0" type="line"/>
      <point x="1002" y="0" type="line"/>
      <point x="704" y="637" type="line"/>
      <point x="808" y="698" type="line"/>
      <point x="808" y="700" type="line"/>
      <point x="449" y="700" type="line"/>
      <point x="449" y="698" type="line"/>
    </contour>
    <contour>
      <point x="675" y="520" type="line"/>
      <point x="658" y="554" type="line"/>
      <point x="447" y="85" type="line"/>
      <point x="473" y="58" type="line"/>
    </contour>
  </outline>
</glyph>
<glyph name="X" format="2">
  <advance width="883"/>
  <unicode hex="0058"/>
  <note>
X
</note>
  <outline>
    <contour>
      <point x="429" y="317" type="line"/>
      <point x="406" y="342" type="line"/>
      <point x="182" y="75" type="line"/>
      <point x="35" y="2" type="line"/>
      <point x="35" y="0" type="line"/>
      <point x="364" y="0" type="line"/>
      <point x="364" y="2" type="line"/>
      <point x="224" y="69" type="line"/>
    </contour>
    <contour>
      <point x="450" y="385" type="line"/>
      <point x="473" y="359" type="line"/>
      <point x="696" y="628" type="line"/>
      <point x="855" y="698" type="line"/>
      <point x="855" y="700" type="line"/>
      <point x="525" y="700" type="line"/>
      <point x="525" y="698" type="line"/>
      <point x="655" y="632" type="line"/>
    </contour>
    <contour>
      <point x="738" y="72" type="line"/>
      <point x="262" y="638" type="line"/>
      <point x="374" y="698" type="line"/>
      <point x="374" y="700" type="line"/>
      <point x="4" y="700" type="line"/>
      <point x="4" y="698" type="line"/>
      <point x="144" y="637" type="line"/>
      <point x="635" y="61" type="line"/>
      <point x="510" y="2" type="line"/>
      <point x="510" y="0" type="line"/>
      <point x="880" y="0" type="line"/>
      <point x="880" y="2" type="line"/>
    </contour>
  </outline>
</glyph>
<glyph name="Y" format="2">
  <advance width="746"/>
  <unicode hex="0059"/>
  <note>
Y
</note>
  <anchor x="373" y="0" name="bottom"/>
  <anchor x="373" y="700" name="top"/>
  <anchor x="20" y="700" name="topleft"/>
  <outline>
    <contour>
      <point x="-36" y="698" type="line"/>
      <point x="92" y="631" type="line"/>
      <point x="346" y="301" type="line"/>
      <point x="346" y="69" type="line"/>
      <point x="224" y="2" type="line"/>
      <point x="224" y="0" type="line"/>
      <point x="556" y="0" type="line"/>
      <point x="556" y="2" type="line"/>
      <point x="431" y="69" type="line"/>
      <point x="431" y="302" type="line"/>
      <point x="654" y="635" type="line"/>
      <point x="776" y="698" type="line"/>
      <point x="776" y="700" type="line"/>
      <point x="504" y="700" type="line"/>
      <point x="504" y="698" type="line"/>
      <point x="616" y="636" type="line"/>
      <point x="410" y="334" type="line"/>
      <point x="180" y="637" type="line"/>
      <point x="288" y="698" type="line"/>
      <point x="288" y="700" type="line"/>
      <point x="-36" y="700" type="line"/>
    </contour>
  </outline>
</glyph>
<glyph name="Z" format="2">
  <advance width="746"/>
  <unicode hex="005A"/>
  <note>
Z
</note>
  <anchor x="373" y="0" name="bottom"/>
  <anchor x="373" y="350" name="center"/>
  <anchor x="373" y="700" name="top"/>
  <outline>
    <contour>
      <point x="567" y="0" type="line"/>
      <point x="15" y="0" type="line"/>
      <point x="15" y="2" type="line"/>
      <point x="565" y="668" type="line"/>
      <point x="177" y="668" type="line"/>
      <point x="15" y="425" type="line"/>
      <point x="13" y="426" type="line"/>
      <point x="84" y="735" type="line"/>
      <point x="136" y="700" type="line"/>
      <point x="695" y="700" type="line"/>
      <point x="695" y="698" type="line"/>
      <point x="150" y="32" type="line"/>
      <point x="536" y="32" type="line"/>
      <point x="726" y="266" type="line"/>
      <point x="728" y="266" type="line"/>
      <point x="622" y="-35" type="line"/>
      <point x="620" y="-35" type="line"/>
    </contour>
  </outline>
</glyph>
<glyph name="bracketleft" format="2">
  <advance width="265"/>
  <unicode hex="005B"/>
  <note>
bracketleft
</note>
  <outline>
    <contour>
      <point x="215" y="-171" type="curve"/>
      <point x="215" y="-146" type="line"/>
      <point x="74" y="-143" type="line"/>
      <point x="102" y="-12"/>
      <point x="116" y="120"/>
      <point x="116" y="271" type="curve" smooth="yes"/>
      <point x="116" y="424"/>
      <point x="102" y="555"/>
      <point x="74" y="686" type="curve"/>
      <point x="215" y="689" type="line"/>
      <point x="215" y="714" type="line"/>
      <point x="145" y="714"/>
      <point x="90" y="715"/>
      <point x="50" y="717" type="curve"/>
      <point x="50" y="-174" type="line"/>
      <point x="90" y="-172"/>
      <point x="145" y="-171"/>
    </contour>
  </outline>
</glyph>
<glyph name="asciicircum" format="2">
  <advance width="478"/>
  <unicode hex="005E"/>
  <note>
asciicircum
</note>
  <outline>
    <contour>
      <point x="405" y="311" type="line"/>
      <point x="428" y="321" type="line"/>
      <point x="252" y="705" type="line"/>
      <point x="226" y="705" type="line"/>
      <point x="50" y="321" type="line"/>
      <point x="73" y="311" type="line"/>
      <point x="238" y="676" type="line"/>
      <point x="405" y="311" type="line"/>
    </contour>
  </outline>
</glyph>
<glyph name="underscore" format="2">
  <advance width="422"/>
  <unicode hex="005F"/>
  <note>
underscore
</note>
  <outline>
    <contour>
      <point x="0" y="-80" type="line"/>
      <point x="422" y="-80" type="line"/>
      <point x="422" y="-48" type="line"/>
      <point x="0" y="-48" type="line"/>
    </contour>
  </outline>
</glyph>
<glyph name="a" format="2">
  <advance width="729"/>
  <unicode hex="0061"/>
  <note>
a
</note>
  <anchor x="355" y="0" name="bottom"/>
  <anchor x="654" y="10" name="ogonek"/>
  <anchor x="355" y="500" name="top"/>
  <outline>
    <contour>
      <point x="517" y="246" type="line"/>
      <point x="517" y="271" type="line"/>
      <point x="325" y="271" type="line" smooth="yes"/>
      <point x="204" y="271"/>
      <point x="50" y="244"/>
      <point x="50" y="123" type="curve" smooth="yes"/>
      <point x="50" y="40"/>
      <point x="122" y="-15"/>
      <point x="251" y="-15" type="curve" smooth="yes"/>
      <point x="333" y="-15"/>
      <point x="442" y="21"/>
      <point x="515" y="103" type="curve"/>
      <point x="516" y="135" type="line"/>
      <point x="437" y="55"/>
      <point x="339" y="18"/>
      <point x="268" y="18" type="curve" smooth="yes"/>
      <point x="187" y="18"/>
      <point x="136" y="51"/>
      <point x="136" y="128" type="curve" smooth="yes"/>
      <point x="136" y="236"/>
      <point x="249" y="246"/>
      <point x="365" y="246" type="curve" smooth="yes"/>
    </contour>
    <contour>
      <point x="511" y="310" type="curve" smooth="yes"/>
      <point x="511" y="0" type="line"/>
      <point x="699" y="0" type="line"/>
      <point x="699" y="2" type="line"/>
      <point x="591" y="62" type="line"/>
      <point x="591" y="283" type="line" smooth="yes"/>
      <point x="591" y="431"/>
      <point x="494" y="514"/>
      <point x="332" y="514" type="curve" smooth="yes"/>
      <point x="217" y="514"/>
      <point x="118" y="465"/>
      <point x="50" y="381" type="curve"/>
      <point x="109" y="305" type="line"/>
      <point x="111" y="305" type="line"/>
      <point x="160" y="426"/>
      <point x="232" y="486"/>
      <point x="334" y="486" type="curve" smooth="yes"/>
      <point x="427" y="486"/>
      <point x="511" y="420"/>
    </contour>
  </outline>
</glyph>
<glyph name="b" format="2">
  <advance width="723"/>
  <unicode hex="0062"/>
  <note>
b
</note>
  <anchor x="367" y="0" name="bottom"/>
  <anchor x="367" y="250" name="center"/>
  <anchor x="367" y="500" name="top"/>
  <outline>
    <contour>
      <point x="0" y="750" type="line"/>
      <point x="0" y="748" type="line"/>
      <point x="112" y="684" type="line"/>
      <point x="112" y="0" type="line"/>
      <point x="114" y="0" type="line"/>
      <point x="186" y="58" type="line"/>
      <point x="235" y="21"/>
      <point x="290" y="-11"/>
      <point x="379" y="-11" type="curve" smooth="yes"/>
      <point x="526" y="-11"/>
      <point x="675" y="99"/>
      <point x="675" y="255" type="curve" smooth="yes"/>
      <point x="675" y="399"/>
      <point x="539" y="514"/>
      <point x="382" y="514" type="curve" smooth="yes"/>
      <point x="298" y="514"/>
      <point x="240" y="485"/>
      <point x="192" y="452" type="curve"/>
      <point x="192" y="750" type="line"/>
    </contour>
    <contour>
      <point x="192" y="93" type="curve"/>
      <point x="192" y="417" type="line"/>
      <point x="237" y="457"/>
      <point x="314" y="488"/>
      <point x="368" y="488" type="curve" smooth="yes"/>
      <point x="500" y="488"/>
      <point x="580" y="398"/>
      <point x="580" y="255" type="curve" smooth="yes"/>
      <point x="580" y="112"/>
      <point x="492" y="16"/>
      <point x="370" y="16" type="curve" smooth="yes"/>
      <point x="295" y="16"/>
      <point x="237" y="52"/>
    </contour>
  </outline>
</glyph>
<glyph name="c" format="2">
  <advance width="656"/>
  <unicode hex="0063"/>
  <note>
c
</note>
  <anchor x="329" y="0" name="bottom"/>
  <anchor x="329" y="500" name="top"/>
  <outline>
    <contour>
      <point x="559" y="289" type="curve"/>
      <point x="562" y="289" type="line"/>
      <point x="610" y="382" type="line"/>
      <point x="555" y="458"/>
      <point x="466" y="514"/>
      <point x="346" y="514" type="curve" smooth="yes"/>
      <point x="174" y="514"/>
      <point x="48" y="405"/>
      <point x="48" y="251" type="curve" smooth="yes"/>
      <point x="48" y="86"/>
      <point x="189" y="-14"/>
      <point x="352" y="-14" type="curve" smooth="yes"/>
      <point x="467" y="-14"/>
      <point x="558" y="35"/>
      <point x="613" y="115" type="curve"/>
      <point x="595" y="130" type="line"/>
      <point x="543" y="66"/>
      <point x="463" y="22"/>
      <point x="375" y="22" type="curve" smooth="yes"/>
      <point x="237" y="22"/>
      <point x="132" y="127"/>
      <point x="132" y="267" type="curve" smooth="yes"/>
      <point x="132" y="388"/>
      <point x="210" y="486"/>
      <point x="343" y="486" type="curve" smooth="yes"/>
      <point x="467" y="486"/>
      <point x="528" y="410"/>
    </contour>
  </outline>
</glyph>
<glyph name="d" format="2">
  <advance width="763"/>
  <unicode hex="0064"/>
  <note>
d
</note>
  <outline>
    <contour>
      <point x="531" y="686" type="line"/>
      <point x="531" y="444" type="line"/>
      <point x="482" y="481"/>
      <point x="433" y="513"/>
      <point x="344" y="513" type="curve" smooth="yes"/>
      <point x="197" y="513"/>
      <point x="48" y="403"/>
      <point x="48" y="247" type="curve" smooth="yes"/>
      <point x="48" y="103"/>
      <point x="184" y="-12"/>
      <point x="341" y="-12" type="curve" smooth="yes"/>
      <point x="425" y="-12"/>
      <point x="483" y="17"/>
      <point x="531" y="50" type="curve"/>
      <point x="531" y="0" type="line"/>
      <point x="723" y="0" type="line"/>
      <point x="723" y="2" type="line"/>
      <point x="611" y="66" type="line"/>
      <point x="611" y="750" type="line"/>
      <point x="419" y="750" type="line"/>
      <point x="419" y="745" type="line"/>
    </contour>
    <contour>
      <point x="531" y="409" type="curve"/>
      <point x="531" y="85" type="line"/>
      <point x="486" y="45"/>
      <point x="409" y="14"/>
      <point x="355" y="14" type="curve" smooth="yes"/>
      <point x="223" y="14"/>
      <point x="143" y="104"/>
      <point x="143" y="247" type="curve" smooth="yes"/>
      <point x="143" y="390"/>
      <point x="231" y="486"/>
      <point x="353" y="486" type="curve" smooth="yes"/>
      <point x="428" y="486"/>
      <point x="486" y="450"/>
    </contour>
  </outline>
</glyph>
<glyph name="e" format="2">
  <advance width="682"/>
  <unicode hex="0065"/>
  <note>
e
</note>
  <anchor x="346" y="0" name="bottom"/>
  <anchor x="486" y="10" name="ogonek"/>
  <anchor x="346" y="500" name="top"/>
  <outline>
    <contour>
      <point x="134" y="278" type="curve" smooth="yes"/>
      <point x="134" y="383"/>
      <point x="208" y="486"/>
      <point x="346" y="486" type="curve" smooth="yes"/>
      <point x="469" y="486"/>
      <point x="549" y="395"/>
      <point x="549" y="284" type="curve"/>
      <point x="123" y="284" type="line"/>
      <point x="124" y="255" type="line"/>
      <point x="637" y="255" type="line"/>
      <point x="637" y="412"/>
      <point x="520" y="514"/>
      <point x="346" y="514" type="curve" smooth="yes"/>
      <point x="179" y="514"/>
      <point x="48" y="409"/>
      <point x="48" y="250" type="curve" smooth="yes"/>
      <point x="48" y="101"/>
      <point x="169" y="-14"/>
      <point x="351" y="-14" type="curve" smooth="yes"/>
      <point x="470" y="-14"/>
      <point x="570" y="36"/>
      <point x="622" y="115" type="curve"/>
      <point x="602" y="130" type="line"/>
      <point x="555" y="63"/>
      <point x="477" y="27"/>
      <point x="382" y="27" type="curve" smooth="yes"/>
      <point x="225" y="27"/>
      <point x="134" y="151"/>
    </contour>
  </outline>
</glyph>
<glyph name="f" format="2">
  <advance width="545"/>
  <unicode hex="0066"/>
  <note>
f
</note>
  <outline>
    <contour>
      <point x="473" y="473" type="line"/>
      <point x="473" y="500" type="line"/>
      <point x="33" y="500" type="line"/>
      <point x="33" y="473" type="line"/>
    </contour>
    <contour>
      <point x="224" y="502" type="line" smooth="yes"/>
      <point x="224" y="676"/>
      <point x="282" y="737"/>
      <point x="371" y="737" type="curve" smooth="yes"/>
      <point x="458" y="737"/>
      <point x="515" y="667"/>
      <point x="535" y="585" type="curve"/>
      <point x="537" y="585" type="line"/>
      <point x="585" y="684" type="line"/>
      <point x="515" y="735"/>
      <point x="445" y="765"/>
      <point x="376" y="765" type="curve" smooth="yes"/>
      <point x="223" y="765"/>
      <point x="144" y="661"/>
      <point x="144" y="500" type="curve" smooth="yes"/>
      <point x="144" y="65" type="line"/>
      <point x="30" y="4" type="line"/>
      <point x="30" y="0" type="line"/>
      <point x="383" y="0" type="line"/>
      <point x="383" y="4" type="line"/>
      <point x="224" y="65" type="line"/>
    </contour>
  </outline>
</glyph>
<glyph name="g" format="2">
  <advance width="707"/>
  <unicode hex="0067"/>
  <note>
g
</note>
  <anchor x="354" y="-200" name="bottom"/>
  <anchor x="354" y="500" name="top"/>
  <outline>
    <contour>
      <point x="479" y="453" type="curve"/>
      <point x="499" y="436" type="line"/>
      <point x="524" y="463"/>
      <point x="539" y="473"/>
      <point x="561" y="473" type="curve" smooth="yes"/>
      <point x="595" y="473"/>
      <point x="627" y="448"/>
      <point x="638" y="392" type="curve"/>
      <point x="640" y="392" type="line"/>
      <point x="682" y="484" type="line"/>
      <point x="659" y="503"/>
      <point x="630" y="514"/>
      <point x="596" y="514" type="curve" smooth="yes"/>
      <point x="560" y="514"/>
      <point x="522" y="496"/>
    </contour>
    <contour>
      <point x="174" y="327" type="curve" smooth="yes"/>
      <point x="174" y="422"/>
      <point x="237" y="486"/>
      <point x="331" y="486" type="curve" smooth="yes"/>
      <point x="415" y="486"/>
      <point x="485" y="421"/>
      <point x="485" y="327" type="curve" smooth="yes"/>
      <point x="485" y="230"/>
      <point x="416" y="167"/>
      <point x="331" y="167" type="curve" smooth="yes"/>
      <point x="234" y="167"/>
      <point x="174" y="233"/>
    </contour>
    <contour>
      <point x="230" y="161" type="curve"/>
      <point x="195" y="178" type="line"/>
      <point x="139" y="163"/>
      <point x="88" y="136"/>
      <point x="88" y="76" type="curve" smooth="yes"/>
      <point x="88" y="24"/>
      <point x="126" y="-25"/>
      <point x="250" y="-25" type="curve" smooth="yes"/>
      <point x="444" y="-25" type="line" smooth="yes"/>
      <point x="525" y="-25"/>
      <point x="555" y="-57"/>
      <point x="555" y="-110" type="curve" smooth="yes"/>
      <point x="555" y="-185"/>
      <point x="449" y="-224"/>
      <point x="350" y="-224" type="curve" smooth="yes"/>
      <point x="218" y="-224"/>
      <point x="130" y="-180"/>
      <point x="130" y="-105" type="curve" smooth="yes"/>
      <point x="130" y="-61"/>
      <point x="151" y="-32"/>
      <point x="179" y="-10" type="curve"/>
      <point x="147" y="-1" type="line"/>
      <point x="82" y="-25"/>
      <point x="50" y="-62"/>
      <point x="50" y="-113" type="curve" smooth="yes"/>
      <point x="50" y="-234"/>
      <point x="236" y="-250"/>
      <point x="350" y="-250" type="curve" smooth="yes"/>
      <point x="431" y="-250"/>
      <point x="622" y="-221"/>
      <point x="622" y="-89" type="curve" smooth="yes"/>
      <point x="622" y="-16"/>
      <point x="570" y="40"/>
      <point x="442" y="40" type="curve" smooth="yes"/>
      <point x="244" y="40" type="line" smooth="yes"/>
      <point x="191" y="40"/>
      <point x="164" y="62"/>
      <point x="164" y="97" type="curve" smooth="yes"/>
      <point x="164" y="134"/>
      <point x="193" y="153"/>
    </contour>
    <contour>
      <point x="564" y="441"/>
      <point x="452" y="514"/>
      <point x="331" y="514" type="curve" smooth="yes"/>
      <point x="188" y="514"/>
      <point x="95" y="436"/>
      <point x="95" y="327" type="curve" smooth="yes"/>
      <point x="95" y="200"/>
      <point x="208" y="140"/>
      <point x="331" y="140" type="curve" smooth="yes"/>
      <point x="463" y="140"/>
      <point x="564" y="218"/>
      <point x="564" y="327" type="curve" smooth="yes"/>
    </contour>
  </outline>
</glyph>
<glyph name="h" format="2">
  <advance width="820"/>
  <unicode hex="0068"/>
  <note>
h
</note>
  <outline>
    <contour>
      <point x="29" y="748" type="line"/>
      <point x="141" y="689" type="line"/>
      <point x="141" y="65" type="line"/>
      <point x="29" y="2" type="line"/>
      <point x="29" y="0" type="line"/>
      <point x="332" y="0" type="line"/>
      <point x="332" y="2" type="line"/>
      <point x="221" y="65" type="line"/>
      <point x="221" y="299" type="line" smooth="yes"/>
      <point x="221" y="393"/>
      <point x="309" y="483"/>
      <point x="427" y="483" type="curve" smooth="yes"/>
      <point x="531" y="483"/>
      <point x="608" y="415"/>
      <point x="608" y="274" type="curve" smooth="yes"/>
      <point x="608" y="57" type="line"/>
      <point x="495" y="2" type="line"/>
      <point x="495" y="0" type="line"/>
      <point x="798" y="0" type="line"/>
      <point x="798" y="2" type="line"/>
      <point x="688" y="57" type="line"/>
      <point x="688" y="274" type="line" smooth="yes"/>
      <point x="688" y="430"/>
      <point x="582" y="514"/>
      <point x="447" y="514" type="curve" smooth="yes"/>
      <point x="334" y="514"/>
      <point x="246" y="466"/>
      <point x="205" y="371" type="curve"/>
      <point x="221" y="353" type="line"/>
      <point x="221" y="750" type="line"/>
      <point x="29" y="750" type="line"/>
    </contour>
  </outline>
</glyph>
<glyph name="k" format="2">
  <advance width="767"/>
  <unicode hex="006B"/>
  <note>
k
</note>
  <anchor x="386" y="0" name="bottom"/>
  <anchor x="386" y="750" name="top"/>
  <outline>
    <contour>
      <point x="221" y="208" type="line"/>
      <point x="679" y="496" type="line"/>
      <point x="679" y="500" type="line"/>
      <point x="437" y="500" type="line"/>
      <point x="437" y="496" type="line"/>
      <point x="545" y="443" type="line"/>
      <point x="221" y="241" type="line"/>
      <point x="221" y="750" type="line"/>
      <point x="29" y="750" type="line"/>
      <point x="29" y="749" type="line"/>
      <point x="141" y="689" type="line"/>
      <point x="141" y="64" type="line"/>
      <point x="29" y="4" type="line"/>
      <point x="29" y="0" type="line"/>
      <point x="332" y="0" type="line"/>
      <point x="332" y="4" type="line"/>
      <point x="221" y="64" type="line"/>
    </contour>
    <contour>
      <point x="609" y="50" type="line"/>
      <point x="366" y="373" type="line"/>
      <point x="273" y="370" type="line"/>
      <point x="515" y="46" type="line"/>
      <point x="451" y="4" type="line"/>
      <point x="451" y="0" type="line"/>
      <point x="727" y="0" type="line"/>
      <point x="727" y="4" type="line"/>
    </contour>
  </outline>
</glyph>
<glyph name="l" format="2">
  <advance width="374"/>
  <unicode hex="006C"/>
  <note>
l
</note>
  <anchor x="191" y="0" name="bottom"/>
  <anchor x="191" y="375" name="center"/>
  <anchor x="191" y="750" name="top"/>
  <anchor x="352" y="750" name="topright"/>
  <outline>
    <contour>
      <point x="39" y="750" type="line"/>
      <point x="39" y="748" type="line"/>
      <point x="154" y="684" type="line"/>
      <point x="154" y="65" type="line"/>
      <point x="39" y="2" type="line"/>
      <point x="39" y="0" type="line"/>
      <point x="342" y="0" type="line"/>
      <point x="342" y="2" type="line"/>
      <point x="229" y="65" type="line"/>
      <point x="229" y="750" type="line"/>
    </contour>
  </outline>
</glyph>
<glyph name="m" format="2">
  <advance width="1263"/>
  <unicode hex="006D"/>
  <note>
m
</note>
  <outline>
    <contour>
      <point x="34" y="499" type="line"/>
      <point x="146" y="434" type="line"/>
      <point x="146" y="65" type="line"/>
      <point x="34" y="2" type="line"/>
      <point x="34" y="0" type="line"/>
      <point x="337" y="0" type="line"/>
      <point x="337" y="2" type="line"/>
      <point x="226" y="65" type="line"/>
      <point x="226" y="315" type="line" smooth="yes"/>
      <point x="226" y="416"/>
      <point x="301" y="484"/>
      <point x="412" y="484" type="curve" smooth="yes"/>
      <point x="520" y="484"/>
      <point x="597" y="417"/>
      <point x="597" y="274" type="curve" smooth="yes"/>
      <point x="597" y="57" type="line"/>
      <point x="484" y="2" type="line"/>
      <point x="484" y="0" type="line"/>
      <point x="787" y="0" type="line"/>
      <point x="787" y="2" type="line"/>
      <point x="677" y="57" type="line"/>
      <point x="677" y="280" type="line" smooth="yes"/>
      <point x="677" y="396"/>
      <point x="751" y="484"/>
      <point x="867" y="484" type="curve" smooth="yes"/>
      <point x="992" y="484"/>
      <point x="1051" y="412"/>
      <point x="1051" y="269" type="curve" smooth="yes"/>
      <point x="1051" y="57" type="line"/>
      <point x="938" y="2" type="line"/>
      <point x="938" y="0" type="line"/>
      <point x="1241" y="0" type="line"/>
      <point x="1241" y="2" type="line"/>
      <point x="1131" y="57" type="line"/>
      <point x="1131" y="279" type="line" smooth="yes"/>
      <point x="1131" y="422"/>
      <point x="1048" y="515"/>
      <point x="882" y="515" type="curve" smooth="yes"/>
      <point x="758" y="515"/>
      <point x="674" y="443"/>
      <point x="650" y="340" type="curve"/>
      <point x="668" y="339" type="line"/>
      <point x="638" y="452"/>
      <point x="546" y="515"/>
      <point x="425" y="515" type="curve" smooth="yes"/>
      <point x="319" y="515"/>
      <point x="244" y="471"/>
      <point x="214" y="399" type="curve"/>
      <point x="226" y="378" type="line"/>
      <point x="226" y="500" type="line"/>
      <point x="34" y="500" type="line"/>
    </contour>
  </outline>
</glyph>
<glyph name="n" format="2">
  <advance width="825"/>
  <unicode hex="006E"/>
  <note>
n
</note>
  <anchor x="421" y="0" name="bottom"/>
  <anchor x="421" y="500" name="top"/>
  <outline>
    <contour>
      <point x="34" y="498" type="line"/>
      <point x="146" y="439" type="line"/>
      <point x="146" y="65" type="line"/>
      <point x="34" y="2" type="line"/>
      <point x="34" y="0" type="line"/>
      <point x="337" y="0" type="line"/>
      <point x="337" y="2" type="line"/>
      <point x="226" y="65" type="line"/>
      <point x="226" y="299" type="line" smooth="yes"/>
      <point x="226" y="393"/>
      <point x="311" y="483"/>
      <point x="434" y="483" type="curve" smooth="yes"/>
      <point x="540" y="483"/>
      <point x="613" y="415"/>
      <point x="613" y="274" type="curve" smooth="yes"/>
      <point x="613" y="57" type="line"/>
      <point x="500" y="2" type="line"/>
      <point x="500" y="0" type="line"/>
      <point x="803" y="0" type="line"/>
      <point x="803" y="2" type="line"/>
      <point x="693" y="57" type="line"/>
      <point x="693" y="274" type="line" smooth="yes"/>
      <point x="693" y="430"/>
      <point x="587" y="514"/>
      <point x="440" y="514" type="curve" smooth="yes"/>
      <point x="337" y="514"/>
      <point x="251" y="466"/>
      <point x="210" y="371" type="curve"/>
      <point x="226" y="353" type="line"/>
      <point x="226" y="500" type="line"/>
      <point x="34" y="500" type="line"/>
    </contour>
  </outline>
</glyph>
<glyph name="o" format="2">
  <advance width="712"/>
  <unicode hex="006F"/>
  <note>
o
</note>
  <anchor x="356" y="0" name="bottom"/>
  <anchor x="356" y="250" name="center"/>
  <anchor x="644" y="10" name="ogonek"/>
  <anchor x="356" y="500" name="top"/>
  <anchor x="696" y="500" name="topright"/>
  <outline>
    <contour>
      <point x="358" y="-15" type="curve" smooth="yes"/>
      <point x="532" y="-15"/>
      <point x="664" y="101"/>
      <point x="664" y="250" type="curve" smooth="yes"/>
      <point x="664" y="415"/>
      <point x="508" y="515"/>
      <point x="358" y="515" type="curve" smooth="yes"/>
      <point x="202" y="515"/>
      <point x="48" y="411"/>
      <point x="48" y="250" type="curve" smooth="yes"/>
      <point x="48" y="84"/>
      <point x="210" y="-15"/>
    </contour>
    <contour>
      <point x="135" y="250" type="curve" smooth="yes"/>
      <point x="135" y="390"/>
      <point x="229" y="489"/>
      <point x="358" y="489" type="curve" smooth="yes"/>
      <point x="485" y="489"/>
      <point x="577" y="390"/>
      <point x="577" y="250" type="curve" smooth="yes"/>
      <point x="577" y="108"/>
      <point x="483" y="11"/>
      <point x="358" y="11" type="curve" smooth="yes"/>
      <point x="229" y="11"/>
      <point x="135" y="110"/>
    </contour>
  </outline>
</glyph>
<glyph name="p" format="2">
  <advance width="723"/>
  <unicode hex="0070"/>
  <note>
p
</note>
  <outline>
    <contour>
      <point x="192" y="-185" type="line"/>
      <point x="192" y="48" type="line"/>
      <point x="235" y="15"/>
      <point x="305" y="-11"/>
      <point x="377" y="-11" type="curve" smooth="yes"/>
      <point x="526" y="-11"/>
      <point x="675" y="99"/>
      <point x="675" y="255" type="curve" smooth="yes"/>
      <point x="675" y="399"/>
      <point x="539" y="514"/>
      <point x="382" y="514" type="curve" smooth="yes"/>
      <point x="294" y="514"/>
      <point x="236" y="481"/>
      <point x="192" y="444" type="curve"/>
      <point x="192" y="500" type="line"/>
      <point x="0" y="500" type="line"/>
      <point x="0" y="498" type="line"/>
      <point x="112" y="434" type="line"/>
      <point x="112" y="-185" type="line"/>
      <point x="1" y="-248" type="line"/>
      <point x="1" y="-250" type="line"/>
      <point x="354" y="-250" type="line"/>
      <point x="354" y="-248" type="line"/>
    </contour>
    <contour>
      <point x="192" y="87" type="curve"/>
      <point x="192" y="409" type="line"/>
      <point x="233" y="453"/>
      <point x="306" y="488"/>
      <point x="370" y="488" type="curve" smooth="yes"/>
      <point x="500" y="488"/>
      <point x="580" y="398"/>
      <point x="580" y="255" type="curve" smooth="yes"/>
      <point x="580" y="112"/>
      <point x="491" y="15"/>
      <point x="369" y="15" type="curve" smooth="yes"/>
      <point x="294" y="15"/>
      <point x="237" y="46"/>
    </contour>
  </outline>
</glyph>
<glyph name="q" format="2">
  <advance width="735"/>
  <unicode hex="0071"/>
  <note>
q
</note>
  <outline>
    <contour>
      <point x="531" y="409" type="curve"/>
      <point x="531" y="85" type="line"/>
      <point x="486" y="45"/>
      <point x="409" y="14"/>
      <point x="355" y="14" type="curve" smooth="yes"/>
      <point x="223" y="14"/>
      <point x="143" y="104"/>
      <point x="143" y="247" type="curve" smooth="yes"/>
      <point x="143" y="390"/>
      <point x="231" y="486"/>
      <point x="353" y="486" type="curve" smooth="yes"/>
      <point x="428" y="486"/>
      <point x="486" y="450"/>
    </contour>
    <contour>
      <point x="531" y="-185" type="line"/>
      <point x="369" y="-248" type="line"/>
      <point x="369" y="-250" type="line"/>
      <point x="722" y="-250" type="line"/>
      <point x="722" y="-248" type="line"/>
      <point x="611" y="-185" type="line"/>
      <point x="612" y="515" type="line"/>
      <point x="611" y="515" type="line"/>
      <point x="531" y="444" type="line"/>
      <point x="482" y="481"/>
      <point x="433" y="513"/>
      <point x="344" y="513" type="curve" smooth="yes"/>
      <point x="197" y="513"/>
      <point x="48" y="403"/>
      <point x="48" y="247" type="curve" smooth="yes"/>
      <point x="48" y="103"/>
      <point x="184" y="-12"/>
      <point x="341" y="-12" type="curve" smooth="yes"/>
      <point x="425" y="-12"/>
      <point x="483" y="17"/>
      <point x="531" y="50" type="curve"/>
    </contour>
  </outline>
</glyph>
<glyph name="r" format="2">
  <advance width="627"/>
  <unicode hex="0072"/>
  <note>
r
</note>
  <anchor x="187" y="0" name="bottom"/>
  <anchor x="349" y="500" name="top"/>
  <outline>
    <contour>
      <point x="34" y="500" type="line"/>
      <point x="34" y="498" type="line"/>
      <point x="146" y="434" type="line"/>
      <point x="146" y="65" type="line"/>
      <point x="34" y="2" type="line"/>
      <point x="34" y="0" type="line"/>
      <point x="367" y="0" type="line"/>
      <point x="367" y="2" type="line"/>
      <point x="226" y="65" type="line"/>
      <point x="226" y="265" type="line" smooth="yes"/>
      <point x="226" y="384"/>
      <point x="289" y="483"/>
      <point x="380" y="483" type="curve" smooth="yes"/>
      <point x="464" y="483"/>
      <point x="526" y="403"/>
      <point x="526" y="304" type="curve"/>
      <point x="528" y="304" type="line"/>
      <point x="607" y="374" type="line"/>
      <point x="570" y="469"/>
      <point x="493" y="510"/>
      <point x="406" y="510" type="curve" smooth="yes"/>
      <point x="319" y="510"/>
      <point x="259" y="468"/>
      <point x="226" y="401" type="curve"/>
      <point x="226" y="500" type="line"/>
    </contour>
  </outline>
</glyph>
<glyph name="s" format="2">
  <advance width="664"/>
  <unicode hex="0073"/>
  <note>
s
</note>
  <anchor x="332" y="0" name="bottom"/>
  <anchor x="332" y="500" name="top"/>
  <outline>
    <contour>
      <point x="124" y="-4" type="line"/>
      <point x="180" y="41" type="line"/>
      <point x="243" y="4"/>
      <point x="306" y="-15"/>
      <point x="386" y="-15" type="curve" smooth="yes"/>
      <point x="506" y="-15"/>
      <point x="609" y="36"/>
      <point x="609" y="124" type="curve" smooth="yes"/>
      <point x="609" y="210"/>
      <point x="526" y="246"/>
      <point x="441" y="266" type="curve" smooth="yes"/>
      <point x="312" y="297" type="line" smooth="yes"/>
      <point x="242" y="314"/>
      <point x="147" y="335"/>
      <point x="147" y="402" type="curve" smooth="yes"/>
      <point x="147" y="451"/>
      <point x="191" y="481"/>
      <point x="290" y="481" type="curve" smooth="yes"/>
      <point x="389" y="481"/>
      <point x="493" y="436"/>
      <point x="590" y="317" type="curve"/>
      <point x="594" y="320" type="line"/>
      <point x="516" y="500" type="line"/>
      <point x="455" y="465" type="line"/>
      <point x="411" y="491"/>
      <point x="354" y="513"/>
      <point x="262" y="513" type="curve" smooth="yes"/>
      <point x="143" y="513"/>
      <point x="70" y="460"/>
      <point x="70" y="391" type="curve" smooth="yes"/>
      <point x="70" y="304"/>
      <point x="154" y="256"/>
      <point x="269" y="229" type="curve" smooth="yes"/>
      <point x="400" y="198" type="line" smooth="yes"/>
      <point x="466" y="182"/>
      <point x="535" y="170"/>
      <point x="535" y="110" type="curve" smooth="yes"/>
      <point x="535" y="50"/>
      <point x="458" y="15"/>
      <point x="377" y="15" type="curve" smooth="yes"/>
      <point x="247" y="15"/>
      <point x="122" y="96"/>
      <point x="54" y="211" type="curve"/>
      <point x="49" y="209" type="line"/>
      <point x="125" y="-4" type="line"/>
    </contour>
  </outline>
</glyph>
<glyph name="t" format="2">
  <advance width="543"/>
  <unicode hex="0074"/>
  <note>
t
</note>
  <anchor x="272" y="0" name="bottom"/>
  <anchor x="272" y="250" name="center"/>
  <anchor x="264" y="497" name="top"/>
  <anchor x="217" y="754" name="topright"/>
  <outline>
    <contour>
      <point x="503" y="112" type="curve"/>
      <point x="481" y="127" type="line"/>
      <point x="441" y="69"/>
      <point x="390" y="19"/>
      <point x="316" y="19" type="curve" smooth="yes"/>
      <point x="218" y="19"/>
      <point x="163" y="89"/>
      <point x="163" y="213" type="curve" smooth="yes"/>
      <point x="163" y="476" type="line"/>
      <point x="462" y="476" type="line"/>
      <point x="462" y="500" type="line"/>
      <point x="163" y="500" type="line"/>
      <point x="163" y="650" type="line"/>
      <point x="161" y="650" type="line"/>
      <point x="49" y="500" type="line"/>
      <point x="-30" y="500" type="line"/>
      <point x="-30" y="476" type="line"/>
      <point x="83" y="476" type="line"/>
      <point x="83" y="188" type="line" smooth="yes"/>
      <point x="83" y="54"/>
      <point x="174" y="-12"/>
      <point x="297" y="-12" type="curve" smooth="yes"/>
      <point x="434" y="-12"/>
      <point x="483" y="89"/>
    </contour>
  </outline>
</glyph>
<glyph name="u" format="2">
  <advance width="803"/>
  <unicode hex="0075"/>
  <note>
u
</note>
  <anchor x="415" y="0" name="bottom"/>
  <anchor x="730" y="0" name="ogonek"/>
  <anchor x="385" y="500" name="top"/>
  <anchor x="814" y="500" name="topright"/>
  <outline>
    <contour>
      <point x="782" y="0" type="line"/>
      <point x="782" y="2" type="line"/>
      <point x="670" y="66" type="line"/>
      <point x="670" y="500" type="line"/>
      <point x="479" y="500" type="line"/>
      <point x="479" y="497" type="line"/>
      <point x="590" y="435" type="line"/>
      <point x="590" y="227" type="line" smooth="yes"/>
      <point x="590" y="104"/>
      <point x="509" y="14"/>
      <point x="385" y="14" type="curve" smooth="yes"/>
      <point x="280" y="14"/>
      <point x="203" y="84"/>
      <point x="203" y="227" type="curve" smooth="yes"/>
      <point x="203" y="500" type="line"/>
      <point x="13" y="500" type="line"/>
      <point x="13" y="498" type="line"/>
      <point x="123" y="443" type="line"/>
      <point x="123" y="227" type="line" smooth="yes"/>
      <point x="123" y="71"/>
      <point x="229" y="-13"/>
      <point x="371" y="-13" type="curve" smooth="yes"/>
      <point x="471" y="-13"/>
      <point x="550" y="29"/>
      <point x="590" y="101" type="curve"/>
      <point x="590" y="0" type="line"/>
    </contour>
  </outline>
</glyph>
<glyph name="v" format="2">
  <advance width="701"/>
  <unicode hex="0076"/>
  <note>
v
</note>
  <outline>
    <contour>
      <point x="376" y="20" type="line"/>
      <point x="592" y="441" type="line"/>
      <point x="729" y="498" type="line"/>
      <point x="729" y="500" type="line"/>
      <point x="487" y="500" type="line"/>
      <point x="487" y="498" type="line"/>
      <point x="564" y="441" type="line"/>
      <point x="358" y="43" type="line"/>
    </contour>
    <contour>
      <point x="161" y="438" type="line"/>
      <point x="232" y="498" type="line"/>
      <point x="232" y="500" type="line"/>
      <point x="-53" y="500" type="line"/>
      <point x="-53" y="498" type="line"/>
      <point x="70" y="438" type="line"/>
      <point x="330" y="-8" type="line"/>
      <point x="423" y="-8" type="line"/>
    </contour>
  </outline>
</glyph>
<glyph name="w" format="2">
  <advance width="1021"/>
  <unicode hex="0077"/>
  <note>
w
</note>
  <outline>
    <contour>
      <point x="538" y="432" type="line"/>
      <point x="512" y="438" type="line"/>
      <point x="354" y="73" type="line"/>
      <point x="165" y="438" type="line"/>
      <point x="276" y="498" type="line"/>
      <point x="276" y="500" type="line"/>
      <point x="-49" y="499" type="line"/>
      <point x="-49" y="500" type="line"/>
      <point x="78" y="438" type="line"/>
      <point x="307" y="-8" type="line"/>
      <point x="399" y="-8" type="line"/>
      <point x="370" y="46" type="line"/>
    </contour>
    <contour>
      <point x="687" y="-8" type="line"/>
      <point x="779" y="-8" type="line"/>
      <point x="752" y="44" type="line"/>
      <point x="919" y="435" type="line"/>
      <point x="1052" y="498" type="line"/>
      <point x="1052" y="500" type="line"/>
      <point x="810" y="500" type="line"/>
      <point x="810" y="498" type="line"/>
      <point x="893" y="435" type="line"/>
      <point x="735" y="72" type="line"/>
      <point x="565" y="438" type="line"/>
      <point x="636" y="498" type="line"/>
      <point x="636" y="500" type="line"/>
      <point x="351" y="500" type="line"/>
      <point x="351" y="498" type="line"/>
      <point x="478" y="438" type="line"/>
    </contour>
  </outline>
</glyph>
<glyph name="x" format="2">
  <advance width="625"/>
  <unicode hex="0078"/>
  <note>
x
</note>
  <outline>
    <contour>
      <point x="363" y="0" type="line"/>
      <point x="656" y="0" type="line"/>
      <point x="656" y="2" type="line"/>
      <point x="549" y="55" type="line"/>
      <point x="168" y="446" type="line"/>
      <point x="239" y="498" type="line"/>
      <point x="239" y="500" type="line"/>
      <point x="-59" y="500" type="line"/>
      <point x="-59" y="498" type="line"/>
      <point x="65" y="446" type="line"/>
      <point x="452" y="55" type="line"/>
      <point x="451" y="55" type="line"/>
      <point x="363" y="2" type="line"/>
    </contour>
    <contour>
      <point x="378" y="498" type="line"/>
      <point x="475" y="446" type="line"/>
      <point x="97" y="55" type="line"/>
      <point x="-18" y="3" type="line"/>
      <point x="-18" y="1" type="line"/>
      <point x="231" y="1" type="line"/>
      <point x="231" y="3" type="line"/>
      <point x="134" y="55" type="line"/>
      <point x="510" y="446" type="line"/>
      <point x="629" y="498" type="line"/>
      <point x="629" y="500" type="line"/>
      <point x="378" y="500" type="line"/>
    </contour>
  </outline>
</glyph>
<glyph name="y" format="2">
  <advance width="701"/>
  <unicode hex="0079"/>
  <note>
y
</note>
  <anchor x="351" y="0" name="bottom"/>
  <anchor x="351" y="500" name="top"/>
  <outline>
    <contour>
      <point x="318" y="0" type="line"/>
      <point x="406" y="0" type="line"/>
      <point x="132" y="438" type="line"/>
      <point x="233" y="496" type="line"/>
      <point x="233" y="500" type="line"/>
      <point x="-83" y="500" type="line"/>
      <point x="-83" y="496" type="line"/>
      <point x="40" y="438" type="line"/>
    </contour>
    <contour>
      <point x="559" y="441" type="line"/>
      <point x="688" y="496" type="line"/>
      <point x="688" y="500" type="line"/>
      <point x="426" y="500" type="line"/>
      <point x="426" y="496" type="line"/>
      <point x="523" y="441" type="line"/>
      <point x="273" y="-47" type="line" smooth="yes"/>
      <point x="231" y="-129"/>
      <point x="199" y="-190"/>
      <point x="137" y="-190" type="curve" smooth="yes"/>
      <point x="82" y="-190"/>
      <point x="43" y="-164"/>
      <point x="14" y="-97" type="curve"/>
      <point x="10" y="-97" type="line"/>
      <point x="-42" y="-159" type="line"/>
      <point x="-9" y="-218"/>
      <point x="55" y="-250"/>
      <point x="106" y="-250" type="curve" smooth="yes"/>
      <point x="209" y="-250"/>
      <point x="240" y="-182"/>
      <point x="314" y="-38" type="curve" smooth="yes"/>
    </contour>
  </outline>
</glyph>
<glyph name="z" format="2">
  <advance width="702"/>
  <unicode hex="007A"/>
  <note>
z
</note>
  <anchor x="356" y="0" name="bottom"/>
  <anchor x="356" y="250" name="center"/>
  <anchor x="354" y="500" name="top"/>
  <outline>
    <contour>
      <point x="497" y="0" type="line"/>
      <point x="50" y="0" type="line"/>
      <point x="50" y="14" type="line"/>
      <point x="509" y="473" type="line"/>
      <point x="199" y="473" type="line"/>
      <point x="33" y="347" type="line"/>
      <point x="29" y="347" type="line"/>
      <point x="139" y="535" type="line"/>
      <point x="142" y="535" type="line"/>
      <point x="199" y="500" type="line"/>
      <point x="620" y="500" type="line"/>
      <point x="620" y="480" type="line"/>
      <point x="169" y="28" type="line"/>
      <point x="497" y="28" type="line"/>
      <point x="660" y="153" type="line"/>
      <point x="664" y="153" type="line"/>
      <point x="555" y="-35" type="line"/>
      <point x="551" y="-35" type="line"/>
    </contour>
  </outline>
</glyph>
<glyph name="braceleft" format="2">
  <advance width="335"/>
  <unicode hex="007B"/>
  <note>
braceleft
</note>
  <outline>
    <contour>
      <point x="180" y="-58" type="curve" smooth="yes"/>
      <point x="190" y="141" type="line" smooth="yes"/>
      <point x="195" y="233"/>
      <point x="143" y="278"/>
      <point x="85" y="278" type="curve"/>
      <point x="85" y="272" type="line"/>
      <point x="143" y="273"/>
      <point x="195" y="318"/>
      <point x="190" y="409" type="curve" smooth="yes"/>
      <point x="180" y="608" type="line" smooth="yes"/>
      <point x="177" y="676"/>
      <point x="219" y="689"/>
      <point x="285" y="705" type="curve"/>
      <point x="280" y="724" type="line"/>
      <point x="179" y="700"/>
      <point x="107" y="673"/>
      <point x="113" y="567" type="curve" smooth="yes"/>
      <point x="123" y="395" type="line" smooth="yes"/>
      <point x="126" y="336"/>
      <point x="109" y="289"/>
      <point x="41" y="286" type="curve"/>
      <point x="41" y="265" type="line"/>
      <point x="109" y="261"/>
      <point x="126" y="214"/>
      <point x="123" y="155" type="curve" smooth="yes"/>
      <point x="113" y="-17" type="line" smooth="yes"/>
      <point x="107" y="-123"/>
      <point x="179" y="-150"/>
      <point x="280" y="-174" type="curve"/>
      <point x="285" y="-155" type="line"/>
      <point x="221" y="-140"/>
      <point x="177" y="-123"/>
    </contour>
  </outline>
</glyph>
<glyph name="bar" format="2">
  <advance width="126"/>
  <unicode hex="007C"/>
  <note>
bar
</note>
  <outline>
    <contour>
      <point x="51" y="-150" type="line"/>
      <point x="86" y="-150" type="line"/>
      <point x="86" y="751" type="line"/>
      <point x="51" y="751" type="line"/>
    </contour>
  </outline>
</glyph>
<glyph name="asciitilde" format="2">
  <advance width="419"/>
  <unicode hex="007E"/>
  <note>
asciitilde
</note>
  <outline>
    <contour>
      <point x="285" y="281" type="curve" smooth="yes"/>
      <point x="323" y="281"/>
      <point x="347" y="313"/>
      <point x="384" y="379" type="curve"/>
      <point x="366" y="388" type="line"/>
      <point x="343" y="351"/>
      <point x="323" y="335"/>
      <point x="303" y="335" type="curve" smooth="yes"/>
      <point x="269" y="335"/>
      <point x="181" y="374"/>
      <point x="136" y="374" type="curve" smooth="yes"/>
      <point x="100" y="374"/>
      <point x="76" y="342"/>
      <point x="35" y="276" type="curve"/>
      <point x="58" y="265" type="line"/>
      <point x="81" y="302"/>
      <point x="99" y="320"/>
      <point x="120" y="320" type="curve" smooth="yes"/>
      <point x="156" y="320"/>
      <point x="242" y="281"/>
    </contour>
  </outline>
</glyph>
<glyph name="cent" format="2">
  <advance width="676"/>
  <unicode hex="00A2"/>
  <note>
cent
</note>
  <outline>
    <component base="c"/>
    <contour>
      <point x="336" y="-103" type="line"/>
      <point x="369" y="-103" type="line"/>
      <point x="369" y="602" type="line"/>
      <point x="336" y="602" type="line"/>
    </contour>
  </outline>
</glyph>
<glyph name="sterling" format="2">
  <advance width="727"/>
  <unicode hex="00A3"/>
  <note>
sterling
</note>
  <outline>
    <contour>
      <point x="580" y="346" type="line"/>
      <point x="113" y="346" type="line"/>
      <point x="113" y="314" type="line"/>
      <point x="580" y="314" type="line"/>
    </contour>
    <contour>
      <point x="353" y="367"/>
      <point x="239" y="420"/>
      <point x="239" y="556" type="curve" smooth="yes"/>
      <point x="239" y="631"/>
      <point x="307" y="689"/>
      <point x="400" y="689" type="curve" smooth="yes"/>
      <point x="557" y="689"/>
      <point x="563" y="552"/>
      <point x="571" y="468" type="curve"/>
      <point x="647" y="534" type="line"/>
      <point x="634" y="617"/>
      <point x="545" y="715"/>
      <point x="402" y="715" type="curve" smooth="yes"/>
      <point x="255" y="715"/>
      <point x="151" y="629"/>
      <point x="151" y="518" type="curve" smooth="yes"/>
      <point x="151" y="392"/>
      <point x="281" y="309"/>
      <point x="281" y="162" type="curve" smooth="yes"/>
      <point x="281" y="86"/>
      <point x="219" y="14"/>
      <point x="149" y="14" type="curve" smooth="yes"/>
      <point x="117" y="14"/>
      <point x="90" y="30"/>
      <point x="90" y="68" type="curve" smooth="yes"/>
      <point x="90" y="96"/>
      <point x="109" y="121"/>
      <point x="147" y="121" type="curve" smooth="yes"/>
      <point x="244" y="121"/>
      <point x="414" y="-14"/>
      <point x="556" y="-14" type="curve" smooth="yes"/>
      <point x="637" y="-14"/>
      <point x="677" y="45"/>
      <point x="677" y="127" type="curve" smooth="yes"/>
      <point x="677" y="166"/>
      <point x="654" y="207"/>
      <point x="632" y="235" type="curve"/>
      <point x="620" y="227" type="line"/>
      <point x="638" y="200"/>
      <point x="648" y="177"/>
      <point x="648" y="138" type="curve" smooth="yes"/>
      <point x="648" y="89"/>
      <point x="610" y="57"/>
      <point x="564" y="57" type="curve" smooth="yes"/>
      <point x="435" y="57"/>
      <point x="257" y="148"/>
      <point x="156" y="148" type="curve" smooth="yes"/>
      <point x="94" y="148"/>
      <point x="50" y="118"/>
      <point x="50" y="65" type="curve" smooth="yes"/>
      <point x="50" y="13"/>
      <point x="93" y="-16"/>
      <point x="149" y="-16" type="curve" smooth="yes"/>
      <point x="262" y="-16"/>
      <point x="353" y="111"/>
      <point x="353" y="211" type="curve" smooth="yes"/>
    </contour>
  </outline>
</glyph>
<glyph name="currency" format="2">
  <advance width="502"/>
  <unicode hex="00A4"/>
  <note>
currency
</note>
  <outline>
    <contour>
      <point x="252" y="104" type="curve" smooth="yes"/>
      <point x="355" y="104"/>
      <point x="438" y="187"/>
      <point x="438" y="290" type="curve" smooth="yes"/>
      <point x="438" y="392"/>
      <point x="355" y="475"/>
      <point x="252" y="475" type="curve" smooth="yes"/>
      <point x="149" y="475"/>
      <point x="66" y="392"/>
      <point x="66" y="290" type="curve" smooth="yes"/>
      <point x="66" y="187"/>
      <point x="149" y="104"/>
    </contour>
    <contour>
      <point x="252" y="134" type="curve" smooth="yes"/>
      <point x="165" y="134"/>
      <point x="102" y="203"/>
      <point x="102" y="290" type="curve" smooth="yes"/>
      <point x="102" y="376"/>
      <point x="165" y="445"/>
      <point x="252" y="445" type="curve" smooth="yes"/>
      <point x="338" y="445"/>
      <point x="402" y="376"/>
      <point x="402" y="290" type="curve" smooth="yes"/>
      <point x="402" y="203"/>
      <point x="338" y="134"/>
    </contour>
    <contour>
      <point x="114" y="404" type="line"/>
      <point x="138" y="427" type="line"/>
      <point x="50" y="515" type="line"/>
      <point x="27" y="491" type="line"/>
    </contour>
    <contour>
      <point x="355" y="416" type="line"/>
      <point x="379" y="393" type="line"/>
      <point x="478" y="492" type="line"/>
      <point x="454" y="515" type="line"/>
    </contour>
    <contour>
      <point x="379" y="186" type="line"/>
      <point x="354" y="164" type="line"/>
      <point x="454" y="64" type="line"/>
      <point x="478" y="87" type="line"/>
    </contour>
    <contour>
      <point x="145" y="159" type="line"/>
      <point x="122" y="183" type="line"/>
      <point x="27" y="88" type="line"/>
      <point x="50" y="64" type="line"/>
    </contour>
  </outline>
</glyph>
<glyph name="yen" format="2">
  <advance width="726"/>
  <unicode hex="00A5"/>
  <note>
yen
</note>
  <outline>
    <contour>
      <point x="-17" y="698" type="line"/>
      <point x="111" y="631" type="line"/>
      <point x="336" y="299" type="line"/>
      <point x="336" y="69" type="line"/>
      <point x="214" y="2" type="line"/>
      <point x="214" y="0" type="line"/>
      <point x="546" y="0" type="line"/>
      <point x="546" y="2" type="line"/>
      <point x="421" y="69" type="line"/>
      <point x="421" y="300" type="line"/>
      <point x="624" y="635" type="line"/>
      <point x="746" y="698" type="line"/>
      <point x="746" y="700" type="line"/>
      <point x="474" y="700" type="line"/>
      <point x="474" y="698" type="line"/>
      <point x="586" y="636" type="line"/>
      <point x="400" y="332" type="line"/>
      <point x="201" y="637" type="line"/>
      <point x="307" y="698" type="line"/>
      <point x="307" y="700" type="line"/>
      <point x="-17" y="700" type="line"/>
    </contour>
    <contour>
      <point x="150" y="332" type="line"/>
      <point x="150" y="299" type="line"/>
      <point x="596" y="299" type="line"/>
      <point x="596" y="332" type="line"/>
    </contour>
    <contour>
      <point x="150" y="242" type="line"/>
      <point x="150" y="208" type="line"/>
      <point x="596" y="208" type="line"/>
      <point x="596" y="242" type="line"/>
    </contour>
  </outline>
</glyph>
<glyph name="section" format="2">
  <advance width="650"/>
  <unicode hex="00A7"/>
  <note>
section
</note>
  <outline>
    <contour>
      <point x="363" y="356" type="curve"/>
      <point x="377" y="380" type="line"/>
      <point x="341" y="396"/>
      <point x="312" y="406"/>
      <point x="246" y="406" type="curve" smooth="yes"/>
      <point x="129" y="406"/>
      <point x="60" y="354"/>
      <point x="60" y="287" type="curve" smooth="yes"/>
      <point x="60" y="202"/>
      <point x="143" y="153"/>
      <point x="244" y="128" type="curve" smooth="yes"/>
      <point x="363" y="98" type="line" smooth="yes"/>
      <point x="428" y="82"/>
      <point x="495" y="70"/>
      <point x="495" y="11" type="curve" smooth="yes"/>
      <point x="495" y="-47"/>
      <point x="420" y="-82"/>
      <point x="340" y="-82" type="curve" smooth="yes"/>
      <point x="221" y="-82"/>
      <point x="111" y="-2"/>
      <point x="45" y="110" type="curve"/>
      <point x="40" y="108" type="line"/>
      <point x="114" y="-100" type="line"/>
      <point x="113" y="-100" type="line"/>
      <point x="168" y="-56" type="line"/>
      <point x="230" y="-93"/>
      <point x="271" y="-111"/>
      <point x="349" y="-111" type="curve" smooth="yes"/>
      <point x="467" y="-111"/>
      <point x="568" y="-61"/>
      <point x="568" y="25" type="curve" smooth="yes"/>
      <point x="568" y="109"/>
      <point x="486" y="150"/>
      <point x="403" y="169" type="curve" smooth="yes"/>
      <point x="287" y="195" type="line" smooth="yes"/>
      <point x="226" y="209"/>
      <point x="136" y="232"/>
      <point x="136" y="298" type="curve" smooth="yes"/>
      <point x="136" y="346"/>
      <point x="176" y="375"/>
      <point x="265" y="375" type="curve" smooth="yes"/>
      <point x="300" y="375"/>
      <point x="327" y="369"/>
    </contour>
    <contour>
      <point x="247" y="192" type="curve"/>
      <point x="247" y="161" type="line"/>
      <point x="285" y="147"/>
      <point x="308" y="141"/>
      <point x="355" y="141" type="curve" smooth="yes"/>
      <point x="472" y="141"/>
      <point x="573" y="191"/>
      <point x="573" y="277" type="curve" smooth="yes"/>
      <point x="573" y="361"/>
      <point x="492" y="394"/>
      <point x="409" y="416" type="curve" smooth="yes"/>
      <point x="292" y="447" type="line" smooth="yes"/>
      <point x="232" y="463"/>
      <point x="138" y="484"/>
      <point x="138" y="550" type="curve" smooth="yes"/>
      <point x="138" y="598"/>
      <point x="182" y="627"/>
      <point x="271" y="627" type="curve" smooth="yes"/>
      <point x="358" y="627"/>
      <point x="460" y="583"/>
      <point x="555" y="466" type="curve"/>
      <point x="559" y="469" type="line"/>
      <point x="482" y="646" type="line"/>
      <point x="419" y="611" type="line"/>
      <point x="379" y="638"/>
      <point x="332" y="658"/>
      <point x="241" y="658" type="curve" smooth="yes"/>
      <point x="135" y="658"/>
      <point x="63" y="606"/>
      <point x="63" y="539" type="curve" smooth="yes"/>
      <point x="63" y="453"/>
      <point x="145" y="407"/>
      <point x="250" y="380" type="curve" smooth="yes"/>
      <point x="368" y="350" type="line" smooth="yes"/>
      <point x="433" y="334"/>
      <point x="501" y="322"/>
      <point x="501" y="263" type="curve" smooth="yes"/>
      <point x="501" y="204"/>
      <point x="425" y="170"/>
      <point x="346" y="170" type="curve" smooth="yes"/>
      <point x="306" y="170"/>
      <point x="284" y="178"/>
    </contour>
  </outline>
</glyph>
<glyph name="copyright" format="2">
  <advance width="792"/>
  <unicode hex="00A9"/>
  <note>
copyright
</note>
  <outline>
    <contour>
      <point x="420" y="-15" type="curve" smooth="yes"/>
      <point x="645" y="-15"/>
      <point x="802" y="134"/>
      <point x="802" y="349" type="curve" smooth="yes"/>
      <point x="802" y="561"/>
      <point x="649" y="715"/>
      <point x="420" y="715" type="curve" smooth="yes"/>
      <point x="195" y="715"/>
      <point x="37" y="564"/>
      <point x="37" y="349" type="curve" smooth="yes"/>
      <point x="37" y="139"/>
      <point x="192" y="-15"/>
    </contour>
    <contour>
      <point x="81" y="349" type="curve" smooth="yes"/>
      <point x="81" y="541"/>
      <point x="221" y="678"/>
      <point x="420" y="678" type="curve" smooth="yes"/>
      <point x="620" y="678"/>
      <point x="758" y="542"/>
      <point x="758" y="349" type="curve" smooth="yes"/>
      <point x="758" y="158"/>
      <point x="620" y="22"/>
      <point x="420" y="22" type="curve" smooth="yes"/>
      <point x="220" y="22"/>
      <point x="81" y="160"/>
    </contour>
    <contour>
      <point x="577" y="381" type="curve"/>
      <point x="580" y="381" type="line"/>
      <point x="613" y="448" type="line"/>
      <point x="573" y="503"/>
      <point x="509" y="544"/>
      <point x="422" y="544" type="curve" smooth="yes"/>
      <point x="297" y="544"/>
      <point x="206" y="464"/>
      <point x="206" y="354" type="curve" smooth="yes"/>
      <point x="206" y="233"/>
      <point x="308" y="157"/>
      <point x="424" y="157" type="curve" smooth="yes"/>
      <point x="509" y="157"/>
      <point x="578" y="201"/>
      <point x="617" y="259" type="curve"/>
      <point x="598" y="273" type="line"/>
      <point x="559" y="227"/>
      <point x="506" y="197"/>
      <point x="442" y="197" type="curve" smooth="yes"/>
      <point x="343" y="197"/>
      <point x="279" y="263"/>
      <point x="279" y="364" type="curve" smooth="yes"/>
      <point x="279" y="453"/>
      <point x="323" y="511"/>
      <point x="420" y="511" type="curve" smooth="yes"/>
      <point x="510" y="511"/>
      <point x="553" y="458"/>
    </contour>
  </outline>
</glyph>
<glyph name="ordfeminine" format="2">
  <advance width="456"/>
  <unicode hex="00AA"/>
  <note>
ordfeminine
</note>
  <outline>
    <contour>
      <point x="347" y="511" type="line"/>
      <point x="346" y="535" type="line"/>
      <point x="203" y="535" type="line" smooth="yes"/>
      <point x="115" y="535"/>
      <point x="0" y="516"/>
      <point x="0" y="425" type="curve" smooth="yes"/>
      <point x="0" y="364"/>
      <point x="54" y="323"/>
      <point x="149" y="323" type="curve" smooth="yes"/>
      <point x="209" y="323"/>
      <point x="290" y="350"/>
      <point x="345" y="411" type="curve"/>
      <point x="345" y="440" type="line"/>
      <point x="286" y="381"/>
      <point x="215" y="353"/>
      <point x="161" y="353" type="curve" smooth="yes"/>
      <point x="101" y="353"/>
      <point x="66" y="373"/>
      <point x="66" y="429" type="curve" smooth="yes"/>
      <point x="66" y="502"/>
      <point x="149" y="511"/>
      <point x="234" y="511" type="curve" smooth="yes"/>
    </contour>
    <contour>
      <point x="340" y="563" type="curve" smooth="yes"/>
      <point x="340" y="334" type="line"/>
      <point x="481" y="334" type="line"/>
      <point x="481" y="335" type="line"/>
      <point x="400" y="381" type="line"/>
      <point x="400" y="544" type="line" smooth="yes"/>
      <point x="400" y="653"/>
      <point x="328" y="715"/>
      <point x="209" y="715" type="curve" smooth="yes"/>
      <point x="124" y="715"/>
      <point x="51" y="679"/>
      <point x="0" y="617" type="curve"/>
      <point x="43" y="560" type="line"/>
      <point x="44" y="560" type="line"/>
      <point x="82" y="649"/>
      <point x="135" y="694"/>
      <point x="210" y="694" type="curve" smooth="yes"/>
      <point x="288" y="694"/>
      <point x="340" y="646"/>
    </contour>
  </outline>
</glyph>
<glyph name="logicalnot" format="2">
  <advance width="480"/>
  <unicode hex="00AC"/>
  <note>
logicalnot
</note>
  <outline>
    <contour>
      <point x="409" y="333" type="line"/>
      <point x="409" y="117" type="line"/>
      <point x="445" y="117" type="line"/>
      <point x="445" y="333" type="line"/>
    </contour>
    <contour>
      <point x="445" y="340" type="line"/>
      <point x="35" y="340" type="line"/>
      <point x="35" y="307" type="line"/>
      <point x="445" y="307" type="line"/>
    </contour>
  </outline>
</glyph>
<glyph name="registered" format="2">
  <advance width="537"/>
  <unicode hex="00AE"/>
  <note>
registered
</note>
  <outline>
    <contour>
      <point x="268" y="274" type="curve" smooth="yes"/>
      <point x="405" y="274"/>
      <point x="500" y="365"/>
      <point x="500" y="495" type="curve" smooth="yes"/>
      <point x="500" y="623"/>
      <point x="407" y="715"/>
      <point x="268" y="715" type="curve" smooth="yes"/>
      <point x="133" y="715"/>
      <point x="37" y="625"/>
      <point x="37" y="495" type="curve" smooth="yes"/>
      <point x="37" y="367"/>
      <point x="131" y="274"/>
    </contour>
    <contour>
      <point x="68" y="495" type="curve" smooth="yes"/>
      <point x="68" y="608"/>
      <point x="151" y="689"/>
      <point x="268" y="689" type="curve" smooth="yes"/>
      <point x="387" y="689"/>
      <point x="469" y="609"/>
      <point x="469" y="495" type="curve" smooth="yes"/>
      <point x="469" y="381"/>
      <point x="387" y="300"/>
      <point x="268" y="300" type="curve" smooth="yes"/>
      <point x="150" y="300"/>
      <point x="68" y="382"/>
    </contour>
    <contour>
      <point x="329" y="410" type="line"/>
      <point x="269" y="496" type="line"/>
      <point x="303" y="496" type="line"/>
      <point x="362" y="412" type="line"/>
      <point x="411" y="391" type="line"/>
      <point x="411" y="390" type="line"/>
      <point x="311" y="390" type="line"/>
      <point x="311" y="391" type="line"/>
    </contour>
    <contour>
      <point x="142" y="390" type="line"/>
      <point x="184" y="412" type="line"/>
      <point x="184" y="587" type="line"/>
      <point x="142" y="608" type="line"/>
      <point x="142" y="609" type="line"/>
      <point x="273" y="609" type="line" smooth="yes"/>
      <point x="333" y="609"/>
      <point x="377" y="590"/>
      <point x="377" y="546" type="curve" smooth="yes"/>
      <point x="377" y="508"/>
      <point x="333" y="488"/>
      <point x="273" y="488" type="curve" smooth="yes"/>
      <point x="217" y="488" type="line"/>
      <point x="217" y="412" type="line"/>
      <point x="260" y="391" type="line"/>
      <point x="260" y="390" type="line"/>
    </contour>
    <contour>
      <point x="217" y="504" type="line"/>
      <point x="270" y="504" type="line" smooth="yes"/>
      <point x="305" y="504"/>
      <point x="341" y="515"/>
      <point x="341" y="547" type="curve" smooth="yes"/>
      <point x="341" y="582"/>
      <point x="308" y="593"/>
      <point x="270" y="593" type="curve" smooth="yes"/>
      <point x="217" y="593" type="line"/>
    </contour>
  </outline>
</glyph>
<glyph name="degree" format="2">
  <advance width="334"/>
  <unicode hex="00B0"/>
  <note>
degree
</note>
  <outline>
    <contour>
      <point x="167" y="479" type="curve" smooth="yes"/>
      <point x="234" y="479"/>
      <point x="284" y="526"/>
      <point x="284" y="597" type="curve" smooth="yes"/>
      <point x="284" y="666"/>
      <point x="235" y="715"/>
      <point x="167" y="715" type="curve" smooth="yes"/>
      <point x="100" y="715"/>
      <point x="50" y="668"/>
      <point x="50" y="597" type="curve" smooth="yes"/>
      <point x="50" y="528"/>
      <point x="99" y="479"/>
    </contour>
    <contour>
      <point x="80" y="597" type="curve" smooth="yes"/>
      <point x="80" y="650"/>
      <point x="117" y="686"/>
      <point x="167" y="686" type="curve" smooth="yes"/>
      <point x="216" y="686"/>
      <point x="254" y="651"/>
      <point x="254" y="597" type="curve" smooth="yes"/>
      <point x="254" y="544"/>
      <point x="217" y="508"/>
      <point x="167" y="508" type="curve" smooth="yes"/>
      <point x="118" y="508"/>
      <point x="80" y="543"/>
    </contour>
  </outline>
</glyph>
<glyph name="plusminus" format="2">
  <advance width="480"/>
  <unicode hex="00B1"/>
  <note>
plusminus
</note>
  <outline>
    <contour>
      <point x="222" y="501" type="line"/>
      <point x="222" y="222" type="line"/>
      <point x="258" y="222" type="line"/>
      <point x="258" y="501" type="line"/>
    </contour>
    <contour>
      <point x="445" y="369" type="line"/>
      <point x="35" y="369" type="line"/>
      <point x="35" y="336" type="line"/>
      <point x="445" y="336" type="line"/>
    </contour>
    <component base="minus" yOffset="-150"/>
  </outline>
</glyph>
<glyph name="twosuperior" format="2">
  <advance width="433"/>
  <unicode hex="00B2"/>
  <guideline x="315" y="284" angle="0"/>
  <outline>
    <contour>
      <point x="221" y="765" type="curve" smooth="yes"/>
      <point x="309" y="765"/>
      <point x="372" y="726"/>
      <point x="372" y="662" type="curve" smooth="yes"/>
      <point x="372" y="573"/>
      <point x="286" y="550"/>
      <point x="212" y="525" type="curve" smooth="yes"/>
      <point x="129" y="497"/>
      <point x="101" y="471"/>
      <point x="99" y="435" type="curve"/>
      <point x="307" y="437" type="line"/>
      <point x="391" y="511" type="line"/>
      <point x="394" y="511" type="line"/>
      <point x="340" y="365" type="line"/>
      <point x="326" y="384" type="line"/>
      <point x="58" y="384" type="line"/>
      <point x="58" y="484"/>
      <point x="121" y="514"/>
      <point x="205" y="544" type="curve" smooth="yes"/>
      <point x="283" y="573"/>
      <point x="309" y="606"/>
      <point x="309" y="662" type="curve" smooth="yes"/>
      <point x="309" y="710"/>
      <point x="276" y="746"/>
      <point x="216" y="746" type="curve" smooth="yes"/>
      <point x="136" y="746"/>
      <point x="99" y="682"/>
      <point x="98" y="613" type="curve"/>
      <point x="97" y="613" type="line"/>
      <point x="44" y="656" type="line"/>
      <point x="76" y="728"/>
      <point x="133" y="765"/>
    </contour>
  </outline>
</glyph>
<glyph name="threesuperior" format="2">
  <advance width="377"/>
  <unicode hex="00B3"/>
  <outline>
    <contour>
      <point x="193" y="380" type="curve" smooth="yes"/>
      <point x="288" y="380"/>
      <point x="352" y="428"/>
      <point x="352" y="496" type="curve" smooth="yes"/>
      <point x="352" y="560"/>
      <point x="291" y="593"/>
      <point x="225" y="592" type="curve"/>
      <point x="289" y="607"/>
      <point x="323" y="633"/>
      <point x="323" y="682" type="curve" smooth="yes"/>
      <point x="323" y="737"/>
      <point x="264" y="765"/>
      <point x="192" y="765" type="curve" smooth="yes"/>
      <point x="103" y="765"/>
      <point x="55" y="715"/>
      <point x="36" y="671" type="curve"/>
      <point x="84" y="630" type="line"/>
      <point x="85" y="630" type="line"/>
      <point x="89" y="701"/>
      <point x="127" y="749"/>
      <point x="192" y="749" type="curve" smooth="yes"/>
      <point x="239" y="749"/>
      <point x="269" y="726"/>
      <point x="269" y="685" type="curve" smooth="yes"/>
      <point x="269" y="631"/>
      <point x="223" y="601"/>
      <point x="114" y="578" type="curve"/>
      <point x="118" y="560" type="line"/>
      <point x="161" y="571"/>
      <point x="187" y="575"/>
      <point x="209" y="575" type="curve" smooth="yes"/>
      <point x="261" y="575"/>
      <point x="295" y="543"/>
      <point x="295" y="494" type="curve" smooth="yes"/>
      <point x="295" y="436"/>
      <point x="258" y="398"/>
      <point x="193" y="398" type="curve" smooth="yes"/>
      <point x="116" y="398"/>
      <point x="80" y="455"/>
      <point x="77" y="518" type="curve"/>
      <point x="76" y="518" type="line"/>
      <point x="30" y="471" type="line"/>
      <point x="55" y="412"/>
      <point x="126" y="380"/>
    </contour>
  </outline>
</glyph>
<glyph name="micro" format="2">
  <advance width="803"/>
  <unicode hex="00B5"/>
  <outline>
    <component base="u"/>
    <contour>
      <point x="203" y="238" type="line"/>
      <point x="123" y="238" type="line"/>
      <point x="123" y="-200" type="line"/>
      <point x="203" y="-200" type="line"/>
    </contour>
  </outline>
</glyph>
<glyph name="paragraph" format="2">
  <advance width="526"/>
  <unicode hex="00B6"/>
  <note>
paragraph
</note>
  <outline>
    <contour>
      <point x="351" y="-200" type="line"/>
      <point x="386" y="-200" type="line"/>
      <point x="386" y="700" type="line"/>
      <point x="351" y="700" type="line"/>
    </contour>
    <contour>
      <point x="251" y="-200" type="line"/>
      <point x="286" y="-200" type="line"/>
      <point x="286" y="700" type="line"/>
      <point x="251" y="700" type="line"/>
    </contour>
    <contour>
      <point x="252" y="319" type="curve"/>
      <point x="252" y="700" type="line"/>
      <point x="136" y="700"/>
      <point x="51" y="615"/>
      <point x="51" y="510" type="curve" smooth="yes"/>
      <point x="51" y="404"/>
      <point x="136" y="319"/>
    </contour>
    <contour>
      <point x="386" y="635" type="line"/>
      <point x="518" y="698" type="line"/>
      <point x="518" y="700" type="line"/>
      <point x="274" y="700" type="line"/>
      <point x="260" y="667" type="line"/>
      <point x="261" y="673" type="line"/>
      <point x="366" y="673" type="line"/>
      <point x="375" y="635" type="line"/>
    </contour>
  </outline>
</glyph>
<glyph name="onesuperior" format="2">
  <advance width="279"/>
  <unicode hex="00B9"/>
  <outline>
    <contour>
      <point x="23" y="386" type="line"/>
      <point x="279" y="386" type="line"/>
      <point x="279" y="389" type="line"/>
      <point x="179" y="427" type="line"/>
      <point x="177" y="765" type="line"/>
      <point x="162" y="765" type="line"/>
      <point x="10" y="669" type="line"/>
      <point x="13" y="663" type="line"/>
      <point x="123" y="701" type="line"/>
      <point x="123" y="427" type="line"/>
      <point x="23" y="389" type="line"/>
    </contour>
  </outline>
</glyph>
<glyph name="ordmasculine" format="2">
  <advance width="568"/>
  <unicode hex="00BA"/>
  <note>
ordmasculine
</note>
  <guideline x="285" y="285" angle="0"/>
  <anchor x="366" y="0" name="bottom"/>
  <anchor x="366" y="250" name="center"/>
  <anchor x="654" y="10" name="ogonek"/>
  <anchor x="366" y="500" name="top"/>
  <anchor x="706" y="500" name="topright"/>
  <outline>
    <contour>
      <point x="285" y="326" type="curve" smooth="yes"/>
      <point x="413" y="326"/>
      <point x="510" y="412"/>
      <point x="510" y="521" type="curve" smooth="yes"/>
      <point x="510" y="642"/>
      <point x="396" y="715"/>
      <point x="285" y="715" type="curve" smooth="yes"/>
      <point x="171" y="715"/>
      <point x="58" y="639"/>
      <point x="58" y="521" type="curve" smooth="yes"/>
      <point x="58" y="399"/>
      <point x="177" y="326"/>
    </contour>
    <contour>
      <point x="122" y="521" type="curve" smooth="yes"/>
      <point x="122" y="623"/>
      <point x="190" y="691"/>
      <point x="285" y="691" type="curve" smooth="yes"/>
      <point x="379" y="691"/>
      <point x="446" y="623"/>
      <point x="446" y="521" type="curve" smooth="yes"/>
      <point x="446" y="417"/>
      <point x="376" y="352"/>
      <point x="285" y="352" type="curve" smooth="yes"/>
      <point x="190" y="352"/>
      <point x="122" y="418"/>
    </contour>
  </outline>
</glyph>
<glyph name="AE" format="2">
  <advance width="1206"/>
  <unicode hex="00C6"/>
  <note>
AE
</note>
  <anchor x="-13" y="0" name="bottom"/>
  <outline>
    <contour>
      <point x="150" y="67" type="line"/>
      <point x="621" y="637" type="line"/>
      <point x="590" y="662" type="line"/>
      <point x="95" y="74" type="line"/>
      <point x="-50" y="1" type="line"/>
      <point x="-50" y="0" type="line"/>
      <point x="265" y="0" type="line"/>
      <point x="265" y="2" type="line"/>
    </contour>
    <contour>
      <point x="602" y="226" type="line"/>
      <point x="587" y="258" type="line"/>
      <point x="262" y="258" type="line"/>
      <point x="248" y="226" type="line"/>
    </contour>
    <contour>
      <point x="570" y="638" type="line"/>
      <point x="570" y="62" type="line"/>
      <point x="462" y="3" type="line"/>
      <point x="462" y="0" type="line"/>
      <point x="1042" y="0" type="line"/>
      <point x="1081" y="-31" type="line"/>
      <point x="1083" y="-31" type="line"/>
      <point x="1196" y="256" type="line"/>
      <point x="1194" y="256" type="line"/>
      <point x="994" y="31" type="line"/>
      <point x="653" y="31" type="line"/>
      <point x="653" y="341" type="line"/>
      <point x="911" y="341" type="line"/>
      <point x="991" y="222" type="line"/>
      <point x="993" y="222" type="line"/>
      <point x="993" y="492" type="line"/>
      <point x="991" y="492" type="line"/>
      <point x="911" y="373" type="line"/>
      <point x="653" y="373" type="line"/>
      <point x="653" y="670" type="line"/>
      <point x="992" y="670" type="line"/>
      <point x="1172" y="491" type="line"/>
      <point x="1174" y="493" type="line"/>
      <point x="1071" y="720" type="line"/>
      <point x="1069" y="720" type="line"/>
      <point x="1025" y="700" type="line"/>
      <point x="467" y="700" type="line"/>
      <point x="467" y="698" type="line"/>
    </contour>
  </outline>
</glyph>
<glyph name="Eth" format="2">
  <advance width="821"/>
  <unicode hex="00D0"/>
  <note>
Eth
</note>
  <outline>
    <contour>
      <point x="347" y="338" type="line"/>
      <point x="35" y="338" type="line"/>
      <point x="35" y="363" type="line"/>
      <point x="347" y="363" type="line"/>
    </contour>
    <component base="D" xOffset="-20"/>
  </outline>
</glyph>
<glyph name="multiply" format="2">
  <advance width="428"/>
  <unicode hex="00D7"/>
  <note>
multiply
</note>
  <outline>
    <contour>
      <point x="35" y="466" type="line"/>
      <point x="367" y="134" type="line"/>
      <point x="393" y="160" type="line"/>
      <point x="61" y="492" type="line"/>
    </contour>
    <contour>
      <point x="367" y="492" type="line"/>
      <point x="35" y="160" type="line"/>
      <point x="61" y="134" type="line"/>
      <point x="393" y="466" type="line"/>
    </contour>
  </outline>
</glyph>
<glyph name="Oslash" format="2">
  <advance width="896"/>
  <unicode hex="00D8"/>
  <note>
Oslash
</note>
  <outline>
    <contour>
      <point x="713" y="700" type="line"/>
      <point x="684" y="720" type="line"/>
      <point x="176" y="-16" type="line"/>
      <point x="206" y="-36" type="line"/>
    </contour>
    <component base="O"/>
  </outline>
</glyph>
<glyph name="Thorn" format="2">
  <advance width="765"/>
  <unicode hex="00DE"/>
  <note>
Thorn
</note>
  <anchor x="383" y="0" name="bottom"/>
  <anchor x="383" y="700" name="top"/>
  <outline>
    <contour>
      <point x="250" y="518" type="line"/>
      <point x="424" y="518" type="line" smooth="yes"/>
      <point x="548" y="518"/>
      <point x="635" y="464"/>
      <point x="635" y="362" type="curve" smooth="yes"/>
      <point x="635" y="258"/>
      <point x="548" y="203"/>
      <point x="424" y="203" type="curve" smooth="yes"/>
      <point x="250" y="203" type="line"/>
      <point x="250" y="171" type="line"/>
      <point x="424" y="171" type="line" smooth="yes"/>
      <point x="611" y="171"/>
      <point x="735" y="240"/>
      <point x="735" y="357" type="curve" smooth="yes"/>
      <point x="735" y="489"/>
      <point x="611" y="550"/>
      <point x="424" y="550" type="curve" smooth="yes"/>
      <point x="249" y="550" type="line"/>
    </contour>
    <contour>
      <point x="40" y="699" type="line"/>
      <point x="176" y="628" type="line"/>
      <point x="176" y="72" type="line"/>
      <point x="40" y="2" type="line"/>
      <point x="40" y="0" type="line"/>
      <point x="392" y="0" type="line"/>
      <point x="392" y="2" type="line"/>
      <point x="256" y="72" type="line"/>
      <point x="256" y="628" type="line"/>
      <point x="392" y="698" type="line"/>
      <point x="392" y="700" type="line"/>
      <point x="40" y="700" type="line"/>
    </contour>
  </outline>
</glyph>
<glyph name="germandbls" format="2">
  <advance width="726"/>
  <unicode hex="00DF"/>
  <note>
germandbls
</note>
  <outline>
    <contour>
      <point x="349" y="-4" type="line"/>
      <point x="395" y="41" type="line"/>
      <point x="448" y="3"/>
      <point x="472" y="-15"/>
      <point x="531" y="-15" type="curve" smooth="yes"/>
      <point x="607" y="-15"/>
      <point x="689" y="35"/>
      <point x="689" y="122" type="curve" smooth="yes"/>
      <point x="689" y="218"/>
      <point x="615" y="246"/>
      <point x="523" y="290" type="curve" smooth="yes"/>
      <point x="453" y="324"/>
      <point x="393" y="352"/>
      <point x="393" y="396" type="curve" smooth="yes"/>
      <point x="393" y="479"/>
      <point x="577" y="478"/>
      <point x="577" y="621" type="curve" smooth="yes"/>
      <point x="577" y="688"/>
      <point x="515" y="764"/>
      <point x="378" y="764" type="curve" smooth="yes"/>
      <point x="250" y="764"/>
      <point x="156" y="686"/>
      <point x="156" y="548" type="curve" smooth="yes"/>
      <point x="156" y="72" type="line"/>
      <point x="42" y="6" type="line"/>
      <point x="42" y="1" type="line"/>
      <point x="236" y="1" type="line"/>
      <point x="236" y="548" type="line" smooth="yes"/>
      <point x="236" y="670"/>
      <point x="298" y="733"/>
      <point x="388" y="733" type="curve" smooth="yes"/>
      <point x="463" y="733"/>
      <point x="495" y="689"/>
      <point x="495" y="635" type="curve" smooth="yes"/>
      <point x="495" y="507"/>
      <point x="323" y="480"/>
      <point x="323" y="379" type="curve" smooth="yes"/>
      <point x="323" y="305"/>
      <point x="388" y="277"/>
      <point x="469" y="236" type="curve" smooth="yes"/>
      <point x="557" y="193"/>
      <point x="616" y="173"/>
      <point x="616" y="101" type="curve" smooth="yes"/>
      <point x="616" y="50"/>
      <point x="578" y="14"/>
      <point x="523" y="14" type="curve" smooth="yes"/>
      <point x="447" y="14"/>
      <point x="361" y="92"/>
      <point x="316" y="190" type="curve"/>
      <point x="310" y="187" type="line"/>
    </contour>
  </outline>
</glyph>
<glyph name="ae" format="2">
  <advance width="1146"/>
  <unicode hex="00E6"/>
  <note>
ae
</note>
  <anchor x="350" y="0" name="bottom"/>
  <anchor x="649" y="10" name="ogonek"/>
  <anchor x="350" y="500" name="top"/>
  <outline>
    <contour>
      <point x="507" y="246" type="line"/>
      <point x="507" y="86"/>
      <point x="378" y="18"/>
      <point x="278" y="18" type="curve" smooth="yes"/>
      <point x="197" y="18"/>
      <point x="139" y="51"/>
      <point x="139" y="128" type="curve" smooth="yes"/>
      <point x="139" y="236"/>
      <point x="249" y="246"/>
      <point x="365" y="246" type="curve" smooth="yes"/>
    </contour>
    <contour>
      <point x="586" y="283" type="line"/>
      <point x="586" y="431"/>
      <point x="489" y="514"/>
      <point x="332" y="514" type="curve" smooth="yes"/>
      <point x="217" y="514"/>
      <point x="118" y="465"/>
      <point x="50" y="381" type="curve"/>
      <point x="109" y="305" type="line"/>
      <point x="111" y="305" type="line"/>
      <point x="160" y="426"/>
      <point x="232" y="486"/>
      <point x="334" y="486" type="curve" smooth="yes"/>
      <point x="422" y="486"/>
      <point x="504" y="418"/>
      <point x="506" y="310" type="curve" smooth="yes"/>
      <point x="507" y="253" type="line"/>
    </contour>
    <contour>
      <point x="598" y="278" type="curve" smooth="yes"/>
      <point x="598" y="383"/>
      <point x="672" y="486"/>
      <point x="810" y="486" type="curve" smooth="yes"/>
      <point x="933" y="486"/>
      <point x="1013" y="395"/>
      <point x="1013" y="284" type="curve"/>
      <point x="587" y="284" type="line"/>
      <point x="588" y="255" type="line"/>
      <point x="1101" y="255" type="line"/>
      <point x="1101" y="412"/>
      <point x="984" y="514"/>
      <point x="810" y="514" type="curve" smooth="yes"/>
      <point x="643" y="514"/>
      <point x="512" y="409"/>
      <point x="512" y="250" type="curve" smooth="yes"/>
      <point x="512" y="101"/>
      <point x="633" y="-14"/>
      <point x="815" y="-14" type="curve" smooth="yes"/>
      <point x="934" y="-14"/>
      <point x="1034" y="36"/>
      <point x="1086" y="115" type="curve"/>
      <point x="1066" y="130" type="line"/>
      <point x="1019" y="63"/>
      <point x="941" y="27"/>
      <point x="846" y="27" type="curve" smooth="yes"/>
      <point x="689" y="27"/>
      <point x="598" y="151"/>
    </contour>
    <contour>
      <point x="539" y="271" type="curve"/>
      <point x="325" y="271" type="line" smooth="yes"/>
      <point x="204" y="271"/>
      <point x="50" y="244"/>
      <point x="50" y="123" type="curve" smooth="yes"/>
      <point x="50" y="40"/>
      <point x="122" y="-15"/>
      <point x="261" y="-15" type="curve" smooth="yes"/>
      <point x="400" y="-15"/>
      <point x="535" y="71"/>
    </contour>
  </outline>
</glyph>
<glyph name="eth" format="2">
  <advance width="715"/>
  <unicode hex="00F0"/>
  <note>
eth
</note>
  <outline>
    <contour>
      <point x="590" y="381" type="line"/>
      <point x="496" y="493"/>
      <point x="424" y="515"/>
      <point x="332" y="515" type="curve" smooth="yes"/>
      <point x="197" y="515"/>
      <point x="48" y="411"/>
      <point x="48" y="250" type="curve" smooth="yes"/>
      <point x="48" y="84"/>
      <point x="205" y="-15"/>
      <point x="347" y="-15" type="curve" smooth="yes"/>
      <point x="525" y="-15"/>
      <point x="657" y="101"/>
      <point x="657" y="280" type="curve" smooth="yes"/>
      <point x="657" y="580"/>
      <point x="364" y="720"/>
      <point x="138" y="713" type="curve"/>
      <point x="139" y="683" type="line"/>
      <point x="334" y="686"/>
      <point x="570" y="545"/>
      <point x="570" y="290" type="curve" smooth="yes"/>
      <point x="570" y="108"/>
      <point x="476" y="11"/>
      <point x="347" y="11" type="curve" smooth="yes"/>
      <point x="224" y="11"/>
      <point x="135" y="110"/>
      <point x="135" y="250" type="curve" smooth="yes"/>
      <point x="135" y="390"/>
      <point x="224" y="486"/>
      <point x="337" y="486" type="curve" smooth="yes"/>
      <point x="428" y="486"/>
      <point x="499" y="443"/>
      <point x="570" y="352" type="curve"/>
    </contour>
    <contour>
      <point x="201" y="542" type="line"/>
      <point x="521" y="690" type="line"/>
      <point x="506" y="717" type="line"/>
      <point x="186" y="569" type="line"/>
    </contour>
  </outline>
</glyph>
<glyph name="divide" format="2">
  <advance width="480"/>
  <unicode hex="00F7"/>
  <note>
divide
</note>
  <outline>
    <component base="minus"/>
    <contour>
      <point x="244" y="422" type="curve" smooth="yes"/>
      <point x="270" y="422"/>
      <point x="290" y="443"/>
      <point x="290" y="469" type="curve" smooth="yes"/>
      <point x="290" y="494"/>
      <point x="269" y="515"/>
      <point x="244" y="515" type="curve" smooth="yes"/>
      <point x="218" y="515"/>
      <point x="198" y="494"/>
      <point x="198" y="469" type="curve" smooth="yes"/>
      <point x="198" y="443"/>
      <point x="219" y="422"/>
    </contour>
    <contour>
      <point x="244" y="123" type="curve" smooth="yes"/>
      <point x="269" y="123"/>
      <point x="290" y="144"/>
      <point x="290" y="169" type="curve" smooth="yes"/>
      <point x="290" y="195"/>
      <point x="269" y="216"/>
      <point x="244" y="216" type="curve" smooth="yes"/>
      <point x="219" y="216"/>
      <point x="198" y="195"/>
      <point x="198" y="169" type="curve" smooth="yes"/>
      <point x="198" y="144"/>
      <point x="219" y="123"/>
    </contour>
  </outline>
</glyph>
<glyph name="oslash" format="2">
  <advance width="740"/>
  <unicode hex="00F8"/>
  <note>
oslash
</note>
  <outline>
    <component base="o"/>
    <contour>
      <point x="603" y="534" type="line"/>
      <point x="574" y="554" type="line"/>
      <point x="144" y="-45" type="line"/>
      <point x="174" y="-65" type="line"/>
    </contour>
  </outline>
</glyph>
<glyph name="thorn" format="2">
  <advance width="746"/>
  <unicode hex="00FE"/>
  <note>
thorn
</note>
  <outline>
    <contour>
      <point x="216" y="-135" type="line"/>
      <point x="216" y="700" type="line"/>
      <point x="24" y="700" type="line"/>
      <point x="24" y="698" type="line"/>
      <point x="136" y="634" type="line"/>
      <point x="136" y="-135" type="line"/>
      <point x="25" y="-198" type="line"/>
      <point x="25" y="-200" type="line"/>
      <point x="378" y="-200" type="line"/>
      <point x="378" y="-198" type="line"/>
    </contour>
    <contour>
      <point x="215" y="87" type="curve"/>
      <point x="215" y="48" type="line"/>
      <point x="258" y="15"/>
      <point x="328" y="-11"/>
      <point x="400" y="-11" type="curve" smooth="yes"/>
      <point x="549" y="-11"/>
      <point x="698" y="99"/>
      <point x="698" y="255" type="curve" smooth="yes"/>
      <point x="698" y="399"/>
      <point x="562" y="514"/>
      <point x="405" y="514" type="curve" smooth="yes"/>
      <point x="317" y="514"/>
      <point x="259" y="481"/>
      <point x="215" y="444" type="curve"/>
      <point x="215" y="409" type="line"/>
      <point x="256" y="453"/>
      <point x="329" y="488"/>
      <point x="393" y="488" type="curve" smooth="yes"/>
      <point x="523" y="488"/>
      <point x="603" y="398"/>
      <point x="603" y="255" type="curve" smooth="yes"/>
      <point x="603" y="112"/>
      <point x="514" y="15"/>
      <point x="392" y="15" type="curve" smooth="yes"/>
      <point x="317" y="15"/>
      <point x="260" y="46"/>
    </contour>
  </outline>
</glyph>
<glyph name="Dcroat" format="2">
  <advance width="841"/>
  <unicode hex="0110"/>
  <note>
Dcroat
</note>
  <outline>
    <contour>
      <point x="357" y="308" type="line"/>
      <point x="45" y="308" type="line"/>
      <point x="45" y="333" type="line"/>
      <point x="357" y="333" type="line"/>
    </contour>
    <component base="D"/>
  </outline>
</glyph>
<glyph name="dcroat" format="2">
  <advance width="773"/>
  <unicode hex="0111"/>
  <note>
dcroat
</note>
  <outline>
    <contour>
      <point x="383" y="585" type="line"/>
      <point x="707" y="585" type="line"/>
      <point x="707" y="611" type="line"/>
      <point x="383" y="611" type="line"/>
    </contour>
    <component base="d"/>
  </outline>
</glyph>
<glyph name="Hbar" format="2">
  <advance width="939"/>
  <unicode hex="0126"/>
  <outline>
    <contour>
      <point x="708" y="628" type="line"/>
      <point x="708" y="72" type="line"/>
      <point x="598" y="4" type="line"/>
      <point x="598" y="0" type="line"/>
      <point x="899" y="0" type="line"/>
      <point x="899" y="4" type="line"/>
      <point x="791" y="72" type="line"/>
      <point x="791" y="628" type="line"/>
      <point x="899" y="699" type="line"/>
      <point x="899" y="700" type="line"/>
      <point x="598" y="700" type="line"/>
      <point x="598" y="699" type="line"/>
    </contour>
    <contour>
      <point x="233" y="72" type="line"/>
      <point x="233" y="628" type="line"/>
      <point x="341" y="696" type="line"/>
      <point x="341" y="700" type="line"/>
      <point x="40" y="700" type="line"/>
      <point x="40" y="696" type="line"/>
      <point x="150" y="628" type="line"/>
      <point x="150" y="72" type="line"/>
      <point x="40" y="4" type="line"/>
      <point x="40" y="0" type="line"/>
      <point x="341" y="0" type="line"/>
      <point x="341" y="4" type="line"/>
    </contour>
    <contour>
      <point x="715" y="349" type="line"/>
      <point x="715" y="381" type="line"/>
      <point x="226" y="381" type="line"/>
      <point x="226" y="349" type="line"/>
    </contour>
    <contour>
      <point x="880" y="489" type="line"/>
      <point x="880" y="521" type="line"/>
      <point x="61" y="521" type="line"/>
      <point x="61" y="489" type="line"/>
    </contour>
  </outline>
</glyph>
<glyph name="hbar" format="2">
  <advance width="820"/>
  <unicode hex="0127"/>
  <outline>
    <component base="h"/>
    <contour>
      <point x="418" y="591" type="line"/>
      <point x="418" y="623" type="line"/>
      <point x="39" y="623" type="line"/>
      <point x="39" y="591" type="line"/>
    </contour>
  </outline>
</glyph>
<glyph name="idotless" format="2">
  <advance width="383"/>
  <unicode hex="0131"/>
  <note>
dotlessi
</note>
  <anchor x="192" y="0" name="bottom"/>
  <anchor x="259" y="0" name="ogonek"/>
  <anchor x="181" y="500" name="top"/>
  <outline>
    <contour>
      <point x="40" y="499" type="line"/>
      <point x="155" y="434" type="line"/>
      <point x="155" y="65" type="line"/>
      <point x="40" y="2" type="line"/>
      <point x="40" y="0" type="line"/>
      <point x="343" y="0" type="line"/>
      <point x="343" y="2" type="line"/>
      <point x="230" y="65" type="line"/>
      <point x="230" y="500" type="line"/>
      <point x="40" y="500" type="line"/>
    </contour>
  </outline>
</glyph>
<glyph name="Lslash" format="2">
  <advance width="775"/>
  <unicode hex="0141"/>
  <note>
Lslash
</note>
  <outline>
    <contour>
      <point x="44" y="249" type="line"/>
      <point x="394" y="437" type="line"/>
      <point x="381" y="467" type="line"/>
      <point x="31" y="279" type="line"/>
    </contour>
    <component base="L"/>
  </outline>
</glyph>
<glyph name="lslash" format="2">
  <advance width="374"/>
  <unicode hex="0142"/>
  <note>
lslash
</note>
  <outline>
    <contour>
      <point x="59" y="275" type="line"/>
      <point x="339" y="483" type="line"/>
      <point x="322" y="508" type="line"/>
      <point x="42" y="300" type="line"/>
    </contour>
    <component base="l"/>
  </outline>
</glyph>
<glyph name="OE" format="2">
  <advance width="1163"/>
  <unicode hex="0152"/>
  <note>
OE
</note>
  <outline>
    <contour>
      <point x="450" y="25" type="line"/>
      <point x="269" y="25"/>
      <point x="152" y="149"/>
      <point x="152" y="325" type="curve" smooth="yes"/>
      <point x="152" y="501"/>
      <point x="269" y="624"/>
      <point x="450" y="624" type="curve"/>
      <point x="537" y="588" type="line"/>
      <point x="537" y="62" type="line"/>
    </contour>
    <contour>
      <point x="450" y="0" type="curve" smooth="yes"/>
      <point x="999" y="1" type="line"/>
      <point x="1038" y="-31" type="line"/>
      <point x="1040" y="-31" type="line"/>
      <point x="1153" y="256" type="line"/>
      <point x="1151" y="256" type="line"/>
      <point x="951" y="31" type="line"/>
      <point x="620" y="31" type="line"/>
      <point x="620" y="311" type="line"/>
      <point x="868" y="311" type="line"/>
      <point x="948" y="192" type="line"/>
      <point x="950" y="192" type="line"/>
      <point x="950" y="462" type="line"/>
      <point x="948" y="462" type="line"/>
      <point x="868" y="343" type="line"/>
      <point x="620" y="343" type="line"/>
      <point x="620" y="620" type="line"/>
      <point x="949" y="620" type="line"/>
      <point x="1129" y="441" type="line"/>
      <point x="1131" y="443" type="line"/>
      <point x="1028" y="670" type="line"/>
      <point x="1026" y="670" type="line"/>
      <point x="982" y="650" type="line"/>
      <point x="448" y="650" type="line" smooth="yes"/>
      <point x="215" y="650"/>
      <point x="54" y="516"/>
      <point x="54" y="325" type="curve" smooth="yes"/>
      <point x="54" y="134"/>
      <point x="217" y="0"/>
    </contour>
  </outline>
</glyph>
<glyph name="Schwa" format="2">
  <advance width="838"/>
  <unicode hex="018F"/>
  <anchor x="416" y="200" name="bottom"/>
  <anchor x="276" y="690" name="ogonek"/>
  <anchor x="416" y="700" name="top"/>
  <outline>
    <contour>
      <point x="679" y="352" type="curve" smooth="yes"/>
      <point x="679" y="146"/>
      <point x="578" y="17"/>
      <point x="426" y="17" type="curve" smooth="yes"/>
      <point x="260" y="17"/>
      <point x="162" y="136"/>
      <point x="162" y="326" type="curve"/>
      <point x="690" y="326" type="line"/>
      <point x="689" y="355" type="line"/>
      <point x="54" y="355" type="line"/>
      <point x="54" y="128"/>
      <point x="194" y="-14"/>
      <point x="426" y="-14" type="curve" smooth="yes"/>
      <point x="642" y="-14"/>
      <point x="784" y="126"/>
      <point x="784" y="350" type="curve" smooth="yes"/>
      <point x="784" y="574"/>
      <point x="605" y="714"/>
      <point x="411" y="714" type="curve" smooth="yes"/>
      <point x="291" y="714"/>
      <point x="161" y="654"/>
      <point x="107" y="575" type="curve"/>
      <point x="131" y="557" type="line"/>
      <point x="177" y="620"/>
      <point x="284" y="673"/>
      <point x="378" y="673" type="curve" smooth="yes"/>
      <point x="537" y="673"/>
      <point x="679" y="566"/>
    </contour>
  </outline>
</glyph>
<glyph name="florin" format="2">
  <advance width="600"/>
  <unicode hex="0192"/>
  <note>
florin
</note>
  <outline>
    <contour>
      <point x="463" y="413" type="line"/>
      <point x="86" y="413" type="line"/>
      <point x="86" y="440" type="line"/>
      <point x="463" y="440" type="line"/>
    </contour>
    <contour>
      <point x="198" y="110" type="curve" smooth="yes"/>
      <point x="198" y="500" type="line" smooth="yes"/>
      <point x="198" y="611"/>
      <point x="267" y="715"/>
      <point x="399" y="715" type="curve" smooth="yes"/>
      <point x="468" y="715"/>
      <point x="518" y="686"/>
      <point x="584" y="635" type="curve"/>
      <point x="534" y="538" type="line"/>
      <point x="532" y="538" type="line"/>
      <point x="502" y="650"/>
      <point x="462" y="686"/>
      <point x="397" y="686" type="curve" smooth="yes"/>
      <point x="326" y="686"/>
      <point x="277" y="626"/>
      <point x="277" y="522" type="curve" smooth="yes"/>
      <point x="277" y="135" type="line" smooth="yes"/>
      <point x="277" y="50"/>
      <point x="224" y="-15"/>
      <point x="129" y="-15" type="curve" smooth="yes"/>
      <point x="78" y="-15"/>
      <point x="32" y="5"/>
      <point x="-23" y="56" type="curve"/>
      <point x="35" y="125" type="line"/>
      <point x="37" y="125" type="line"/>
      <point x="57" y="43"/>
      <point x="95" y="13"/>
      <point x="130" y="13" type="curve" smooth="yes"/>
      <point x="169" y="13"/>
      <point x="198" y="46"/>
    </contour>
  </outline>
</glyph>
<glyph name="jdotless" format="2">
  <advance width="441"/>
  <unicode hex="0237"/>
  <note>
uni0237
</note>
  <anchor x="221" y="-200" name="bottom"/>
  <anchor x="286" y="500" name="top"/>
  <outline>
    <contour>
      <point x="-42" y="-131" type="curve"/>
      <point x="17" y="-58" type="line"/>
      <point x="19" y="-58" type="line"/>
      <point x="33" y="-166"/>
      <point x="84" y="-226"/>
      <point x="147" y="-226" type="curve" smooth="yes"/>
      <point x="217" y="-226"/>
      <point x="247" y="-143"/>
      <point x="247" y="-34" type="curve" smooth="yes"/>
      <point x="247" y="437" type="line"/>
      <point x="84" y="498" type="line"/>
      <point x="84" y="500" type="line"/>
      <point x="327" y="500" type="line"/>
      <point x="327" y="-24" type="line" smooth="yes"/>
      <point x="327" y="-155"/>
      <point x="271" y="-250"/>
      <point x="142" y="-250" type="curve" smooth="yes"/>
      <point x="86" y="-250"/>
      <point x="17" y="-225"/>
    </contour>
  </outline>
</glyph>
<glyph name="gravecomb" format="2">
  <advance width="325"/>
  <unicode hex="0300"/>
  <note>
grave
</note>
  <anchor x="163" y="500" name="_top"/>
  <anchor x="163" y="876" name="top"/>
  <outline>
    <contour>
      <point x="266" y="608" type="line"/>
      <point x="121" y="721" type="line" smooth="yes"/>
      <point x="104" y="734"/>
      <point x="93" y="741"/>
      <point x="79" y="741" type="curve" smooth="yes"/>
      <point x="57" y="741"/>
      <point x="48" y="725"/>
      <point x="48" y="711" type="curve" smooth="yes"/>
      <point x="48" y="690"/>
      <point x="64" y="679"/>
      <point x="83" y="671" type="curve" smooth="yes"/>
      <point x="257" y="596" type="line"/>
    </contour>
  </outline>
</glyph>
<glyph name="circumflexcomb" format="2">
  <advance width="336"/>
  <unicode hex="0302"/>
  <note>
circumflex
</note>
  <anchor x="168" y="500" name="_top"/>
  <anchor x="168" y="717" name="top"/>
  <outline>
    <contour>
      <point x="306" y="568" type="line"/>
      <point x="316" y="578" type="line"/>
      <point x="204" y="710" type="line" smooth="yes"/>
      <point x="192" y="725"/>
      <point x="184" y="737"/>
      <point x="168" y="737" type="curve" smooth="yes"/>
      <point x="154" y="737"/>
      <point x="144" y="725"/>
      <point x="132" y="710" type="curve" smooth="yes"/>
      <point x="20" y="578" type="line"/>
      <point x="30" y="568" type="line"/>
      <point x="168" y="678" type="line"/>
    </contour>
  </outline>
</glyph>
<glyph name="tildecomb" format="2">
  <advance width="392"/>
  <unicode hex="0303"/>
  <note>
tilde
</note>
  <anchor x="191" y="500" name="_top"/>
  <anchor x="191" y="687" name="top"/>
  <outline>
    <contour>
      <point x="240" y="608" type="curve" smooth="yes"/>
      <point x="277" y="608"/>
      <point x="302" y="630"/>
      <point x="342" y="696" type="curve"/>
      <point x="324" y="707" type="line"/>
      <point x="299" y="670"/>
      <point x="284" y="658"/>
      <point x="264" y="658" type="curve" smooth="yes"/>
      <point x="227" y="658"/>
      <point x="179" y="696"/>
      <point x="139" y="696" type="curve" smooth="yes"/>
      <point x="105" y="696"/>
      <point x="81" y="675"/>
      <point x="41" y="610" type="curve"/>
      <point x="59" y="599" type="line"/>
      <point x="82" y="635"/>
      <point x="96" y="647"/>
      <point x="113" y="647" type="curve" smooth="yes"/>
      <point x="151" y="647"/>
      <point x="200" y="608"/>
    </contour>
  </outline>
</glyph>
<glyph name="macroncomb" format="2">
  <advance width="345"/>
  <unicode hex="0304"/>
  <note>
macron
</note>
  <anchor x="179" y="500" name="_top"/>
  <anchor x="166" y="647" name="top"/>
  <outline>
    <contour>
      <point x="45" y="632" type="line"/>
      <point x="305" y="632" type="line"/>
      <point x="305" y="667" type="line"/>
      <point x="45" y="667" type="line"/>
    </contour>
  </outline>
</glyph>
<glyph name="brevecomb" format="2">
  <advance width="368"/>
  <unicode hex="0306"/>
  <note>
breve
</note>
  <anchor x="184" y="500" name="_top"/>
  <anchor x="184" y="710" name="top"/>
  <outline>
    <contour>
      <point x="184" y="586" type="curve" smooth="yes"/>
      <point x="265" y="586"/>
      <point x="297" y="648"/>
      <point x="311" y="705" type="curve"/>
      <point x="294" y="710" type="line"/>
      <point x="280" y="663"/>
      <point x="235" y="637"/>
      <point x="184" y="637" type="curve" smooth="yes"/>
      <point x="132" y="637"/>
      <point x="87" y="663"/>
      <point x="73" y="710" type="curve"/>
      <point x="56" y="705" type="line"/>
      <point x="70" y="647"/>
      <point x="104" y="586"/>
    </contour>
  </outline>
</glyph>
<glyph name="dotaccentcomb" format="2">
  <advance width="200"/>
  <unicode hex="0307"/>
  <note>
dotaccent
</note>
  <anchor x="100" y="500" name="_top"/>
  <anchor x="100" y="700" name="top"/>
  <outline>
    <contour>
      <point x="100" y="659" type="curve" smooth="yes"/>
      <point x="131" y="659"/>
      <point x="153" y="681"/>
      <point x="153" y="712" type="curve" smooth="yes"/>
      <point x="153" y="743"/>
      <point x="131" y="765"/>
      <point x="100" y="765" type="curve" smooth="yes"/>
      <point x="69" y="765"/>
      <point x="47" y="743"/>
      <point x="47" y="712" type="curve" smooth="yes"/>
      <point x="47" y="681"/>
      <point x="69" y="659"/>
    </contour>
  </outline>
</glyph>
<glyph name="ringcomb" format="2">
  <advance width="268"/>
  <unicode hex="030A"/>
  <note>
ring
</note>
  <anchor x="134" y="500" name="_top"/>
  <anchor x="134" y="724" name="top"/>
  <outline>
    <contour>
      <point x="220" y="659" type="curve" smooth="yes"/>
      <point x="220" y="707"/>
      <point x="182" y="744"/>
      <point x="134" y="744" type="curve" smooth="yes"/>
      <point x="85" y="744"/>
      <point x="47" y="708"/>
      <point x="47" y="659" type="curve" smooth="yes"/>
      <point x="47" y="612"/>
      <point x="84" y="573"/>
      <point x="134" y="573" type="curve" smooth="yes"/>
      <point x="182" y="573"/>
      <point x="220" y="611"/>
    </contour>
    <contour>
      <point x="87" y="659" type="curve" smooth="yes"/>
      <point x="87" y="686"/>
      <point x="102" y="712"/>
      <point x="134" y="712" type="curve" smooth="yes"/>
      <point x="169" y="712"/>
      <point x="182" y="683"/>
      <point x="182" y="659" type="curve" smooth="yes"/>
      <point x="182" y="635"/>
      <point x="167" y="606"/>
      <point x="134" y="606" type="curve" smooth="yes"/>
      <point x="101" y="606"/>
      <point x="87" y="635"/>
    </contour>
  </outline>
</glyph>
<glyph name="cedillacomb" format="2">
  <advance width="290"/>
  <unicode hex="0327"/>
  <note>
cedilla
</note>
  <anchor x="117" y="0" name="_bottom"/>
  <anchor x="145" y="-250" name="bottom"/>
  <outline>
    <contour>
      <point x="251" y="-127" type="curve" smooth="yes"/>
      <point x="251" y="-77"/>
      <point x="213" y="-54"/>
      <point x="176" y="-54" type="curve" smooth="yes"/>
      <point x="152" y="-54"/>
      <point x="138" y="-61"/>
      <point x="130" y="-65" type="curve"/>
      <point x="184" y="0" type="line"/>
      <point x="148" y="0" type="line"/>
      <point x="67" y="-100" type="line"/>
      <point x="86" y="-113" type="line"/>
      <point x="103" y="-102"/>
      <point x="126" y="-91"/>
      <point x="146" y="-91" type="curve" smooth="yes"/>
      <point x="176" y="-91"/>
      <point x="190" y="-105"/>
      <point x="190" y="-138" type="curve" smooth="yes"/>
      <point x="190" y="-176"/>
      <point x="158" y="-202"/>
      <point x="70" y="-201" type="curve"/>
      <point x="71" y="-224" type="line"/>
      <point x="178" y="-226"/>
      <point x="251" y="-184"/>
    </contour>
  </outline>
</glyph>
<glyph name="ogonekcomb" format="2">
  <advance width="299"/>
  <unicode hex="0328"/>
  <note>
ogonek
</note>
  <anchor x="205" y="0" name="_ogonek"/>
  <outline>
    <contour>
      <point x="205" y="0" type="curve"/>
      <point x="174" y="0" type="line"/>
      <point x="91.333" y="-38"/>
      <point x="50" y="-72"/>
      <point x="50" y="-118" type="curve" smooth="yes"/>
      <point x="50" y="-161"/>
      <point x="91" y="-188"/>
      <point x="134" y="-188" type="curve" smooth="yes"/>
      <point x="182" y="-188"/>
      <point x="224" y="-159"/>
      <point x="249" y="-128" type="curve"/>
      <point x="238" y="-118" type="line"/>
      <point x="214" y="-143"/>
      <point x="189" y="-156"/>
      <point x="163" y="-156" type="curve" smooth="yes"/>
      <point x="128" y="-156"/>
      <point x="108" y="-131"/>
      <point x="108" y="-99" type="curve" smooth="yes"/>
      <point x="108" y="-62"/>
      <point x="146" y="-28"/>
    </contour>
  </outline>
</glyph>
<glyph name="Germandbls" format="2">
  <advance width="760"/>
  <unicode hex="1E9E"/>
  <outline>
    <contour>
      <point x="722" y="700" type="line"/>
      <point x="32" y="700" type="line"/>
      <point x="138" y="636" type="line"/>
      <point x="138" y="65" type="line"/>
      <point x="24" y="2" type="line"/>
      <point x="24" y="0" type="line"/>
      <point x="323" y="0" type="line"/>
      <point x="323" y="2" type="line"/>
      <point x="220" y="65" type="line"/>
      <point x="220" y="671" type="line"/>
      <point x="577" y="671" type="line"/>
      <point x="316" y="355" type="line"/>
      <point x="341" y="340" type="line"/>
      <point x="368" y="378"/>
      <point x="426" y="403"/>
      <point x="491" y="403" type="curve" smooth="yes"/>
      <point x="569" y="403"/>
      <point x="643" y="349"/>
      <point x="643" y="216" type="curve" smooth="yes"/>
      <point x="643" y="91"/>
      <point x="581" y="19"/>
      <point x="491" y="19" type="curve" smooth="yes"/>
      <point x="432" y="19"/>
      <point x="383" y="41"/>
      <point x="352" y="95" type="curve"/>
      <point x="331" y="81" type="line"/>
      <point x="367" y="16"/>
      <point x="431" y="-13"/>
      <point x="502" y="-13" type="curve" smooth="yes"/>
      <point x="629" y="-13"/>
      <point x="740" y="72"/>
      <point x="740" y="221" type="curve" smooth="yes"/>
      <point x="740" y="362"/>
      <point x="642" y="437"/>
      <point x="517" y="437" type="curve" smooth="yes"/>
      <point x="460" y="437"/>
      <point x="416" y="420"/>
      <point x="366" y="391" type="curve"/>
      <point x="385" y="391" type="line"/>
      <point x="603" y="642" type="line"/>
      <point x="722" y="699" type="line"/>
    </contour>
  </outline>
</glyph>
<glyph name="endash" format="2">
  <advance width="591"/>
  <unicode hex="2013"/>
  <note>
endash
</note>
  <outline>
    <contour>
      <point x="0" y="287" type="line"/>
      <point x="0" y="255" type="line"/>
      <point x="591" y="255" type="line"/>
      <point x="591" y="287" type="line"/>
    </contour>
  </outline>
</glyph>
<glyph name="emdash" format="2">
  <advance width="898"/>
  <unicode hex="2014"/>
  <note>
emdash
</note>
  <outline>
    <contour>
      <point x="0" y="255" type="line"/>
      <point x="898" y="255" type="line"/>
      <point x="898" y="287" type="line"/>
      <point x="0" y="287" type="line"/>
    </contour>
  </outline>
</glyph>
<glyph name="quotesinglbase" format="2">
  <advance width="203"/>
  <unicode hex="201A"/>
  <note>
quotesinglbase
</note>
  <outline>
    <contour>
      <point x="100" y="-5" type="curve" smooth="yes"/>
      <point x="117" y="-5"/>
      <point x="130" y="0"/>
      <point x="138" y="11" type="curve"/>
      <point x="138" y="-38"/>
      <point x="112" y="-73"/>
      <point x="59" y="-94" type="curve"/>
      <point x="65" y="-111" type="line"/>
      <point x="117" y="-94"/>
      <point x="163" y="-50"/>
      <point x="163" y="21" type="curve" smooth="yes"/>
      <point x="163" y="64"/>
      <point x="141" y="97"/>
      <point x="103" y="97" type="curve" smooth="yes"/>
      <point x="72" y="97"/>
      <point x="50" y="74"/>
      <point x="50" y="45" type="curve" smooth="yes"/>
      <point x="50" y="17"/>
      <point x="72" y="-5"/>
    </contour>
  </outline>
</glyph>
<glyph name="dagger" format="2">
  <advance width="600"/>
  <unicode hex="2020"/>
  <note>
dagger
</note>
  <outline>
    <contour>
      <point x="286" y="481" type="line"/>
      <point x="286" y="515" type="line"/>
      <point x="194" y="515" type="line"/>
      <point x="84" y="647" type="line"/>
      <point x="85" y="647" type="line"/>
      <point x="119" y="498" type="line"/>
      <point x="85" y="339" type="line"/>
      <point x="84" y="339" type="line"/>
      <point x="194" y="481" type="line"/>
    </contour>
    <contour>
      <point x="147" y="699" type="line"/>
      <point x="258" y="648" type="line"/>
      <point x="268" y="52" type="line"/>
      <point x="167" y="2" type="line"/>
      <point x="167" y="0" type="line"/>
      <point x="429" y="0" type="line"/>
      <point x="429" y="2" type="line"/>
      <point x="328" y="52" type="line"/>
      <point x="338" y="648" type="line"/>
      <point x="449" y="698" type="line"/>
      <point x="449" y="700" type="line"/>
      <point x="147" y="700" type="line"/>
    </contour>
    <contour>
      <point x="310" y="481" type="line"/>
      <point x="402" y="481" type="line"/>
      <point x="512" y="339" type="line"/>
      <point x="511" y="339" type="line"/>
      <point x="477" y="498" type="line"/>
      <point x="511" y="647" type="line"/>
      <point x="512" y="647" type="line"/>
      <point x="402" y="515" type="line"/>
      <point x="310" y="515" type="line"/>
    </contour>
  </outline>
</glyph>
<glyph name="daggerdbl" format="2">
  <advance width="600"/>
  <unicode hex="2021"/>
  <note>
daggerdbl
</note>
  <outline>
    <contour>
      <point x="286" y="488" type="line"/>
      <point x="286" y="522" type="line"/>
      <point x="194" y="522" type="line"/>
      <point x="84" y="624" type="line"/>
      <point x="85" y="624" type="line"/>
      <point x="119" y="505" type="line"/>
      <point x="85" y="376" type="line"/>
      <point x="84" y="376" type="line"/>
      <point x="194" y="488" type="line"/>
    </contour>
    <contour>
      <point x="147" y="699" type="line"/>
      <point x="258" y="648" type="line"/>
      <point x="268" y="52" type="line"/>
      <point x="167" y="2" type="line"/>
      <point x="167" y="0" type="line"/>
      <point x="429" y="0" type="line"/>
      <point x="429" y="2" type="line"/>
      <point x="328" y="52" type="line"/>
      <point x="338" y="648" type="line"/>
      <point x="449" y="698" type="line"/>
      <point x="449" y="700" type="line"/>
      <point x="147" y="700" type="line"/>
    </contour>
    <contour>
      <point x="310" y="488" type="line"/>
      <point x="402" y="488" type="line"/>
      <point x="512" y="376" type="line"/>
      <point x="511" y="376" type="line"/>
      <point x="477" y="505" type="line"/>
      <point x="511" y="624" type="line"/>
      <point x="512" y="624" type="line"/>
      <point x="402" y="522" type="line"/>
      <point x="310" y="522" type="line"/>
    </contour>
    <contour>
      <point x="286" y="198" type="line"/>
      <point x="286" y="232" type="line"/>
      <point x="194" y="232" type="line"/>
      <point x="84" y="334" type="line"/>
      <point x="85" y="334" type="line"/>
      <point x="119" y="215" type="line"/>
      <point x="85" y="86" type="line"/>
      <point x="84" y="86" type="line"/>
      <point x="194" y="198" type="line"/>
    </contour>
    <contour>
      <point x="310" y="198" type="line"/>
      <point x="402" y="198" type="line"/>
      <point x="512" y="86" type="line"/>
      <point x="511" y="86" type="line"/>
      <point x="477" y="215" type="line"/>
      <point x="511" y="334" type="line"/>
      <point x="512" y="334" type="line"/>
      <point x="402" y="232" type="line"/>
      <point x="310" y="232" type="line"/>
    </contour>
  </outline>
</glyph>
<glyph name="bullet" format="2">
  <advance width="270"/>
  <unicode hex="2022"/>
  <note>
bullet
</note>
  <outline>
    <contour>
      <point x="135" y="183" type="curve" smooth="yes"/>
      <point x="184" y="183"/>
      <point x="220" y="219"/>
      <point x="220" y="268" type="curve" smooth="yes"/>
      <point x="220" y="317"/>
      <point x="183" y="354"/>
      <point x="135" y="354" type="curve" smooth="yes"/>
      <point x="87" y="354"/>
      <point x="50" y="317"/>
      <point x="50" y="268" type="curve" smooth="yes"/>
      <point x="50" y="219"/>
      <point x="87" y="183"/>
    </contour>
  </outline>
</glyph>
<glyph name="perthousand" format="2">
  <advance width="929"/>
  <unicode hex="2030"/>
  <note>
perthousand
</note>
  <outline>
    <contour>
      <point x="162" y="1" type="line"/>
      <point x="205" y="1" type="line"/>
      <point x="735" y="681" type="line"/>
      <point x="692" y="681" type="line"/>
    </contour>
    <contour>
      <point x="293" y="380" type="curve" smooth="yes"/>
      <point x="381" y="380"/>
      <point x="453" y="444"/>
      <point x="453" y="534" type="curve" smooth="yes"/>
      <point x="453" y="620"/>
      <point x="384" y="690"/>
      <point x="293" y="690" type="curve" smooth="yes"/>
      <point x="206" y="690"/>
      <point x="136" y="623"/>
      <point x="136" y="534" type="curve" smooth="yes"/>
      <point x="136" y="447"/>
      <point x="202" y="380"/>
    </contour>
    <contour>
      <point x="375" y="665"/>
      <point x="397" y="618"/>
      <point x="397" y="534" type="curve" smooth="yes"/>
      <point x="397" y="453"/>
      <point x="375" y="405"/>
      <point x="294" y="405" type="curve" smooth="yes"/>
      <point x="212" y="405"/>
      <point x="191" y="457"/>
      <point x="191" y="534" type="curve" smooth="yes"/>
      <point x="191" y="618"/>
      <point x="220" y="665"/>
      <point x="294" y="665" type="curve" smooth="yes"/>
    </contour>
    <contour>
      <point x="593" y="-9" type="curve" smooth="yes"/>
      <point x="681" y="-9"/>
      <point x="753" y="55"/>
      <point x="753" y="145" type="curve" smooth="yes"/>
      <point x="753" y="231"/>
      <point x="684" y="301"/>
      <point x="593" y="301" type="curve" smooth="yes"/>
      <point x="506" y="301"/>
      <point x="436" y="234"/>
      <point x="436" y="145" type="curve" smooth="yes"/>
      <point x="436" y="58"/>
      <point x="502" y="-9"/>
    </contour>
    <contour>
      <point x="675" y="276"/>
      <point x="697" y="229"/>
      <point x="697" y="145" type="curve" smooth="yes"/>
      <point x="697" y="64"/>
      <point x="675" y="16"/>
      <point x="594" y="16" type="curve" smooth="yes"/>
      <point x="512" y="16"/>
      <point x="491" y="68"/>
      <point x="491" y="145" type="curve" smooth="yes"/>
      <point x="491" y="229"/>
      <point x="520" y="276"/>
      <point x="594" y="276" type="curve" smooth="yes"/>
    </contour>
    <contour>
      <point x="953" y="-9" type="curve" smooth="yes"/>
      <point x="1041" y="-9"/>
      <point x="1113" y="55"/>
      <point x="1113" y="145" type="curve" smooth="yes"/>
      <point x="1113" y="231"/>
      <point x="1044" y="301"/>
      <point x="953" y="301" type="curve" smooth="yes"/>
      <point x="866" y="301"/>
      <point x="796" y="234"/>
      <point x="796" y="145" type="curve" smooth="yes"/>
      <point x="796" y="58"/>
      <point x="862" y="-9"/>
    </contour>
    <contour>
      <point x="1035" y="276"/>
      <point x="1057" y="229"/>
      <point x="1057" y="145" type="curve" smooth="yes"/>
      <point x="1057" y="64"/>
      <point x="1035" y="16"/>
      <point x="954" y="16" type="curve" smooth="yes"/>
      <point x="872" y="16"/>
      <point x="851" y="68"/>
      <point x="851" y="145" type="curve" smooth="yes"/>
      <point x="851" y="229"/>
      <point x="880" y="276"/>
      <point x="954" y="276" type="curve" smooth="yes"/>
    </contour>
  </outline>
</glyph>
<glyph name="guilsinglleft" format="2">
  <advance width="333"/>
  <unicode hex="2039"/>
  <note>
guilsinglleft
</note>
  <outline>
    <contour>
      <point x="269" y="64" type="curve"/>
      <point x="283" y="78" type="line"/>
      <point x="226" y="142"/>
      <point x="179" y="200"/>
      <point x="142" y="253" type="curve"/>
      <point x="179" y="306"/>
      <point x="226" y="364"/>
      <point x="283" y="428" type="curve"/>
      <point x="269" y="442" type="line"/>
      <point x="247" y="420"/>
      <point x="219" y="395"/>
      <point x="186" y="366" type="curve" smooth="yes"/>
      <point x="96" y="290" type="line"/>
      <point x="50" y="253" type="line"/>
      <point x="96" y="216" type="line"/>
      <point x="186" y="140" type="line" smooth="yes"/>
      <point x="219" y="111"/>
      <point x="247" y="86"/>
    </contour>
  </outline>
</glyph>
<glyph name="fraction" format="2">
  <advance width="120"/>
  <unicode hex="2044"/>
  <note>
fraction
</note>
  <outline>
    <contour>
      <point x="355" y="673" type="line"/>
      <point x="319" y="673" type="line"/>
      <point x="-227" y="-48" type="line"/>
      <point x="-190" y="-48" type="line"/>
    </contour>
  </outline>
</glyph>
<glyph name="zerosuperior" format="2">
  <advance width="439"/>
  <unicode hex="2070"/>
  <guideline x="218" y="280" angle="0"/>
  <outline>
    <contour>
      <point x="218" y="375" type="curve" smooth="yes"/>
      <point x="329" y="375"/>
      <point x="419" y="456"/>
      <point x="419" y="569" type="curve" smooth="yes"/>
      <point x="419" y="677"/>
      <point x="332" y="765"/>
      <point x="218" y="765" type="curve" smooth="yes"/>
      <point x="108" y="765"/>
      <point x="20" y="681"/>
      <point x="20" y="569" type="curve" smooth="yes"/>
      <point x="20" y="460"/>
      <point x="104" y="375"/>
    </contour>
    <contour>
      <point x="321" y="739"/>
      <point x="348" y="679"/>
      <point x="348" y="569" type="curve" smooth="yes"/>
      <point x="348" y="463"/>
      <point x="321" y="402"/>
      <point x="219" y="402" type="curve" smooth="yes"/>
      <point x="116" y="402"/>
      <point x="90" y="468"/>
      <point x="90" y="569" type="curve" smooth="yes"/>
      <point x="90" y="679"/>
      <point x="126" y="739"/>
      <point x="219" y="739" type="curve" smooth="yes"/>
    </contour>
  </outline>
</glyph>
<glyph name="foursuperior" format="2">
  <advance width="412"/>
  <unicode hex="2074"/>
  <outline>
    <contour>
      <point x="9" y="451" type="line"/>
      <point x="385" y="451" type="line"/>
      <point x="385" y="474" type="line"/>
      <point x="26" y="474" type="line"/>
      <point x="41" y="465" type="line"/>
      <point x="113" y="494"/>
      <point x="208" y="597"/>
      <point x="277" y="708" type="curve"/>
      <point x="198" y="765" type="line"/>
      <point x="203" y="631"/>
      <point x="126" y="527"/>
      <point x="9" y="469" type="curve"/>
    </contour>
    <contour>
      <point x="234" y="562" type="line"/>
      <point x="234" y="384" type="line"/>
      <point x="158" y="345" type="line"/>
      <point x="158" y="343" type="line"/>
      <point x="362" y="343" type="line"/>
      <point x="362" y="345" type="line"/>
      <point x="286" y="384" type="line"/>
      <point x="286" y="592" type="line"/>
    </contour>
  </outline>
</glyph>
<glyph name="Euro" format="2">
  <advance width="851"/>
  <unicode hex="20AC"/>
  <note>
Euro
</note>
  <outline>
    <contour>
      <point x="492" y="23" type="curve" smooth="yes"/>
      <point x="338" y="23"/>
      <point x="206" y="134"/>
      <point x="206" y="355" type="curve" smooth="yes"/>
      <point x="206" y="572"/>
      <point x="312" y="683"/>
      <point x="460" y="683" type="curve" smooth="yes"/>
      <point x="578" y="683"/>
      <point x="673" y="620"/>
      <point x="766" y="466" type="curve"/>
      <point x="770" y="467" type="line"/>
      <point x="715" y="697" type="line"/>
      <point x="713" y="697" type="line"/>
      <point x="668" y="634" type="line"/>
      <point x="607" y="686"/>
      <point x="544" y="715"/>
      <point x="443" y="715" type="curve" smooth="yes"/>
      <point x="265" y="715"/>
      <point x="106" y="592"/>
      <point x="106" y="355" type="curve" smooth="yes"/>
      <point x="106" y="123"/>
      <point x="275" y="-15"/>
      <point x="465" y="-15" type="curve" smooth="yes"/>
      <point x="610" y="-15"/>
      <point x="719" y="70"/>
      <point x="775" y="207" type="curve"/>
      <point x="748" y="218" type="line"/>
      <point x="694" y="94"/>
      <point x="598" y="23"/>
    </contour>
    <contour>
      <point x="0" y="402" type="line"/>
      <point x="0" y="369" type="line"/>
      <point x="525" y="369" type="line"/>
      <point x="525" y="402" type="line"/>
    </contour>
    <contour>
      <point x="0" y="312" type="line"/>
      <point x="0" y="278" type="line"/>
      <point x="525" y="278" type="line"/>
      <point x="525" y="312" type="line"/>
    </contour>
  </outline>
</glyph>
<glyph name="trademark" format="2">
  <advance width="1187"/>
  <unicode hex="2122"/>
  <note>
trademark
</note>
  <outline>
    <contour>
      <point x="10" y="525" type="line"/>
      <point x="109" y="680" type="line"/>
      <point x="223" y="680" type="line"/>
      <point x="223" y="340" type="line"/>
      <point x="142" y="297" type="line"/>
      <point x="142" y="296" type="line"/>
      <point x="359" y="296" type="line"/>
      <point x="359" y="297" type="line"/>
      <point x="278" y="340" type="line"/>
      <point x="278" y="680" type="line"/>
      <point x="393" y="680" type="line"/>
      <point x="491" y="525" type="line"/>
      <point x="492" y="526" type="line"/>
      <point x="450" y="713" type="line"/>
      <point x="448" y="713" type="line"/>
      <point x="407" y="700" type="line"/>
      <point x="94" y="700" type="line"/>
      <point x="53" y="713" type="line"/>
      <point x="52" y="713" type="line"/>
      <point x="11" y="525" type="line"/>
    </contour>
    <contour>
      <point x="834" y="360" type="line"/>
      <point x="851" y="338" type="line"/>
      <point x="1031" y="662" type="line"/>
      <point x="1031" y="341" type="line"/>
      <point x="970" y="299" type="line"/>
      <point x="970" y="296" type="line"/>
      <point x="1146" y="296" type="line"/>
      <point x="1146" y="299" type="line"/>
      <point x="1084" y="341" type="line"/>
      <point x="1084" y="663" type="line"/>
      <point x="1162" y="699" type="line"/>
      <point x="1162" y="700" type="line"/>
      <point x="1023" y="700" type="line"/>
    </contour>
    <contour>
      <point x="890" y="296" type="line"/>
      <point x="664" y="700" type="line"/>
      <point x="513" y="700" type="line"/>
      <point x="513" y="698" type="line"/>
      <point x="590" y="663" type="line"/>
      <point x="590" y="344" type="line"/>
      <point x="513" y="296" type="line"/>
      <point x="513" y="297" type="line"/>
      <point x="693" y="296" type="line"/>
      <point x="693" y="299" type="line"/>
      <point x="616" y="344" type="line"/>
      <point x="616" y="662" type="line"/>
      <point x="822" y="296" type="line"/>
    </contour>
  </outline>
</glyph>
<glyph name="notequal" format="2">
  <advance width="480"/>
  <unicode hex="2260"/>
  <note>
notequal
</note>
  <outline>
    <component base="equal"/>
    <contour>
      <point x="340" y="499" type="line"/>
      <point x="95" y="153" type="line"/>
      <point x="120" y="133" type="line"/>
      <point x="365" y="479" type="line"/>
    </contour>
  </outline>
</glyph>
<glyph name="greaterequal" format="2">
  <advance width="480"/>
  <unicode hex="2265"/>
  <note>
greaterequal
</note>
  <outline>
    <contour>
      <point x="32" y="257" type="line"/>
      <point x="42" y="224" type="line"/>
      <point x="445" y="340" type="line"/>
      <point x="445" y="366" type="line"/>
      <point x="42" y="482" type="line"/>
      <point x="32" y="449" type="line"/>
      <point x="364" y="353" type="line"/>
    </contour>
    <component base="minus" yOffset="-150"/>
  </outline>
</glyph>
<glyph name="fi" format="2">
  <advance width="850"/>
  <unicode hex="FB01"/>
  <anchor x="737" y="0" name="bottom"/>
  <anchor x="803.962" y="0" name="ogonek"/>
  <anchor x="726" y="500" name="top"/>
  <outline>
    <contour>
      <point x="30" y="0" type="line"/>
      <point x="383" y="0" type="line"/>
      <point x="383" y="4" type="line"/>
      <point x="224" y="65" type="line"/>
      <point x="224" y="494" type="line" smooth="yes"/>
      <point x="224" y="676"/>
      <point x="300" y="737"/>
      <point x="427" y="737" type="curve" smooth="yes"/>
      <point x="538" y="737"/>
      <point x="605" y="687"/>
      <point x="625" y="595" type="curve"/>
      <point x="627" y="595" type="line"/>
      <point x="675" y="694" type="line"/>
      <point x="605" y="735"/>
      <point x="535" y="765"/>
      <point x="426" y="765" type="curve" smooth="yes"/>
      <point x="243" y="765"/>
      <point x="144" y="661"/>
      <point x="144" y="500" type="curve" smooth="yes"/>
      <point x="144" y="65" type="line"/>
      <point x="30" y="4" type="line"/>
    </contour>
    <contour>
      <point x="33" y="473" type="line"/>
      <point x="473" y="473" type="line"/>
      <point x="473" y="500" type="line"/>
      <point x="33" y="500" type="line"/>
    </contour>
    <contour>
      <point x="515" y="0" type="line"/>
      <point x="818" y="0" type="line"/>
      <point x="818" y="2" type="line"/>
      <point x="705" y="65" type="line"/>
      <point x="705" y="500" type="line"/>
      <point x="345" y="500" type="line"/>
      <point x="345" y="473" type="line"/>
      <point x="630" y="473" type="line"/>
      <point x="630" y="65" type="line"/>
      <point x="515" y="2" type="line"/>
    </contour>
  </outline>
</glyph>
<glyph name="fl" format="2">
  <advance width="844"/>
  <unicode hex="FB02"/>
  <outline>
    <contour>
      <point x="30" y="0" type="line"/>
      <point x="383" y="0" type="line"/>
      <point x="383" y="4" type="line"/>
      <point x="224" y="65" type="line"/>
      <point x="224" y="494" type="line" smooth="yes"/>
      <point x="224" y="676"/>
      <point x="300" y="737"/>
      <point x="427" y="737" type="curve" smooth="yes"/>
      <point x="538" y="737"/>
      <point x="605" y="687"/>
      <point x="625" y="595" type="curve"/>
      <point x="627" y="595" type="line"/>
      <point x="675" y="694" type="line"/>
      <point x="605" y="735"/>
      <point x="535" y="765"/>
      <point x="426" y="765" type="curve" smooth="yes"/>
      <point x="243" y="765"/>
      <point x="144" y="661"/>
      <point x="144" y="500" type="curve" smooth="yes"/>
      <point x="144" y="65" type="line"/>
      <point x="30" y="4" type="line"/>
    </contour>
    <contour>
      <point x="33" y="473" type="line"/>
      <point x="473" y="473" type="line"/>
      <point x="473" y="500" type="line"/>
      <point x="33" y="500" type="line"/>
    </contour>
    <contour>
      <point x="509" y="0" type="line"/>
      <point x="812" y="0" type="line"/>
      <point x="812" y="2" type="line"/>
      <point x="699" y="65" type="line"/>
      <point x="699" y="750" type="line"/>
      <point x="624" y="718" type="line"/>
      <point x="624" y="65" type="line"/>
      <point x="509" y="2" type="line"/>
    </contour>
  </outline>
</glyph>
<glyph name="caroncomb.alt" format="2">
  <advance width="159"/>
  <anchor x="20" y="700" name="_topright"/>
  <outline>
    <contour>
      <point x="38" y="551" type="line"/>
      <point x="54" y="548" type="line"/>
      <point x="114" y="705" type="line" smooth="yes"/>
      <point x="117" y="713"/>
      <point x="119" y="722"/>
      <point x="119" y="733" type="curve" smooth="yes"/>
      <point x="119" y="748"/>
      <point x="109" y="765"/>
      <point x="88" y="765" type="curve" smooth="yes"/>
      <point x="61" y="765"/>
      <point x="53" y="738"/>
      <point x="51" y="711" type="curve" smooth="yes"/>
    </contour>
  </outline>
</glyph>
<glyph name="f_f" format="2">
  <advance width="984"/>
  <outline>
    <contour>
      <point x="31" y="474" type="line"/>
      <point x="922" y="473" type="line"/>
      <point x="922" y="500" type="line"/>
      <point x="31" y="501" type="line"/>
    </contour>
    <contour>
      <point x="663" y="502" type="line" smooth="yes"/>
      <point x="663" y="676"/>
      <point x="721" y="737"/>
      <point x="810" y="737" type="curve" smooth="yes"/>
      <point x="897" y="737"/>
      <point x="954" y="667"/>
      <point x="974" y="585" type="curve"/>
      <point x="976" y="585" type="line"/>
      <point x="1024" y="684" type="line"/>
      <point x="954" y="735"/>
      <point x="884" y="765"/>
      <point x="815" y="765" type="curve" smooth="yes"/>
      <point x="662" y="765"/>
      <point x="583" y="661"/>
      <point x="583" y="500" type="curve" smooth="yes"/>
      <point x="583" y="65" type="line"/>
      <point x="469" y="4" type="line"/>
      <point x="469" y="0" type="line"/>
      <point x="822" y="0" type="line"/>
      <point x="822" y="4" type="line"/>
      <point x="663" y="65" type="line"/>
    </contour>
    <contour>
      <point x="224" y="494" type="line" smooth="yes"/>
      <point x="224" y="666"/>
      <point x="300" y="725"/>
      <point x="417" y="725" type="curve" smooth="yes"/>
      <point x="518" y="725"/>
      <point x="575" y="677"/>
      <point x="595" y="585" type="curve"/>
      <point x="597" y="585" type="line"/>
      <point x="645" y="684" type="line"/>
      <point x="575" y="725"/>
      <point x="515" y="755"/>
      <point x="416" y="755" type="curve" smooth="yes"/>
      <point x="243" y="755"/>
      <point x="144" y="651"/>
      <point x="144" y="500" type="curve" smooth="yes"/>
      <point x="144" y="65" type="line"/>
      <point x="30" y="4" type="line"/>
      <point x="30" y="0" type="line"/>
      <point x="383" y="0" type="line"/>
      <point x="383" y="4" type="line"/>
      <point x="224" y="65" type="line"/>
    </contour>
  </outline>
</glyph>
